<?xml version="1.0" encoding="utf-8"?>
<!-- Generator: Adobe Illustrator 23.0.1, SVG Export Plug-In . SVG Version: 6.00 Build 0)  -->
<svg version="1.1" id="Calque_1" xmlns="http://www.w3.org/2000/svg" xmlns:xlink="http://www.w3.org/1999/xlink" x="0px" y="0px"
	 viewBox="0 0 300 80" style="enable-background:new 0 0 300 80;" xml:space="preserve">
<style type="text/css">
	.st0{fill:#FFFFFF;}
	.st1{fill:#089447;}
	.st2{fill:#E01F26;}
	.st3{fill:#1A2955;}
	.st4{fill:#18793D;}
	.st5{fill:#F6D277;}
	.st6{fill:#D98B33;}
	.st7{fill:#E6B555;}
	.st8{fill:#F4C768;}
	.st9{fill:#F5D06A;}
	.st10{fill:#D78935;}
	.st11{fill:#F7F8F7;}
	.st12{fill:#F9D66D;}
	.st13{fill:#E1AD4F;}
	.st14{fill:#F8D369;}
	.st15{fill:#F8D775;}
	.st16{fill:#F7D576;}
	.st17{fill:#E0A64C;}
	.st18{fill:#E6AE4A;}
	.st19{fill:#F7D97D;}
	.st20{fill:#ECCEA3;}
	.st21{fill:#CE7C29;}
	.st22{fill:#E9BB5C;}
	.st23{fill:#D48F37;}
	.st24{fill:#E1A449;}
	.st25{fill:#C87729;}
	.st26{fill:#E5AC4C;}
	.st27{fill:#F5CA6F;}
	.st28{fill:#F0E2CF;}
	.st29{fill:#D28F36;}
	.st30{fill:#F6D881;}
	.st31{fill:#CD7A29;}
	.st32{fill:#EDCFA3;}
	.st33{fill:#E6AA4F;}
	.st34{fill:#ECCEA5;}
	.st35{fill:#CA812A;}
	.st36{fill:#BF6928;}
	.st37{fill:#ECD0AF;}
	.st38{fill:#EAC99F;}
	.st39{fill:#EECFA4;}
	.st40{fill:#F1D4A9;}
	.st41{fill:#B75D27;}
	.st42{fill:#E8C294;}
	.st43{fill:#E5BB8C;}
	.st44{fill:#ECCDA2;}
	.st45{fill:#EDCC9B;}
	.st46{fill:#CA7729;}
	.st47{fill:#E6AD4D;}
	.st48{fill:#E2A74C;}
	.st49{fill:#CB7A29;}
	.st50{fill:#F7F6F4;}
	.st51{fill:#F7F8F6;}
	.st52{fill:#F8F6F1;}
	.st53{fill:#FCE47E;}
	.st54{fill:#E7B237;}
	.st55{fill:#EFB854;}
	.st56{fill:#F4EADA;}
	.st57{fill:#D78631;}
	.st58{fill:#D68A32;}
	.st59{fill:#FBE17D;}
	.st60{fill:#D68731;}
	.st61{fill:#FADA6E;}
	.st62{fill:#F5F0E8;}
	.st63{fill:#BA6328;}
	.st64{fill:#F5F0E7;}
	.st65{fill:#BF6A28;}
	.st66{fill:#F6F4EE;}
	.st67{fill:#F6EFDD;}
	.st68{fill:#F0E0D4;}
	.st69{fill:#F8F4E9;}
	.st70{fill:#D58A32;}
	.st71{fill:#CC7929;}
	.st72{fill:#ECAF4D;}
	.st73{fill:#FCF4A9;}
	.st74{fill:#ECB04D;}
	.st75{fill:#F8F5F0;}
	.st76{fill:#FDF4A2;}
	.st77{fill:#FCEBA0;}
	.st78{fill:#F7F3E9;}
	.st79{fill:#FADD74;}
	.st80{fill:#E8B542;}
	.st81{fill:#ECB357;}
	.st82{fill:#F7F3EA;}
	.st83{fill:#FCF3A5;}
	.st84{fill:#E3A84A;}
	.st85{fill:#FDEB98;}
	.st86{fill:#ECAF4C;}
	.st87{fill:#CD893A;}
	.st88{fill:#D78732;}
	.st89{fill:#ECAD4B;}
	.st90{fill:#EEB44F;}
	.st91{fill:#FCF1A4;}
	.st92{fill:#FCF6AF;}
	.st93{fill:#C17029;}
</style>
<ellipse class="st0" cx="169.8" cy="33.6" rx="15.3" ry="15.3"/>
<g>
	<g id="g10" transform="matrix(1.3333333,0,0,-1.3333333,0,510.71997)">
		<g id="g16" transform="matrix(0.23999999,0,0,-0.23999999,0,383.03998)">
			<g id="g42">
				<g>
					<g id="g44">
						<g id="g50" transform="matrix(1.1814847,0,0,1.1833069,-354.06363,143.04088)">
							<path id="path54" class="st0" d="M748.2-101.8v-11.1c0-0.2,0.1-0.3,0.3-0.3h1.1c0.2,0,0.3,0.1,0.3,0.3v10.8
								c0,0.3,0.3,0.6,0.6,0.6c11.1,0.3,21.4,3.1,31,8.3c14.6,7.9,25.6,21,31.3,36.5c0.2,0.6,0.4,1.1,0.5,1.6
								c0.1,0.2-0.1,0.3-0.3,0.2L750.1-94c-0.2-0.1-0.4-0.4-0.4-0.6v-6.3c0-0.2-0.2-0.4-0.4-0.4h-0.5c-0.3,0-0.5,0.2-0.5,0.5v6.1
								c0,0.2-0.1,0.3-0.2,0.4l-63.6,40c-0.2,0.1-0.3,0.1-0.2-0.2c4.4-13.4,12.1-24.4,23.2-32.9c11.7-9,25.1-13.7,40.2-14
								C748-101.4,748.2-101.6,748.2-101.8L748.2-101.8z"/>
							<path id="path56" class="st0" d="M506.1-29.7C506-29.7,506-29.7,506.1-29.7L506,46.8c0,0.1,0.1,0.2,0.2,0.2h20.6
								c0.1,0,0.1,0,0.1,0.1v3.1c0,0.1,0,0.1-0.1,0.1h-73.9c-0.1,0-0.1,0-0.1-0.1v-3.1c0,0,0-0.1,0.1-0.1h20.4
								c0.1,0,0.2-0.1,0.2-0.2v-150.5c0-0.1-0.1-0.2-0.3-0.2h-20.3c-0.1,0-0.1,0-0.1-0.1v-3c0-0.1,0.1-0.1,0.1-0.1h132.3
								c0.1,0,0.2,0.1,0.2,0.2v37.3c0,0.2-0.1,0.3-0.3,0.3h-2.5c-0.2,0-0.3-0.1-0.3-0.2c-2.1-5.3-4.4-10.1-6.9-14.4
								c-5.4-9.3-13.2-16-23.7-18.7c-3.6-0.9-7.9-1.3-12.1-1.3c-7.7,0-18.8,0-33.2,0c-0.2,0-0.3,0.1-0.3,0.3v70.4
								c0,0.2,0.1,0.3,0.3,0.3c1.6,0,5.2,0,10.9,0c0.3,0,1.8,0,4.7-0.1c10.2-0.3,19-5.1,24-14.3c1.2-2.2,2.1-3.9,2.5-5.2
								c1.7-4.4,3-8.7,3.9-13.1c0-0.2,0.2-0.3,0.3-0.3h2.4c0.2,0,0.3,0.1,0.3,0.3V2.7c0,0.1-0.1,0.2-0.2,0.2h-2.5
								c-0.2,0-0.2-0.1-0.3-0.2c-1.3-5.1-2.7-9.5-4.1-13.2c-1.7-4.6-4.6-9.2-8.2-12.5c-5-4.5-11-6.8-18.2-6.7
								C518.5-29.6,513.2-29.7,506.1-29.7L506.1-29.7z"/>
							<path id="path58" class="st0" d="M331.1,47.6c0.1,0,0.3-0.1,0.3-0.3v-149.9c0-0.1-0.1-0.2-0.2-0.2h-20.2
								c-0.1,0-0.1,0-0.1-0.1v-3c0-0.1,0-0.1,0.1-0.1c19.8,0,32.3,0,37.3,0c9.3,0,19-0.6,29.4-0.6c4.2,0,7-0.1,10.2,0.2
								c3.3,0.2,7,0.7,11.3,1.4c2.2,0.3,4.4,0.9,6.3,1.4c3.5,0.8,7.3,2.3,11.4,4.3c4.9,2.4,9,5.6,12.4,9.7c3.6,4.3,5.7,9.2,6.4,14.9
								c0.8,6.9-0.1,13.8-3.9,19.5c-7.2,10.5-19.9,16.4-31.9,19.3c-2.9,0.7-5.8,1.3-8.8,1.8c-0.2,0-0.3,0.2-0.3,0.3
								c0,0.2,0.1,0.3,0.4,0.3c7.9,0.7,15.3,2.1,22,4c2.5,0.7,5.5,1.9,8.8,3.5c7.3,3.5,13.1,8.6,17.4,15.2c5.3,8.2,5.9,20,3.6,29.3
								c-0.9,3.8-2.7,7.3-5.1,10.5c-7.7,10.1-19.2,16.1-31.5,19.1c-7.2,1.7-14.6,2.7-22.2,2.7c-4.3,0.1-13.2,0-26.9-0.2
								c-9.8-0.1-22.2-0.1-46.2-0.1c-0.1,0-0.1,0-0.1-0.1v-3c0-0.1,0-0.1,0.1-0.1L331.1,47.6z"/>
							<path id="path60" class="st1" d="M661.3,81.3c0,0.2-0.2,0.3-0.4,0.3h-6.6c-0.2,0-0.4-0.1-0.4-0.3v-197.6
								c0-0.2,0.2-0.3,0.4-0.3h6.6c0.2,0,0.4,0.1,0.4,0.3V81.3z"/>
							<path id="path62" class="st2" d="M675,81.2c0,0.2-0.2,0.4-0.6,0.4h-6c-0.3,0-0.6-0.2-0.6-0.4v-197.4c0-0.2,0.2-0.4,0.6-0.4h6
								c0.3,0,0.6,0.2,0.6,0.4V81.2z"/>
							<path id="path64" class="st3" d="M363.8-35.1v-67.4c0-0.1,0.1-0.2,0.2-0.2c6.6-0.8,13.5-1.1,19.8,0.4
								c7,1.6,12.1,5.6,14.7,12.3c1.5,3.9,2.5,8.1,2.9,12.5c0.7,7.2,0.7,14.1,0,20.9c-0.4,3.7-1.4,7.1-3,10.3
								c-3.2,6.3-9.8,9.7-16.6,10.7c-5.8,0.9-11.3,0.7-17.7,0.6C363.9-34.9,363.8-35,363.8-35.1L363.8-35.1z"/>
							<path id="path66" class="st0" d="M713.9-51.2l-32.4,20.9c-0.2,0.1-0.3,0.1-0.3-0.2c-0.3-5.6,0.1-11.2,1.2-16.9
								c0.3-1.5,0.7-3,1.2-4.4c0.1-0.3,0.3-0.6,0.6-0.8l63.9-40.2c0.1-0.1,0.3,0,0.3,0.2v20.4c0,0.2-0.2,0.4-0.4,0.4
								c-2.9,0.1-6.3,0.4-9.3,1.2c-5.5,1.4-10.3,3.8-14.5,7.3c-0.7,0.6-2.1,1.9-4.2,4c-2.5,2.6-4,4.7-5.7,7.5
								C714.1-51.5,714-51.3,713.9-51.2L713.9-51.2z"/>
							<path id="path68" class="st0" d="M788.3-48.6c-1.3-1-2.8-1.7-4-2.9c-0.2-0.2-0.4-0.4-0.5-0.6c-3.2-5.3-7.4-9.6-12.7-12.9
								c-6.4-4-13.4-6.3-21-6.8c-0.2,0-0.4-0.2-0.4-0.4v-20.1c0-0.1,0.2-0.2,0.3-0.2c22.7,14,43.6,27.1,62.9,39.3
								c0.8,0.5,1.2,0.7,1.5,1.7c1.3,5.6,2,9.5,2.2,11.8c0.2,3,0.3,6,0.2,9c0,0.1-0.1,0.3-0.3,0.2c-0.3-0.1-0.6-0.2-0.9-0.4
								C806.5-36.8,797.4-42.7,788.3-48.6L788.3-48.6z"/>
							<path id="path74" class="st4" d="M748.3-51.6c-3.2,0.1-6.1,0.7-8.7,2.1c-12.7,6.7-14.5,24.3-3.3,33.4c3.4,2.8,7.4,4.2,12,4.2
								l0,19.6c0,0.2-0.1,0.3-0.3,0.3c-4.6,0-9.1-0.8-13.4-2.5c-1.9-0.7-3.7-1.5-5.4-2.3c-1.2-1-2.4-1.9-3.6-2.7
								c-1-0.6-1.8-1.2-2.5-1.8c-0.8-0.7-1.5-1.4-2.3-2.1c-1-0.8-2.7-3.1-5.1-6.8c-10.1-16.7-7.3-37.3,6.2-50.9
								c1.2-1.2,3.1-2.7,5.6-4.4c0.7-0.5,1.6-0.9,2.6-1.4c1.1-0.5,2.3-1.3,3.5-1.7c4.6-1.8,9.3-2.8,14.1-3c0.3,0,0.6,0.2,0.6,0.6
								L748.3-51.6L748.3-51.6z"/>
							<path class="st0" d="M721.4-3.7c-1.7-1.8-2.8-2.9-4-4.8c-0.5-0.7-1-1.4-1.5-2c-0.5-0.6-1.7-2.7-3.4-6.4
								c-0.2-0.5-0.2-1.2-0.4-1.7c-3.4-8.4-3.2-17.7-0.3-26.2v0c0-0.1,0-0.2,0.1-0.3c0.1-1.1,0.3-2.3,0.6-3.3
								c-0.1,0.1-0.2,0.2-0.3,0.3c-6.7,4.2-16.8,10.6-30.3,19.1c-0.3,0.2-0.5,0.6-0.5,0.9c0.4,5.6,1.6,11.1,3.4,16.4
								c0,0.1,0.2,0.2,0.3,0.1l24.2-15l0,0c0.2-0.1,0.4-0.1,0.4,0.2v0.9c0,0.2-0.1,0.4-0.3,0.5c-7.7,4.7-15.1,9.3-22.2,13.7
								c-0.6,0.3-1,0.5-1.6,0.8c-0.2,0.1-0.2,0.2-0.2,0.4c1.5,5.3,4.2,10.6,7,15.8c0.1,0.1,0.2,0.1,0.3,0.1l23.5-14.6
								c0.3-0.2,0.5-0.1,0.7,0.2l0.2,0.3c0.2,0.2,0.1,0.5-0.2,0.7L693.4,6.7c-0.2,0.1-0.2,0.3-0.1,0.5c2.5,4.6,5.3,9.1,8.3,13.4
								c0.2,0.2,0.3,0.4,0.5,0.4c0.3,0.1,0.5,0.1,0.7-0.1c0.4-0.3,0.5-0.5,0.6-0.5c4.1-2.5,13.1-8.2,27.1-16.9
								c0.2-0.1,0.2-0.4,0-0.5C726.9,1.3,723.9-1,721.4-3.7z"/>
							<path id="path80" class="st2" d="M748.3-51.9c7.2,0.3,12.8,3.3,16.9,9.3c0,0,0,0.1,0,0.1l0,0c0,0-0.1,0-0.1,0
								c-4.5-4.8-10-6.3-16.5-4.7c-0.1,0-0.1,0-0.2,0.1c0,0.1-0.1,0.1-0.1,0.2c-0.2-0.2-0.4-0.2-0.6,0c-14.2,5.3-13.9,24.9,0.2,30.1
								c0.1,0,0.2,0,0.2,0l0.1-0.1c0,0,0,0.1,0,0.1c0,0.1,0.1,0.1,0.2,0.1c6.5,1.6,12,0.1,16.5-4.7c0,0,0.1-0.1,0.1,0l0,0
								c0,0,0,0.1,0,0.1c-3.7,5.4-8.8,8.5-15.3,9.1c-0.5,0.1-1,0.1-1.5,0.1c-4.8-0.1-8.9-1.5-12.3-4.2c-11.4-9.2-9.6-26.9,3.4-33.6
								C742.1-51.1,745-51.8,748.3-51.9L748.3-51.9L748.3-51.9z"/>
							<path id="path82" class="st0" d="M788.7-46.8c9.1,5.8,18.2,11.7,27.3,17.6c0.5,0.3,0.7,0.7,0.7,1.1
								c-0.5,5.5-1.7,10.9-3.4,16.2c-0.1,0.1-0.2,0.2-0.4,0.1l-20.1-12.6l-3.5-2.7c-0.1-0.1-0.2-0.2-0.2-0.4
								c0.6-6.6-0.2-13-2.5-19.1c-0.2-0.5-0.5-1-0.6-1.3c-0.2-0.7,0-0.8,0.5-0.3C787-47.6,787.8-47.2,788.7-46.8L788.7-46.8z"/>
							<path id="path84" class="st4" d="M748.3-46.9v30l-0.1,0.1c-0.1,0.1-0.2,0.1-0.2,0c-14.2-5.2-14.4-24.9-0.2-30.1
								C747.9-47.1,748.1-47.1,748.3-46.9L748.3-46.9L748.3-46.9z"/>
							<path id="path86" class="st2" d="M759.6-34.2l6.1,2c0.2,0.1,0.2,0.3,0,0.4l-6.1,2c-0.1,0-0.1,0.1-0.1,0.2l0,6.5
								c0,0.2-0.2,0.3-0.4,0.1l-3.8-5.3c-0.1-0.1-0.1-0.1-0.2-0.1l-6.1,2c-0.2,0.1-0.3-0.2-0.2-0.3l3.8-5.3c0.1-0.1,0.1-0.2,0-0.2
								l-3.8-5.3c-0.1-0.2,0-0.4,0.2-0.3l6.2,2c0.1,0,0.2,0,0.2-0.1l3.8-5.3c0.1-0.2,0.4-0.1,0.4,0.1l0,6.5
								C759.5-34.3,759.5-34.2,759.6-34.2L759.6-34.2z"/>
							<path id="path88" class="st0" d="M792.4-23l20.2,12.6c0.1,0.1,0.2,0.3,0.1,0.4c-2,5.4-4.3,10.5-7,15.5
								c-0.1,0.1-0.2,0.2-0.3,0.1L782.7-8.9c-0.1-0.1-0.2-0.3-0.2-0.5c0-0.1,0-0.3,0.1-0.4c1.9-3,3.5-6.1,4.7-9.4
								c0.7-1.7,0.8-2.9,1.3-5.2c0.1-0.4,0.5-0.5,0.8-0.4L792.4-23z"/>
							<path id="path90" class="st3" d="M392.1-28.4c9.6,5.8,14.2,15.6,15,26.6c0.5,6.3,0.4,12.2,0,18.5c-0.4,5.7-1.6,11.6-3.8,17
								c-2.7,6.5-7.7,11.4-14.6,13.1c-2.9,0.7-5.4,1.1-7.6,1.2c-5.4,0.2-11,0.1-16.9-0.4c-0.3,0-0.4-0.2-0.4-0.4v-78.7
								c0-0.1,0.1-0.2,0.2-0.2c9-0.1,14.4-0.1,16.1,0c1.8,0.1,4.1,0.5,6.7,1.2C389-29.9,390.8-29.2,392.1-28.4L392.1-28.4z"/>
							<path id="path92" class="st0" d="M783.1-7l21.7,13.7c0.2,0.1,0.3,0.4,0.2,0.6c-2.5,4.6-5.3,9-8.2,13.3
								c-0.1,0.2-0.4,0.3-0.7,0.1L768.6,3.6c-0.3-0.2-0.7-0.2-1,0l-0.4,0.3c-0.2,0.1-0.2,0.2,0,0.4L795,21.7
								c0.5,0.3,0.5,0.7,0.2,1.1l-9.9,12.8c-0.1,0.1-0.3,0.2-0.4,0.1l-34.7-22.2c-0.2-0.2-0.4-0.4-0.4-0.7V8.3
								c0-0.2,0.2-0.4,0.4-0.4c5.8-0.2,11.2-1.5,16.2-4c0.6-0.3,1.1-0.5,1.3-0.6c1.6-0.7,3.2-1.5,4.6-2.5c3.5-2.3,6.5-5.2,9-8.5
								c0.1-0.2,0.3-0.2,0.5-0.1L783.1-7z"/>
							<path id="path96" class="st0" d="M714.1,35.3c-0.4,0.3-0.7,0.7-0.9,0.8c-0.2,0.1-0.3,0.1-0.4,0l-10.2-13.5
								c-0.1-0.1-0.1-0.2,0.1-0.3c3.9-2.5,13.2-8.4,28-17.7c0.4-0.3,0.9-0.3,1.3-0.1c3.3,1.5,6.2,2.5,8.9,3c1.9,0.3,4.3,0.6,7.1,0.7
								c0.3,0,0.5,0.2,0.5,0.5v4.5c0,0.2-0.1,0.3-0.2,0.4C728.7,25.9,717.3,33.2,714.1,35.3L714.1,35.3L714.1,35.3z"/>
							<path id="path98" class="st0" d="M724.1,50.6l-10.3-13.3c-0.1-0.1-0.1-0.3,0.1-0.3L748,15.1c0.2-0.1,0.4,0,0.4,0.2v19.5
								c0,0.1,0,0.2-0.1,0.2l-23.9,15.7C724.3,50.8,724.1,50.7,724.1,50.6L724.1,50.6z"/>
							<path id="path100" class="st0" d="M784.2,37.2L774,50.4c-0.1,0.1-0.3,0.2-0.5,0.1L749.9,35c-0.1-0.1-0.2-0.2-0.2-0.3V15.5
								c0-0.3,0.3-0.5,0.6-0.3l33.8,21.5C784.3,36.8,784.3,37.1,784.2,37.2L784.2,37.2z"/>
							<path id="path102" class="st0" d="M725.6,51.4c4.9-3.2,12.3-8.1,22.4-14.7c0.2-0.1,0.4,0,0.4,0.2V56c0,0.3-0.1,0.5-0.3,0.7
								l-12.6,8.5c-0.1,0.1-0.2,0-0.2,0l-10.3-13.2c-0.1-0.1,0-0.3,0.1-0.3c0,0,0.1,0,0.3-0.1C725.5,51.5,725.5,51.5,725.6,51.4z"/>
							<path id="path104" class="st0" d="M772.9,51.9l-9.9,12.8c-0.1,0.1-0.3,0.1-0.4,0.1l-12.7-8.3c-0.1-0.1-0.1-0.1-0.1-0.2V36.9
								c0-0.2,0.2-0.4,0.4-0.2l22.6,14.8C772.9,51.6,773,51.8,772.9,51.9L772.9,51.9z"/>
							<path id="path106" class="st0" d="M749.8,80.8V58.6c0-0.3,0.3-0.4,0.5-0.3l11.4,7.5c0.2,0.1,0.2,0.3,0.1,0.5L750.3,81
								C750.2,81.2,749.8,81.1,749.8,80.8L749.8,80.8z"/>
							<path id="path108" class="st0" d="M747.9,81.4l-11.6-15c-0.1-0.1-0.1-0.3,0.1-0.4l11.6-7.7c0.2-0.1,0.4,0,0.4,0.2v22.6
								C748.4,81.5,748,81.6,747.9,81.4z"/>
							<path id="path110" class="st0" d="M546.3,83c-0.2,0.3-0.3,0.7-0.4,1.1c0,0.2-0.1,0.3-0.3,0.3h-0.1c-0.2,0-0.3-0.1-0.3-0.3
								v-8.8c0-0.1,0.1-0.2,0.2-0.2h0.4c0.2,0,0.3,0.1,0.3,0.3c0.3,4.3,1.9,9,7.1,8.2c3.4-0.5,4.2-4.1,2.4-6.6
								c-0.6-0.8-1.4-1.6-2.5-2.3c-3.8-2.6-7.9-4.6-7.8-9.3c0.1-5.4,6.2-6.7,10.4-5.7c1,0.2,2.3,1,3.3,1.5c0.1,0.1,0.3,0,0.4-0.1
								c0.3-0.3,0.4-0.6,0.5-1.1c0-0.2,0.2-0.3,0.3-0.3h0.2c0.2,0,0.3,0.1,0.3,0.3l-0.2,7.3c0,0.2-0.1,0.2-0.2,0.2h-0.1
								c-0.2,0-0.4-0.2-0.4-0.4c-0.3-3.1-1.9-6.5-5.3-6.9c-3.5-0.5-5.6,3-3.6,5.9c0.5,0.7,1.2,1.4,2.2,2c2.6,1.8,4.5,3,5.6,3.9
								c4.5,3.4,4.5,9.6-1.1,11.9c-3.3,1.3-7.5,0.9-10.6-1C546.7,82.7,546.4,82.8,546.3,83L546.3,83z"/>
							<path id="path112" class="st0" d="M364.1,74.9c-0.1,0-0.1,0-0.2,0.1c-0.8,1.9-1.4,3.6-1.7,5c-0.5,2.2,0.4,3.3,2.7,3.3
								c0.2,0,0.3,0.1,0.3,0.3v0.2c0,0.1-0.1,0.2-0.2,0.2l-6.3,0c-0.2,0-0.4,0-0.4-0.1c0,0,0-0.1,0-0.1c0-0.1,0.1-0.2,0.2-0.3
								c1.1-0.6,2-1.8,2.7-3.6c1.1-2.7,3.7-9.4,7.8-20c0.1-0.1,0.2-0.2,0.3-0.2h1.9c0.2,0,0.3,0.1,0.4,0.2c4.9,12.8,7.8,20,8.5,21.8
								c0.2,0.5,0.4,0.9,0.6,1c0.5,0.5,1.1,0.6,1.7,0.4c1-0.4,0.9-1.7,0.9-2.7c0-6.4,0-12.4,0-18c0-1.7-1.2-1.7-2.4-2
								c-0.1,0-0.1-0.1-0.1-0.2v-0.1c0-0.2,0.1-0.3,0.3-0.3h10.3c0.2,0,0.3,0.1,0.3,0.3v0.2c0,0.1-0.1,0.2-0.2,0.2
								c-2.8-0.3-2.5,1.8-2.5,4c0,6.1,0,11.8,0,17.1c0,1,0.5,1.5,1.5,1.6c1.4,0.1,3,0.2,4.2-0.4c2.5-1.2,4-4.4,4.3-7
								c0-0.2,0.1-0.3,0.3-0.3h0.3c0.2,0,0.3,0.1,0.3,0.3v8c0,0.1,0,0.1-0.1,0.1h-27.8c-0.2,0-0.3-0.1-0.3-0.3v-0.2
								c0-0.1,0.1-0.2,0.2-0.2c1.2,0,2.7-0.2,2.2-1.8c-0.4-1.2-1.2-3.4-2.3-6.5c0-0.1-0.1-0.2-0.2-0.2L364.1,74.9z"/>
							<path id="path114" class="st0" d="M524.1,72.5c1.9,0.3,3.8,0.7,5,2.2c0.4,0.5,0.8,1.6,1.2,3.2c0.5,1.9,0.9,6.9,3.5,4.5
								c0.2-0.2,0.3-0.1,0.4,0l0.1,0.1c0.1,0.1,0.1,0.2,0,0.3c-1.6,1.6-3.5,2.1-5.9,1.6c-1.6-0.3-2.6-1.3-2.9-2.8
								c0-0.1-0.4-2-1.2-5.9c-0.2-0.9-0.5-1.7-1-2.4c-0.7-0.9-2.5-0.8-3.8-0.8c-0.2,0-0.2,0.1-0.2,0.2c0,2.3,0,4.7,0,7
								c0,2-0.2,3.7,2.3,3.6c0.2,0,0.3,0.2,0.3,0.3l0,0.1c0,0.1-0.1,0.2-0.2,0.2h-10c-0.1,0-0.2,0-0.3-0.1c-0.1-0.1-0.2-0.1-0.4,0
								c-0.1,0-0.2,0.1-0.3,0.1h-19.3c-0.1,0-0.2-0.1-0.2-0.2v-0.2c0-0.1,0.1-0.2,0.2-0.2c1.2-0.1,2.7-0.3,2.2-1.8
								c-0.5-1.4-1.3-3.6-2.4-6.6c-0.1-0.1-0.2-0.2-0.3-0.2h-7c-0.2,0-0.3,0.1-0.3,0.2c-0.8,2-1.4,3.7-1.7,5.2
								c-0.5,2.3,0.8,3,2.8,3.1c0.1,0,0.2,0.1,0.2,0.2l0,0.2c0,0.1-0.1,0.2-0.2,0.2h-32.5c-0.2,0-0.3-0.1-0.3-0.3v-0.2
								c0-0.1,0-0.1,0.1-0.1c1.1-0.1,2.7-0.2,2.3-1.7c-0.2-0.7-1-2.9-2.4-6.6c-0.1-0.1-0.2-0.2-0.3-0.2h-6.9c-0.2,0-0.3,0.1-0.3,0.2
								c-1,2.4-1.6,4.2-1.8,5.3c-0.3,2.4,1,2.7,2.9,3c0.1,0,0.2,0.1,0.2,0.2l0,0.2c0,0.1-0.1,0.2-0.3,0.2c-1,0-3.1-0.1-6.3-0.1
								c-0.1,0-0.2,0-0.3-0.1c-0.1-0.1-0.1-0.3,0.1-0.4c1.2-0.6,2.1-1.6,2.6-2.9c1.7-4.2,4.3-11.1,8-20.6c0-0.1,0.2-0.2,0.3-0.2h2
								c0.1,0,0.2,0.1,0.3,0.2c4.3,11,7.1,18.3,8.5,21.9c0.2,0.4,0.5,0.8,0.9,1c0.1,0.1,0.2,0.1,0.3-0.1l11.3-22
								c0.1-0.1,0-0.2-0.1-0.2c-3.8-0.1-7.6-0.3-9.4,3.6c-0.4,0.8-0.6,1.8-0.8,3.2c0,0.2-0.2,0.3-0.4,0.3l-0.3-0.1
								c-0.1,0-0.2-0.1-0.2-0.2V60c0-0.1,0-0.1,0.1-0.1h16.8c0.5,0,0.7,0.2,0.4,0.7l-11.6,22.5c0,0.1,0,0.2,0.1,0.2
								c3.3,0,6.1,0.3,8.4-2.1c1.3-1.3,2-3,2.1-5c0-0.2,0.2-0.3,0.4-0.3h0.2c0.2,0,0.3,0.1,0.3,0.3v6.5c0,0.2,0.2,0.3,0.3,0.1
								c0.7-0.9,1.4-2,1.9-3.3c3.5-9,6-15.5,7.6-19.6c0-0.1,0.1-0.2,0.3-0.2h1.9c0.2,0,0.3,0.1,0.3,0.2c4.9,12.8,7.8,20.1,8.5,21.8
								c0.2,0.4,0.4,0.7,0.5,0.9c0.9,1,2.3,0.8,2.6-0.6c0.1-0.4,0.1-0.9,0.1-1.5c0-7.9,0-14,0-18.1c0-1.7-1.2-1.8-2.5-2
								c-0.1,0-0.2-0.1-0.2-0.2l0-0.2c0-0.1,0.1-0.2,0.3-0.2h10c0.1,0,0.2,0,0.3,0.1c0.1,0.1,0.3,0.1,0.4,0c0.1-0.1,0.2-0.1,0.3-0.1
								c1.8,0,5.8,0,11.8,0c2,0,5.2,0.8,6.6,2.4c1.9,2.2,1.6,5.3-0.2,7.4c-1.5,1.8-3.3,2.1-5.6,2.7
								C523.8,72.4,523.8,72.5,524.1,72.5L524.1,72.5z"/>
							<path id="path116" class="st0" d="M321.6,71.3c1,0.1,1.9,0.3,2.8,0.5c3.3,0.7,6.1,3.3,5.3,7c-0.9,4.2-5.7,5.4-9.5,5.3
								c-3.4-0.1-7-0.1-11,0c-0.1,0-0.2-0.1-0.2-0.2v-0.2c0-0.1,0-0.2,0.1-0.2c1.5-0.2,2.5-0.4,2.5-2.1c0-7,0-13.1,0-18.3
								c0-1-0.2-1.7-0.6-2c-0.2-0.2-0.3-0.2-0.4-0.3l-1.6-0.3c-0.1,0-0.1-0.1-0.1-0.2l0-0.2c0-0.1,0.1-0.2,0.2-0.2c3.2,0,7,0,11.3,0
								c3.1,0,6.8,1.2,7.5,4.5c0.8,3.9-3.3,6.1-6.4,6.8C321.3,71.2,321.3,71.3,321.6,71.3L321.6,71.3z"/>
							<path id="path118" class="st0" d="M338.1,72.4c-0.1,0-0.2,0.1-0.2,0.2c0,2.9,0,5.7,0,8.6c0,2.1,1.7,2.2,3.4,2.2
								c0.1,0,0.3,0.1,0.3,0.3v0.2c0,0.1-0.1,0.3-0.3,0.3h-11.3c-0.1,0-0.3-0.1-0.3-0.3v-0.2c0-0.1,0.1-0.2,0.3-0.2
								c2.6,0.2,2.3-1.8,2.3-3.9c0-2.9,0-8.6,0-17c0-1.7-1.1-1.9-2.4-2c-0.1,0-0.2-0.1-0.2-0.2v-0.1c0-0.2,0.1-0.3,0.3-0.3H348
								c0.1,0,0.2,0.1,0.2,0.2l-0.2,7.4c0,0.1-0.1,0.3-0.2,0.2l-0.1,0c-0.2,0-0.3-0.2-0.3-0.4c-0.8-4.7-2.7-7.2-7.9-6.6
								c-1.6,0.2-1.4,1.3-1.4,2.8c0,1.5,0,4.2,0,8c0,0.1,0.1,0.2,0.2,0.3c3,0.5,4.5-1.7,5-4.2c0-0.2,0.1-0.2,0.3-0.2h0.3
								c0.2,0,0.2,0.1,0.2,0.2v9.4c0,0.1-0.1,0.2-0.2,0.2h-0.2c-0.2,0-0.4-0.2-0.4-0.4C342.8,73.5,341,72.1,338.1,72.4L338.1,72.4z"
								/>
							<path id="path120" class="st0" d="M405.4,83.4c1.4-0.1,2.4-0.4,2.4-2c0-4.7,0-10.7,0-18c0-2-0.1-2.8-2.5-3
								c-0.1,0-0.2-0.1-0.2-0.2v-0.2c0-0.1,0.1-0.2,0.2-0.2c3.7,0,7.4,0,11.2,0c2.4,0,4.6,0.4,6.7,1.3c5,2.1,6.6,7.7,5.8,12.8
								c-1.1,6.6-6.6,10.2-13,10.1c-4.4,0-7.9,0-10.5,0c-0.2,0-0.3-0.1-0.3-0.3v-0.2C405.2,83.5,405.3,83.4,405.4,83.4L405.4,83.4z"
								/>
							<path id="path122" class="st0" d="M440,60.5c-2.1-0.1-2.4,1-2.4,2.9c0,5.6,0,11.3,0,16.9c0,1.7-0.2,4.3-1.2,6
								c-1.6,3-5.1,4.2-8.4,4.1c-0.2,0-0.2-0.1-0.2-0.2c0-0.2,0.1-0.3,0.4-0.4c3.9-0.6,4-4.7,4-7.9c0-6.7,0-13.3,0-19.6
								c0-1.6-1.2-1.7-2.5-1.9c-0.1,0-0.2-0.1-0.2-0.2v-0.2c0-0.2,0.1-0.2,0.2-0.2h10.1c0.2,0,0.3,0.1,0.3,0.3v0.2
								C440.2,60.5,440.1,60.5,440,60.5L440,60.5z"/>
							<path id="path124" class="st3" d="M513.6,81.5c0,1.1-0.9,1.9-1.9,1.9h-1.5c-1.1,0-1.9-0.9-1.9-1.9V62.4
								c0-1.1,0.9-1.9,1.9-1.9h1.5c1.1,0,1.9,0.9,1.9,1.9V81.5z"/>
							<path id="path126" class="st3" d="M317.1,71.1c0-4.1,0-7,0-8.7c0-1,0.5-1.7,1.6-1.8c1.9-0.2,3.1,0.7,3.6,2.5
								c0.5,2.2,0.5,5.8-1.4,7.4C319.9,71.3,318.2,71.3,317.1,71.1C317.1,71.1,317.1,71.1,317.1,71.1L317.1,71.1z"/>
							<path id="path128" class="st3" d="M413.3,62.4c0-1.1,0.9-2.1,2.1-2.1h1.1c3.8,0,6.9,4,6.9,8.8l0,5.5c0,4.9-3.1,8.8-7,8.8
								h-1.1c-1.1,0-2.1-0.9-2.1-2.1L413.3,62.4z"/>
							<path id="path130" class="st3" d="M519.3,71.9c-0.2,0-0.3-0.1-0.3-0.3c0-4.3,0-7.3,0-9.1c0-2.3,1.7-2.3,3.4-1.9
								c3.2,0.8,3.2,5.4,2.7,7.9C524.5,71.7,522.1,71.9,519.3,71.9L519.3,71.9z"/>
							<path id="path132" class="st0" d="M571,75.9c-0.1,2.1-0.1,4.2,0.1,6c0.1,1.5,1.8,1.5,3,1.6c0.1,0,0.2,0.1,0.2,0.2v0.1
								c0,0.1-0.1,0.3-0.3,0.3h-9.7c-0.2,0-0.2-0.1-0.2-0.2v-0.1c0-0.1,0.1-0.2,0.2-0.2c1.3,0.1,2-0.7,2-2.2c0-9.3,0-14.5,0-15.8
								c0-1.4-0.9-1.6-2.1-1.8c-0.1,0-0.2-0.1-0.2-0.2v-0.2c0-0.1,0.1-0.2,0.2-0.2c1.3,0,4.6,0,9.8,0c2,0,3.7,0.5,5.2,1.4
								c2.4,1.6,2.9,4.7,1.6,7.1c-1.8,3.7-6,3.8-9.5,3.9C571,75.6,571,75.7,571,75.9L571,75.9z"/>
							<path id="path134" class="st3" d="M571,64.5c0-0.5,0.4-0.8,0.8-0.8l0.8,0c2.1,0,3.8,1.9,3.8,4.3l0,2.8c0,2.4-1.7,4.3-3.8,4.3
								l-0.8,0c-0.5,0-0.8-0.4-0.8-0.8L571,64.5z"/>
							<path id="path136" class="st3" d="M364.3,74l3.3-8.7c0-0.1,0.2-0.1,0.3,0l3.2,8.7c0,0.1,0,0.2-0.1,0.2l-6.6,0
								C364.3,74.2,364.2,74.1,364.3,74L364.3,74z"/>
							<path id="path138" class="st3" d="M444.5,74l3.3-8.7c0-0.1,0.2-0.1,0.3,0l3.2,8.7c0,0.1,0,0.2-0.1,0.2l-6.6,0
								C444.5,74.2,444.5,74.1,444.5,74z"/>
							<path id="path140" class="st3" d="M483.8,74l3.3-8.7c0-0.1,0.2-0.1,0.3,0l3.2,8.7c0,0.1,0,0.2-0.1,0.2l-6.6,0
								C483.8,74.2,483.8,74.1,483.8,74L483.8,74z"/>
							<path id="path142" class="st0" d="M583.4,77c-0.8,1.9-2.8,6.1,0.7,6c0.1,0,0.2,0.1,0.2,0.2v0.2c0,0.1-0.1,0.2-0.2,0.2h-4.8
								c-0.1,0-0.2,0-0.2-0.2c0,0,0-0.1,0-0.1c0,0,0-0.1,0.1-0.1c0.9-0.4,1.5-1.2,2-2.3c1.7-4.3,3.7-9.4,5.9-15.1
								c0.1-0.1,0.2-0.2,0.3-0.2h1.3c0.2,0,0.3,0.1,0.3,0.2c2.4,6.2,4.5,11.6,6.3,16.3c0.1,0.4,0.6,0.8,1.3,1.1
								c0.1,0.1,0.2,0.2,0.1,0.3c0,0,0,0.1-0.1,0.1c0,0-0.1,0.1-0.2,0c-2.5-0.1-4.9-0.1-7.4,0c-0.1,0-0.2-0.1-0.2-0.2v-0.2
								c0-0.1,0.1-0.2,0.2-0.2c1.2,0,1.8-0.4,1.6-1.2c-0.1-0.5-0.7-2.1-1.8-4.9c-0.1-0.1-0.2-0.2-0.3-0.2h-5
								C583.6,76.8,583.5,76.9,583.4,77L583.4,77L583.4,77z"/>
							<path id="path144" class="st3" d="M583.8,76.1l2.4-6.3c0-0.1,0.2-0.1,0.3,0l2.3,6.3c0,0.1,0,0.2-0.2,0.2l-4.7,0
								C583.8,76.3,583.7,76.2,583.8,76.1L583.8,76.1z"/>
							<path id="path146" class="st3" d="M317.2,71.8c3.7,0,6.6,0.5,6.9,4.9c0.2,3.6-1,6.7-5.1,6.6c-1.3,0-1.9-0.7-1.9-2
								c0-1.9,0-5,0-9.4C317.1,71.8,317.1,71.8,317.2,71.8z"/>
						</g>
					</g>
				</g>
			</g>
		</g>
	</g>
</g>
<g>
	<path class="st5" d="M128.7,39.4c-0.1,0.6-0.2,1.2-0.2,1.9c0.3,0,0.1-0.4,0.5-0.4c-0.3,1.3-0.6,2.5-1,3.8c0,0,0.1,0,0.1,0
		c0.1-0.3,0.3-0.5,0.4-0.8c0.1,0,0.1,0,0.2,0c-0.4,1.2-0.8,2.3-1.1,3.5c-0.8,2.5-1.6,5-2.4,7.5c-0.2,0.6-0.4,1.3-1.1,1.8
		c-0.4,0-0.5,0.2-0.6,0.4c-0.7,0.9-1.8,1.3-2.8,1.7c-0.2,0.1-0.5,0.2-0.7-0.1c-0.1-0.2,0.1-0.3,0.2-0.5c0.6-1,1.6-1.8,2.5-2.6
		c0.7-0.6,1.4-1.1,1.9-1.8c0.2-0.2,0.3-0.5,0.4-0.8c0.1-0.2,0.1-0.5,0.3-0.7c-0.7,0.7-1.5,1.2-2.3,1.7c-0.1,0.1-0.6,0-0.2,0.3
		c-0.2,0.3-0.5,0.3-0.9,0.3c-1-0.2-1.1-0.4-0.6-1.1c0.7-1.2,1.9-2,2.9-3c0.6-0.6,1.3-1.1,1.8-1.9c0.1-0.2,0.2-0.5,0.2-0.7
		c0.3-0.6,0.7-1.1,0.9-1.6c-0.9,1.1-1.9,2-3.4,2.6c-1,0.1-1.3-0.2-1-1c0.2-0.6,0.7-1.1,1.2-1.6c1.2-1.3,2.7-2.5,3.5-4.1
		c0.2-0.3,0.2-0.6,0.2-0.9c0.4-0.8,0.5-1.6,1-2.3C128.8,39,128.8,39.2,128.7,39.4z"/>
	<path class="st6" d="M115.2,35.8c0.1,0.2-0.1,0.5,0.3,0.7c0.2,0.1,0.4,0,0.7,0.1c0.1,0.1,0.1,0.1,0.1,0.2c0,0.2-0.1,0.5-0.1,0.7
		c-0.5,1.9-0.4,3.9-0.4,5.9c0.2,1.4,0.2,2.8,0.6,4.2c0,0.5,0.2,1,0.3,1.5c0.1,0.2,0.2,0.4,0.3,0.7c0.3,0.8,1,1.5,1.3,2.4
		c0.3,1.1,0.7,2.1-0.4,3.1c-0.3,0.3-0.3,0.9-0.2,1.4c0.2,0.9,0.3,1.9,0.5,2.8c0,0.8,0.4,1.5,1,2.2c0,0.1,0,0.2,0,0.2
		c-1.2,0.6-1.2,1.6-1.4,2.6c-0.4,2-0.9,3.9-1.3,5.9c-0.1,0.3-0.1,0.7-0.4,0.9c-0.3,0.2-0.4,0-0.3-0.3c0.5-2.6,0.9-5.2,1.4-7.8
		c0.1-0.4,0.1-0.8-0.1-1.2c-0.5-1.1-1.3-2.1-1.8-3.3c-0.3-0.6-0.6-1.2-0.8-1.8c0-0.2,0-0.3-0.1-0.5c-0.1-0.1-0.1-0.3,0-0.3
		c0.2-0.1,0.3,0,0.4,0.1c0.3,0.4,0.6,0.9,1.2,1.3c-0.6-1.2-0.9-2.4-1.3-3.5c-0.1-0.3-0.2-0.6,0-0.9c0.6-0.2,0.6,0.2,0.7,0.5
		c0.3,0.4,0.4,0.9,1,1.4c-0.2-1-1.4-1.4-1.3-2.3c-0.7-3.1-0.3-6.2-0.4-9.3c0-0.3,0.2-0.5,0.3-0.7c0.2-2.1-0.2-4.2-0.2-6.4
		C114.9,36,114.7,35.8,115.2,35.8z"/>
	<path class="st7" d="M115.9,25.3c-0.4-0.8-0.4-1.6-0.5-2.6c0.6,0.6,0.5,1.2,0.9,1.6c-0.3-2.9-1.4-5.8-1.4-8.9
		c0.2,0.6,0.3,1.1,0.6,1.6c0.2,0.3,0.1-0.1,0.2-0.1c0.1-0.6,0-1.2-0.2-1.7c-0.1-0.2,0-0.4,0.2-0.5c0.2-0.1,0.4,0.1,0.5,0.3
		c0.3,0.4,0.4,0.8,0.8,1.1c0.3,0.3,0.4,0.6,0.6,0.8c0.4,1.3,1.7,2.3,2.2,3.6c0.1,0.3,0.5,0.6,0.1,0.9c-0.1,0.1-0.2,0.1-0.3,0.1
		c-0.4-0.2-0.3,0.3-0.6,0.3c-0.3,0-0.5-0.2-0.6-0.4c-0.1-0.8-0.9-1.1-1.4-1.7c0,0,0-0.1,0-0.1c-0.1,0-0.1,0-0.1,0.1
		c0,0.6,0.4,1,0.5,1.5c0.7,1.1,1.3,2.2,2,3.2c0.4,0.6,0.7,1.2,0.4,1.9c-0.5,0.3-0.7-0.1-1.1-0.3c-0.2-0.3-0.6-0.3-0.9-0.4
		c-0.8-0.9-0.6-2.1-1.1-2.9c-0.1-0.2-0.2,0-0.1-0.1c0,0,0.1,0,0.1,0c0.2,0.5,0.4,1.1,0.5,1.7c-0.2,1.1,0.3,2.2,0.9,3.1
		c0.9,1.5,1.6,3.1,1.7,4.8c-0.2,0.4-0.5,0.1-0.8,0c-0.2-0.1-0.4-0.1-0.6-0.1c-0.2,0-0.3-0.1-0.4-0.3c-0.1-0.9-0.8-1.7-0.6-2.7
		c-0.1,0-0.2,0.2-0.4,0.1c-0.6-0.6-0.1-1.5-0.6-2.1c-0.3-0.5-0.3-1.2-0.5-1.7C116,25.4,115.9,25.4,115.9,25.3z"/>
	<path class="st8" d="M115,80c0.2-1,0.4-2,0.6-3.1c0.6-3.1,1.3-6.3,2.1-9.3c0.6-2.2,0.6-4.6,2.6-6.4c-0.4-0.3-0.5-0.2-1.1,0.4
		c0,0.4-0.4,0.3-0.7,0.4c-0.2,0-0.5,0-0.4,0.3c0,0.9-0.4,1.8-0.5,2.7c-0.4,2-0.9,4.1-1.3,6.1c0,0.1-0.1,0.1-0.2,0c0,0,0-0.1,0-0.1
		c-0.4,0.7-0.4,1.6-0.6,2.4c-0.5,2.3-0.9,4.6-1.4,6.9C114.2,80.1,114.6,80.1,115,80z"/>
	<path class="st9" d="M119.2,21.7c0-0.3-0.1-0.5-0.1-0.8c0.3,0,0.4,0.2,0.6,0.4c0.4,0.4,0.8,0.7,1.3,1c0.2,0.1,0.3,0.2,0.5,0.2
		c-0.4-1.5-0.5-3-1.7-4.2c-0.2-0.2-0.4-0.5-0.2-0.8c1,0.2,1.3,0.9,1.9,1.5c0.3,0.3,0.5,0.7,0.7,1.1c-0.3-1.4-1.3-2.4-2.7-2.7
		c-0.5,0-0.7-0.3-1-0.6c-0.2-0.4-0.5-0.6-0.7-1c-0.1-0.7-1-1.2-0.7-2.1c0.3-0.2,0.5-0.1,0.7,0.1c0.3,1,0.9,1.9,1.9,2.6
		c0.4,0.2,0.7,0.4,1.1,0.6c0.2,0.1,0.5,0.2,0.7,0.3c0.3,0.2,0.6,0.5,0.9,0.7c0.6-1.8,1.2-3.6,1.5-5.4c0.1-0.3,0.3-0.7,0.1-1
		c-0.1-0.7-0.2-1.3-0.2-2c0,0,0.1,0,0.1,0c0.3,0.9,0.6,1.7,1,2.6c1,1.3,1,2.8,0.5,4.2c-0.3,0.9-0.8,1.8-1.5,2.7
		c-0.3,0.4-0.5,0.9-0.3,1.4c0,0.8-0.4,1.6-0.3,2.5c0,0.4,0.1,0.8,0.3,1.1c0.5,0.8,0.8,1.7,0.8,2.7c0,0.5-0.1,1.1-0.5,1.5
		c-0.3,0.3-0.5,0.7-1.1,0.2c-0.3-1-0.7-2-0.7-3.1c0.2-0.3,0.4-0.2,0.6,0c0.2,0.2,0.3,0.6,0.5,0.8c0-1.7-1.3-2.5-2.7-3.3
		c-0.3-0.1-0.5-0.2-0.8-0.4c-0.2-0.1-0.3-0.3-0.4-0.5C119,22,119,21.8,119.2,21.7z"/>
	<path class="st10" d="M115.9,25.3c0.1,0,0.1,0,0.2,0c0.4,1.1,0.7,2.2,0.8,3.3c0.2,1.9,0,3.9,0.6,5.8c0,0.7-0.1,1.3,0.5,1.9
		c0,0.1,0.1,0.2,0.1,0.2c0.1,0.3,0.3,0.5,0.4,0.8c0,0.5,0.1,0.9,0.3,1.4c0.6,1.2,1.8,2.2,1.8,3.6c0,1.1,0.3,2.1,0.2,3.2
		c-1.5-0.1-2.4-0.9-3.2-1.9c-0.2-0.3-0.4-0.6-0.3-1c0.9-0.1,0.8,0.6,1.2,0.8c-0.1-0.2-0.3-0.5-0.4-0.9c0-2.5-1.1-4.8-1.7-7.2
		c-0.1-0.6,0-1.2-0.3-1.8c-0.1-0.6-0.3-1.1,0-1.7c0.2-1.9-0.1-3.8-0.3-5.6C115.9,26,115.9,25.7,115.9,25.3z"/>
	<path class="st11" d="M123.1,20.5c-0.5-0.5-0.1-1,0.2-1.4c1.2-1.8,2.3-3.5,1.6-5.7c-0.1-0.4-0.5-0.7-0.3-1.1
		c0.4-0.9-0.1-1.8-0.3-2.7c-0.4-2-1-4.1-1.4-6.1c-0.1-0.4-0.4-0.7-0.6-1.1c-0.2-0.3-0.2-0.6,0.1-0.9c0.2-0.2,0.5-0.1,0.7,0
		c0.3,0.2,0.7,0.5,0.4,0.8c-0.8,0.9,0.1,1.8,0.2,2.6c0.2,1.3,0.7,2.5,0.9,3.8c0.4,2.1,1,4.2,1.3,6.3c-0.2,0.8,0.1,1.5,0.1,2.3
		C125.9,18.7,124.6,19.6,123.1,20.5z"/>
	<path class="st12" d="M117.2,9.9c0.2,0.1,0.5,0.1,0.6,0.4c0.3,0.7,0.8,1.1,1.6,1.4c0.5-0.4,0-0.9,0.4-1.3c0.4,0.2,0.3,0.6,0.4,0.9
		c0,0.4,0,0.9,0.5,1.1c0.4,0.2,0.4,0,0.4-0.3c0.3-1.7,0.6-3.5,0.4-5.3c0-0.1,0-0.3,0.1-0.4c1.5,2.1,2.2,4.4,0.9,6.8
		c-0.1,0.2-0.4,0.5,0,0.8c-0.1,0.7-0.4,1.5-0.4,2.2c0,0.4-0.2,0.7-0.7,0.8c-1.1-0.3-0.9-1-0.8-1.6c0.6-0.1,0.6-0.4,0.4-0.8
		c-0.3-1.1-1.3-1.6-2.3-2.1c-0.3-0.1-0.5-0.3-0.8-0.5c-0.3-0.3-0.5-0.7-0.7-1.1C117.1,10.6,116.9,10.3,117.2,9.9z"/>
	<path class="st13" d="M117.6,14c-0.1-0.2-0.4-0.2-0.6-0.2c-1.2-0.3-1.5-1.3-2.1-2.1c-0.3-0.1-0.4-0.3-0.5-0.5
		c-0.4-0.8-0.7-1.6-0.8-2.5c0.1,0.3,0.3,0.5,0.4,0.8c-1.1-3.1-1.4-6.4-2.6-9.6l0.1,0c1.1,1.7,1.4,3.7,2.1,5.5
		c0.3,0.8,0.6,1.6,0.9,2.4c0.2,0.7,0.8,1.2,1.2,1.9c0.8,1,1.4,2.1,2.3,3.1c0.3,0.4,0.7,0.9,0,1.3C117.8,14.1,117.7,14.1,117.6,14z"
		/>
	<path class="st14" d="M125.8,17.3c0.1-0.8-0.3-1.6,0.2-2.4c0.2,1.2,0.4,2.5,0.7,3.7c0.8,2.5-0.5,4.5-2.2,6.4
		c-0.7,0.1-0.9-0.2-0.8-0.7c0-0.6,0.2-1.2,0.5-1.8c0.6-1.4,1.3-2.9,1.6-4.4C125.8,17.8,126,17.6,125.8,17.3z"/>
	<path class="st15" d="M128,36.1c0.2-0.4,0.4-0.9,0.7-1.3c0.6,0.1,0.5,0.5,0.4,0.8c-0.2,1-0.2,2-0.6,3c-0.4,1.7-1.8,2.9-3.4,4
		c-0.3,0.2-0.6,0.4-1.1,0.4c-1.1-0.3-0.5-0.8-0.2-1.2c1-1.6,2.3-3.1,3.6-4.5c0.2-0.2,0.3-0.5,0.5-0.7C128,36.5,128.1,36.3,128,36.1z
		"/>
	<path class="st16" d="M128.2,22.7c0,0.9,0,1.7,0,2.6c0,2.4-1.6,4-3.6,5.4c-0.6-0.3-0.4-0.7-0.2-1.1c0.5-1.5,1.5-2.9,2.4-4.3
		c0.2-0.3,0.4-0.6,0.5-0.9c0-0.1,0.1-0.2,0.1-0.3c0.2-0.4,0.3-0.9,0.5-1.4C128,22.6,128.1,22.6,128.2,22.7z"/>
	<path class="st17" d="M124.7,53.8c-0.1,0.5-0.5,0.7-0.8,1c-1.4,1.2-3,2.3-3.9,3.9c1.3-0.5,2.6-0.9,3.5-1.9c0.2-0.3,0.2-0.2,0.6-0.1
		c-0.4,0.4-0.7,0.9-1.1,1.3c-0.7,0.8-1.2,1.7-2.2,2.3c-0.8,0.6-1.3,0.4-1.6-0.5c0-0.7-0.1-1.4-0.1-2c0.3-0.1,0.5-0.3,0.7-0.5
		C120.9,55.5,122.7,54.5,124.7,53.8z"/>
	<path class="st18" d="M125.2,36.4c-1,0.4-0.9,1-0.5,1.7c-0.1,0.8-0.9,1.3-1.3,2c-0.1,0.1-0.3,0.2-0.5,0.2c-0.3-0.1-0.3-0.4-0.2-0.6
		c0.2-0.6,0.4-1.1,0.6-1.7c0.1-0.3,0.1-0.6-0.3-0.7c-0.1-0.2-0.1-0.4-0.1-0.6c0.5-1.7,1.5-3.1,3-4.3c0.7-0.6,1.5-1.2,1.9-2.1
		c0.2-0.4,0.4-0.9,0.7-1.3c0.5,0.1,0.3,0.5,0.2,0.7c-0.2,1-0.6,1.9-1.4,2.7c-1.1,1.1-1.5,2.4-2.2,3.7
		C125.1,36.1,125.2,36.2,125.2,36.4z"/>
	<path class="st19" d="M125.2,36.4c-0.8-0.1-0.3-0.4-0.2-0.8c0.6-2.1,2.7-3.5,3.4-5.5c0.1-0.4,0.5-0.7,0.1-1.1
		c0.1-0.4,0.1-0.9,0.2-1.3c0.4,0,0.3,0.2,0.2,0.4c0.1,1.3-0.2,2.6-0.3,3.9C128.4,33.8,126.9,35.1,125.2,36.4z"/>
	<path class="st20" d="M128.3,38.8c0.2-1,0.4-2.1,0.6-3.1c0-0.3,0.2-0.6-0.2-0.9c0.3-0.5,0-1.2,0.4-1.7c0.2,0.3,0,0.6,0.1,0.8
		c-0.1-0.4,0.3-0.8,0.2-1.3c-0.1,0.2,0.2,0.6-0.3,0.6c-0.4-1,0.1-2,0.3-3c0.3-2.4,0.7-4.8,1.1-7.2c0-0.1,0.1-0.1,0.3-0.4
		c-0.4,2.7-0.7,5.2-1.1,7.7c0.1,0,0.2,0,0.2,0c0.2-1.1,0.4-2.2,0.6-3.2c0.1,0,0.2,0,0.2,0c-0.3,2.2-0.7,4.4-1,6.5
		c-0.3,1.7-0.6,3.5-0.9,5.2c0,0.1-0.1,0.3-0.2,0.4c-0.1-0.1-0.2-0.3-0.2-0.4C128.4,38.9,128.3,38.9,128.3,38.8z"/>
	<path class="st21" d="M123.2,37.3c0.1-0.1,0.3-0.3,0.4-0.2c0.2,0.1,0.3,0.3,0.2,0.5c-0.2,0.6-0.4,1.2-0.6,1.8
		c-0.1,0.3-0.3,0.5-0.1,0.9c0.5-0.8,0.9-1.5,1.6-2.1c1.1-0.6,2.7-0.7,3.3-1.9c0.2,0.1,0.2,0.2,0.2,0.4c-0.5,0.9-1.2,1.6-2.1,2.2
		c-1.3,0.9-2.1,1.9-2.6,3.3c-0.1,0.4-0.3,0.9-1,0.5c-0.6-0.8-0.7-1.6-0.5-2.5c0-0.1,0.1-0.3,0.2-0.4C122.8,38.9,122.6,38,123.2,37.3
		z"/>
	<path class="st22" d="M115,53c0.2,1.4,0.8,2.6,1.3,3.9c0.1,0.3,0.3,0.6,0.2,1c-0.7-0.5-1.4-0.9-1.7-1.7c0-0.1-0.1-0.2-0.2-0.1
		c0,0,0,0.1-0.1,0.2c-0.5-1.3-0.4-2.6-0.3-3.9c0.2-2.8,0.1-5.5,0.1-8.3c0-0.5,0-1.1,0-1.6c0-0.3,0.3-0.4,0.4,0
		c0.3,0.4,0.2,0.9,0.2,1.3c-0.1,2.6-0.3,5.2,0.1,7.8C115,52.3,115.3,52.7,115,53z"/>
	<path class="st23" d="M121.4,16.9c0.4-0.4,0.5-1,0.4-1.5c-0.1-0.6,0.1-1.1,0.6-1.5c0.9-0.6,1.2-1.4,1.4-2.3
		c0.5,0.8,0.1,1.7-0.1,2.4c-0.3,1.5-0.8,2.9-1.3,4.4c-0.6-0.3-1-0.7-1.3-1.1C120.9,17.2,121.1,17,121.4,16.9z"/>
	<path class="st24" d="M127.5,24.2c0.1,0.4-0.2,0.8-0.4,1.1c-1,1.5-1.9,2.9-2.5,4.5c-0.1,0.3-0.1,0.6,0.1,0.9
		c-0.6,0.5-0.2,0.9,0,1.3c-0.1,1-0.4,1.3-1.2,1.2c-0.3-0.8-0.1-1.7-0.3-2.6c0.3-1,0.6-2,1.1-2.9C124.9,26.3,126.2,25.2,127.5,24.2z"
		/>
	<path class="st11" d="M116.3,32c0.3,0.5,0.1,1.1,0.3,1.7c0.1,1.9,0.5,3.8,0.7,5.7c0.1,1.2,0.6,2.4,1.3,3.4c0.2,0.4,0.4,0.8,0.6,1.2
		c0,0-0.1,0-0.1,0.1c-0.5-0.5-1.1-1-1.6-1.5c-0.4-0.1-0.5-0.4-0.8-0.7c-0.6-0.8-0.7-1.8-0.8-2.7c-0.1-0.7,0.2-1.3,0-2
		c0.1-0.2,0.1-0.3,0.2-0.5c-0.4-0.7-0.1-1.3-0.2-2c0-0.3,0-0.7-0.1-1c-0.1-0.4-0.2-0.9,0.1-1.3C115.9,32.3,115.7,31.8,116.3,32z"/>
	<path class="st25" d="M127.5,24.2c-0.8,0.9-1.6,1.7-2.4,2.5c-0.8,0.8-1,1.9-1.3,2.9c-0.1,0.3-0.1,0.7-0.5,0.9
		c-0.7-0.3-0.9-0.8-1.1-1.4c0-0.3-0.1-0.6,0.5-0.7c1.1-0.2,1-1,1.1-1.7c0.2-0.4,0.1-1,0.9-1.2c1.1-0.4,2.1-0.9,2.6-1.9
		C127.7,23.8,127.7,23.9,127.5,24.2L127.5,24.2z"/>
	<path class="st21" d="M123.6,33.4c0.6-0.3,0.8-0.8,1.1-1.3c1-0.7,2.5-0.8,3.1-1.9c0.2,0.8-0.6,1.3-1.1,1.7
		c-1.7,1.3-2.8,2.9-3.6,4.7c-0.8-0.4-0.4-1.1-0.5-1.7c0-0.1,0-0.2,0.1-0.3C123,34.1,123.1,33.6,123.6,33.4z"/>
	<path class="st26" d="M124.7,25.7c-0.3,0.4-0.6,0.8-0.9,1.2c0-0.9-0.3-1.8-0.7-2.6c-0.2-2.5,1.3-4.4,2.9-6.2c0,1.6-0.9,2.9-1.5,4.3
		c-0.2,0.6-0.4,1.3-0.6,1.9c-0.2,0.5,0.3,0.5,0.6,0.7C124.6,25.2,124.6,25.4,124.7,25.7z"/>
	<path class="st27" d="M119.4,59.8c0.1,0.8,0.6,0.6,1.1,0.3c0.9-0.6,1.5-1.6,2.4-2.2c-0.6,1.3-1.3,2.5-2.6,3.4
		c-0.5-0.2-0.6,0.5-1.1,0.4c-1-0.1-0.7-0.9-1-1.4c-0.1-0.2,0-0.5,0-0.7c-0.2-0.5,0.1-0.9,0.4-1.3c0.8,0,0.5,0.5,0.6,0.8
		C119.1,59.3,118.7,59.8,119.4,59.8z"/>
	<path class="st28" d="M114.7,44.1c0-0.4,0.1-0.9,0.1-1.3c0.1-0.1,0.3-0.1,0.4-0.2c0,2.4,0.1,4.7,0,7.1c0,1.1,0.4,2.1,0.3,3.2
		c-0.5-0.2-0.5-0.6-0.6-1C114.5,49.2,114.7,46.6,114.7,44.1z"/>
	<path class="st29" d="M114.3,11.3c0.2,0.1,0.3,0.4,0.7,0.2c0.6,1.3,1.3,2.6,2.1,3.8c0,0.3,0.1,0.6-0.1,0.9
		c-0.9-0.1-0.7-0.9-1.2-1.4c-0.1,0.8,0.5,1.5,0,2.1C115.2,15,114.8,13.1,114.3,11.3z"/>
	<path class="st30" d="M114.6,56.9c1.2,1.5,1.6,3.3,2.9,4.7c0.2,0.2-0.1,0.3-0.3,0.4C115.3,60.7,114.7,58.9,114.6,56.9z"/>
	<path class="st31" d="M120.5,12.6c-1.2-0.5-0.5-1.5-0.7-2.2c0.1-0.6,0.7-1,1.1-1.5c0.3-0.4,0.4-0.9,0.5-1.3c0.5,0,0.3,0.3,0.3,0.5
		c0,1.4-0.7,2.8-0.8,4.2C120.9,12.4,120.8,12.6,120.5,12.6z"/>
	<path class="st32" d="M128.2,22.7c-0.1,0-0.1,0-0.2,0c-0.1-0.1-0.1-0.2-0.2-0.3c0-3.9-0.5-7.9-0.1-11.8c0.1,2.6,0.3,5.3,0.2,7.9
		C128,19.8,128.3,21.3,128.2,22.7z"/>
	<path class="st33" d="M120.5,12.6c0.2-1.5,0.7-2.9,1.1-4.4c0.1-0.2,0.1-0.5-0.2-0.7c0-0.3,0-0.6,0-0.9c-0.1-0.2,0-0.2,0.2-0.2
		c0,0,0,0,0,0c0.5,2.1,0,4.1-0.2,6.1c0,0.2,0,0.4-0.3,0.5C120.8,13,120.6,12.8,120.5,12.6z"/>
	<path class="st34" d="M128.9,27.9c-0.1-0.1-0.1-0.2-0.2-0.4c0-2.2,0.3-4.4,0.5-6.7c0.1-1.2,0.2-2.5,0.4-3.7
		c0.2,1.6-0.1,3.2-0.2,4.8c-0.1,1.8-0.4,3.5-0.4,5.3C129.1,27.5,129.1,27.8,128.9,27.9z"/>
	<path class="st35" d="M115.8,32.5c0,0.4,0,0.8,0.1,1.3c0.1,1,0.1,2,0,3c-0.3,0.3-0.3,0-0.5-0.1c0.4-0.9,0.1-1.8,0.1-2.7
		c-0.1-2.1-0.3-4.3-0.7-6.4c0.3,0.8,0.7,1.5,0.6,2.3C115.4,30.6,115.7,31.6,115.8,32.5z"/>
	<path class="st36" d="M115.4,9.8c-0.4-0.6-1.1-1.1-0.9-1.9c0.5,0.7,1.2,1.2,2,1.6c0.4,0,0.5,0.3,0.7,0.5c0,0,0,0,0,0
		c0.1,0.3,0.2,0.6,0.2,0.9c0.1,0.8-0.4,0.4-0.7,0.2C116.2,10.7,115.9,10.2,115.4,9.8z"/>
	<path class="st37" d="M115.2,35.8c-0.1,0.1-0.1,0.2-0.2,0.3c-0.5-1.8-1.1-3.6-1.7-5.6C114.6,32.3,115.1,34,115.2,35.8z"/>
	<path class="st38" d="M114.4,42c-0.3-1.7-1.1-3.4-1.4-5.2C114.4,38.5,114.2,40.3,114.4,42z"/>
	<path class="st39" d="M115.4,6.4c-1-1.2-1.3-2.6-1.9-4C114.3,3.7,115.1,5,115.4,6.4L115.4,6.4z"/>
	<path class="st40" d="M117.2,9.9c-0.2-0.2-0.5-0.3-0.7-0.5c-0.1-1.1-1-2-1.1-3.1c0,0,0,0,0,0C116.1,7.5,116.7,8.7,117.2,9.9z"/>
	<path class="st41" d="M119.4,11.7c0,0.1,0,0.2,0,0.3c-0.8,0-1.7-1-1.6-1.6C118.4,10.7,119,11.1,119.4,11.7z"/>
	<path class="st42" d="M119.6,3.2c-0.5-1.1-1.1-2.1-1.6-3.2c0.8,0.9,1.4,1.9,1.8,3C120,3.2,119.8,3.2,119.6,3.2z"/>
	<path class="st43" d="M122.2,4.7c0.2,1.1,0.8,2.1,0.8,3.2c-0.5-1-0.9-2-1-3C121.9,4.7,122,4.7,122.2,4.7z"/>
	<path class="st44" d="M122.2,4.7c-0.1,0.1-0.1,0.1-0.2,0.2c-0.4-0.9-0.7-1.8-0.7-2.8C121.6,2.9,121.9,3.8,122.2,4.7z"/>
	<path class="st45" d="M119.6,3.2c0.1-0.1,0.1-0.1,0.2-0.2c0.4,0.7,1,1.4,1.1,2.3l0,0C120.3,4.7,120.1,3.9,119.6,3.2z"/>
	<path class="st24" d="M127.8,22.3c0.2,0.1,0.2,0.2,0.2,0.3c-0.1,0.5-0.1,1-0.5,1.5c0-0.2,0-0.3-0.2-0.4
		C127.5,23.3,127.6,22.8,127.8,22.3z"/>
	<path class="st13" d="M111.4,0c-0.4-0.4-0.4,4.8-0.6,4.3C111.2,4.8,111.5-0.5,111.4,0C111.5,0,111.4,0,111.4,0z"/>
	<path class="st12" d="M121.6,6.4c-0.1,0.1-0.2,0.1-0.2,0.2c-0.2-0.4-0.4-0.9-0.4-1.3c0,0,0,0,0,0C121.3,5.6,121.5,6,121.6,6.4z"/>
	<path class="st46" d="M127.6,41.4c0.3,0.3,0,0.5-0.1,0.7c-0.7,1-1.6,1.8-2.7,2.5c-1.2,0.8-1.9,1.9-2.4,3.1c-0.2,0.5-0.5,1-1,0.2
		c-0.1-0.7-0.8-1.3-0.2-2c0.1-0.1,0.3-0.2,0.4-0.4c0.3-0.2,0.5-0.5,0.7-0.8c0.4-0.6,1-1.1,1.6-1.5C125.3,42.9,126.5,42.2,127.6,41.4
		z"/>
	<path class="st47" d="M121.6,47.9c0.1,0,0.3,0.5,0.4,0c0.6-1.8,1.9-3.1,3.7-4.2c0.7-0.4,1.2-1.1,1.8-1.6c-0.4,1.3-1.7,2.1-2.5,3.2
		c-0.6,0.8-1.7,1.4-2.1,2.4c-0.4,0.9-0.3,0.9,0.8,0.8c0,0.6-0.9,0.7-0.9,1.3c-0.4,0.3-0.6,1-1.4,0.7
		C121.2,49.6,121.1,48.8,121.6,47.9z"/>
	<path class="st25" d="M121.5,50.5c0.4-0.3,0.8-0.6,1.1-0.9c0-0.2,0.1-0.3,0.3-0.3c1.2-0.3,2.2-0.8,3.3-1.3c0.3,0.2,0,0.4,0,0.6
		c-0.6,0.7-1.4,1.4-2.3,1.8c-0.9,0.5-1.6,1.1-2.2,1.9c-0.3,0.4-0.5,1.1-1.3,1.1c-0.5-0.5-0.8-1.1-0.8-1.8c0.1-0.3,0.3-0.4,0.7-0.4
		c0.4,0,0.5-0.1,0.7-0.4C121.1,50.7,121.3,50.5,121.5,50.5z"/>
	<path class="st48" d="M120.5,53.4c0.9-0.8,1.3-2,2.4-2.7c1.1-0.7,2.3-1.3,3.3-2.2c-0.3,0.7-0.9,1.2-1.5,1.8
		c-1.2,1.1-2.4,2.1-3.3,3.3c-0.4,0.5-0.2,0.7,0.4,0.7c-0.4,0.6-0.8,0.9-1.5,0.3C120.2,54.2,120.1,53.8,120.5,53.4z"/>
	<path class="st49" d="M120.5,54.7c0.6,0.2,0.9-0.2,1.3-0.4c0.3,0,0.6,0,0.9-0.2c0.8-0.4,1.5-1,2.5-1.2c0,0.3-0.2,0.6-0.5,0.8
		c-0.9,0.5-1.7,1.1-2.7,1.5c-0.9,0.4-1.5,1.2-2.1,2c-0.2,0.2-0.3,0.6-0.7,0.2c-0.5-0.2-0.5-0.5-0.5-0.9c0.2-0.3,0.6-0.2,0.8-0.4
		C120,55.8,119.8,55,120.5,54.7z"/>
	<path class="st50" d="M126.3,48c-0.7,0.7-1.5,1.2-2.6,1.3c-0.3,0-0.7,0.2-1,0.3c-0.3-0.8,0.9-0.6,1-1.1c1.4-0.7,2.5-1.8,3.7-3.1
		C127.3,46.6,126.7,47.2,126.3,48z"/>
	<path class="st51" d="M127.6,41.4c-0.8,1.2-2.2,1.7-3.6,2.1c-0.1-0.2-0.3-0.4,0.1-0.6c1.8-1,3.5-2.2,4.1-4.1
		c0.1,0.1,0.1,0.1,0.2,0.1C128.4,39.9,128,40.6,127.6,41.4z"/>
	<path class="st52" d="M125.2,53c-0.8,0.4-1.4,1.1-2.5,1.2c-0.4-0.1-0.2-0.2,0-0.3c1.1-0.7,2.1-1.3,3.1-2.4
		C125.8,52.2,125.1,52.5,125.2,53z"/>
	<path class="st53" d="M120.5,54.7c-0.3,0.6-0.3,1.2-0.9,1.7c-1,0.2-0.7-0.5-0.7-0.9c-0.1-1.3-0.4-2.6-1-3.9
		c-0.3-0.6-0.9-1.1-1.1-1.8c-0.2-0.1-0.2-0.4-0.2-0.6c-0.2-0.2-0.1-0.3,0.1-0.4c0.9,1,2.2,1.5,3.3,2.3c0.1,0.1,0,0.3-0.1,0.4
		c-0.1,0.7,0.5,1.2,0.6,1.9C120.5,53.8,120.5,54.3,120.5,54.7z"/>
	<path class="st54" d="M115.9,37.3c0.4,0.7,0.1,1.4,0.2,2.1c-0.1,1.4,0.4,2.8,0.9,4.1c0.5,1.3,0.6,2.6,0.8,3.9c0,0.3,0,0.7-0.2,1
		c-0.7,0.3-0.9-0.2-1.1-0.6c-0.4-0.8-0.6-1.6-0.7-2.5c0-0.5,0.1-1-0.3-1.5C115.3,41.5,115.4,39.4,115.9,37.3z"/>
	<path class="st55" d="M116.7,49.8c1.5,1.7,2.5,3.5,2.4,5.7c0,0.3-0.2,0.7,0.4,0.8c-0.2,0.5-0.6,0.2-0.9,0.2c0,0.2-0.5-0.3-0.3,0.2
		c0.1,0.5,0.3,1,0.1,1.5c0.1,0.5-0.6,0.8-0.5,1.3c-0.6-1.5-0.7-3.1-0.5-4.7c0.2,0,0.4,0.5,0.6-0.2c0.4-1.4-0.2-2.6-0.9-3.7
		C117,50.6,116.7,50.3,116.7,49.8z"/>
	<path class="st41" d="M115,52.1c0.2,0.2,0.3,0.5,0.5,0.7c0.2,0.5,0.6,0.9,1,1.2c0.3,0.2,0.5,0.5,0.5,0.8c0,0.2,0,0.4-0.2,0.5
		c-0.3,0.1-0.4-0.1-0.5-0.2c-0.6-0.6-0.8-1.4-1.2-2.1c-0.1-0.3-0.1-0.6-0.2-0.9C114.8,52,114.9,52,115,52.1z"/>
	<path class="st56" d="M115.5,43.7c0.7,0.3,0.3,0.9,0.4,1.3c0.2,1.2,0.2,2.5,1.6,3.3c0,0,0.1,0,0.1,0c0.5,0.3,1,0.9,0.5,1.2
		c-0.5,0.3-0.7-0.4-1.1-0.6c-0.3-0.2-0.5-0.5-0.7-0.8c-0.1-0.1-0.1-0.2-0.2-0.4C115.5,46.4,115.7,45,115.5,43.7z"/>
	<path class="st11" d="M115.9,36.7c0-1,0-2,0-3c0.4,1,0.1,2,0.2,3.1C116,36.8,115.9,36.7,115.9,36.7z"/>
	<path class="st55" d="M116.1,47.7c0.1,0.1,0.1,0.1,0.2,0.2c0.1,0.3,0.6,0.6,0.4,1c-0.1,0.1-0.1,0.2-0.2,0.3
		C116.2,48.8,116,48.3,116.1,47.7z"/>
	<path class="st57" d="M118.3,31.8c0.1,0.2,0.2,0.2,0.4,0.2c0.5,0.3,0.6,0.8,0.8,1.3c0.1,0.5,0.5,0.9,0.8,1.3
		c0.6,0.9,1.2,1.8,0.9,2.9c-0.1,0.3,0.1,0.7,0.2,1c0.1,0.3,0.4,0.6-0.1,0.9c-1.3-0.2-1.5-1.2-2.1-2c-0.1-0.5-0.3-1-0.3-1.5
		c-0.1-0.8-0.3-1.7-0.8-2.4c-0.6-0.9-0.7-2-1.2-3c-0.1-1.2-0.5-2.3-0.2-3.5c0.7,0.7,0.2,1.5,0.6,2.2C117.8,30.1,117.9,31,118.3,31.8
		z"/>
	<path class="st57" d="M119.8,32.4c-0.3-2.1-1.4-4-2.3-5.9c-0.3-0.7-0.8-1.4-0.4-2.1c0.7,0.6,0.5,1.6,1.3,2.2c0.6,0.4,1,1,1.2,1.6
		c0.2,0.5,0.6,0.9,0.9,1.3c0.6,0.8,1,1.6,0.9,2.5c-0.1,0.5,0.2,0.8,0.4,1.2c0.1,0.3,0.4,0.6,0.4,1c-0.2,0.3-0.4,0.2-0.7,0.1
		c-0.1,0-0.2-0.1-0.3-0.1C120.6,33.6,119.9,33.2,119.8,32.4z"/>
	<path class="st58" d="M118.5,16.9c0.3,0.2,0.6,0.4,0.8,0.6c0.1,0,0.2,0.1,0.2,0.2c1.5,1.6,1.9,3.4,2.3,5.4c-0.5,0-0.8-0.3-1.1-0.5
		c-0.1-0.5-0.7-0.7-0.9-1.1c-0.1-0.8-0.6-1.5-1.1-2.2c-0.6-0.7-1.1-1.4-1.3-2.3C117.8,16.6,118.2,17.4,118.5,16.9z"/>
	<path class="st59" d="M119.2,33.3c-0.2-0.4-0.3-0.9-0.5-1.3c0.1-0.2,0.3-0.2,0.5,0c0.5,0.8,1.3,1.5,2.2,2.1l0,0
		c0.4,0.2,0.7,0.6,1.3,0.6c0.1,0,0.2,0,0.2,0c0.1,0.6-0.1,1.3,0.3,1.8c0,0.3,0,0.5,0,0.8c0,0.8-0.1,1.7-0.7,2.4
		c-0.6,0.1-0.6-0.3-0.6-0.6C121.7,36.9,120.6,35.1,119.2,33.3z"/>
	<path class="st60" d="M119.2,22.1c0.1,0.1,0.3,0.3,0.4,0.4c0.3,0.5,0.9,0.8,1.2,1.3c0.5,0.8,1.1,1.6,0.8,2.5
		c-0.1,0.4,0.2,0.7,0.4,1.1c0.1,0.3,0.5,0.6,0.1,1c-1.1-0.3-1.9-1-2.3-1.9c0.2-1.5-1.1-2.5-1.6-3.8c-0.2-0.5-0.8-0.9-0.8-1.5
		c0.7,0,0.9,0.6,1.2,0.9C118.9,22.5,119,22.3,119.2,22.1z"/>
	<path class="st61" d="M119.4,28.1c-0.3-0.5-0.5-1-1.1-1.3c0.1-0.4-0.5-0.7,0-1.1c0.3-0.4,0.5-0.1,0.7,0.1c0.5,1.1,1.3,2,2.6,2.5
		c0.3,0.1,0.6,0.3,0.8,0.5c0.1,0.1,0.1,0.2,0.2,0.4c0.3,0.4,0.6,0.9,0.9,1.3c0.3,0.9,0.2,1.9,0.2,2.8c-0.1,0.4-0.3,0.8-0.7,1.1
		c-0.5,0.1-0.6-0.3-0.7-0.6c-0.3-0.7-0.4-1.5-0.4-2.3c0.5-0.1,0.5-0.1,0.8,0.3c0.1-1.7-1.3-2.5-2.7-3.4
		C119.7,28.5,119.6,28.3,119.4,28.1z"/>
	<path class="st62" d="M116.8,27c0,1.2,0.2,2.4,0.3,3.6c0.3,0.8,0.5,1.7,0.6,2.6c0.2,1.1,0.5,2.1,0.7,3.2c0,0.2-0.2,0.4-0.5,0.4
		c0-0.1,0-0.1-0.1-0.2c-0.4-0.6-0.5-1.3-0.6-1.9c-0.6-1.7-0.4-3.5-0.6-5.2c-0.2-1.4-0.3-2.8-0.6-4.2C116.8,25.7,116.4,26.5,116.8,27
		z"/>
	<path class="st50" d="M122.3,29.1c-1.2-0.7-2.6-1.2-3.2-2.4c-0.1-0.2-0.6-0.5-0.1-0.8c0.3,0.2,0.6,0.4,0.9,0.6
		c0.7,0.6,1.3,1.4,2.2,1.9C122.4,28.5,122.4,28.8,122.3,29.1z"/>
	<path class="st63" d="M119.2,22.1c0,0.2,0,0.4-0.1,0.7c-0.8-0.4-1.1-1.2-1.7-1.6c-0.2-0.5-0.9-0.9-0.5-1.5c0.7,0.5,1.4,1,1.8,1.7
		c0.1,0.1,0.3,0.3,0.4,0.4C119.2,21.9,119.2,22,119.2,22.1z"/>
	<path class="st64" d="M118.3,25.7c-0.1,0.4,0.4,0.7,0,1.1c-0.8-0.7-1-1.6-1.2-2.5c-0.1-0.6-0.2-1.3-0.4-1.9c0,0,0.1,0,0.1,0
		C117.3,23.6,117.8,24.6,118.3,25.7z"/>
	<path class="st65" d="M118.5,16.9c0,0.2,0,0.4-0.1,0.6c-0.5-0.1-0.6-0.5-1.1-0.6c-0.3-0.2-0.4-0.5-0.5-0.7c0-0.3-0.4-0.5,0-0.8
		c0.6-0.2,0.6,0.3,0.9,0.5C118.2,16.2,118.4,16.5,118.5,16.9z"/>
	<path class="st66" d="M118.7,21.4c-0.8-0.4-1.4-1-1.8-1.7c0-0.2-0.2-0.4,0-0.8C117.1,20,118.8,20.1,118.7,21.4z"/>
	<path class="st67" d="M121.4,34.1c-1.1-0.4-2-1-2.2-2.1c0.2,0.1,0.4,0.3,0.6,0.4C120.3,33,120.9,33.5,121.4,34.1z"/>
	<path class="st68" d="M118.3,31.8c-0.8-0.7-0.8-1.7-1-2.6c0.1-0.1,0.2-0.3,0.2-0.2C117.8,30,118.4,30.8,118.3,31.8z"/>
	<path class="st69" d="M119.8,21.4c0.7,0.2,1,0.5,0.9,1.1c-0.5-0.3-1.1-0.5-1.1-1.1C119.7,21.4,119.7,21.4,119.8,21.4z"/>
	<path class="st70" d="M115.4,9.8c0.5,0.4,1,0.8,1.5,1.2c0.2,0.2,0.4,0.3,0.5-0.1c0.2,0.3,0.4,0.6,0.6,1c0.3,0.5,0.9,0.8,1.3,1.2
		c0.4,0.6,0.8,1.1,0.7,1.8c-0.1,0.5,0.2,0.8,0.4,1.2c0.2,0.4,0.4,0.7,0,1.1c-0.4-0.2-0.7-0.4-1.1-0.6c-0.6-0.8-1.3-1.6-1.6-2.6
		c0.6-0.5,0.1-0.9-0.2-1.3C116.7,11.9,116,10.8,115.4,9.8z"/>
	<path class="st71" d="M126,18c-1.2,2-2.6,3.9-2.9,6.2c-0.9-1.1-0.3-2.3-0.1-3.4c0-0.1,0.1-0.2,0.1-0.4c0.2-0.4,0.5-0.7,0.9-0.9
		c1-0.5,1.5-1.3,1.8-2.3C126.1,17.5,126,17.7,126,18z"/>
	<path class="st72" d="M122.3,29.1c0.1-0.3,0-0.5-0.2-0.8c-0.3-1-0.8-1.9-0.7-3c0-0.7-0.6-1.4-1.2-1.9c-0.3-0.3-0.5-0.6-0.5-0.9
		c0.2,0.1,0.4,0.3,0.6,0.4c0.9,0.7,1.9,1.3,1.8,2.4c0.2,1.1,0.4,2.1,0.7,3.2c-0.4,0.2-0.2,0.5-0.3,0.8
		C122.4,29.2,122.3,29.1,122.3,29.1z"/>
	<path class="st73" d="M122,25.3c-0.4-0.9-1.2-1.6-1.8-2.4c1.7,0.5,3.2,2.2,3.1,3.6c0,0.1,0,0.3-0.2,0.4c-0.3,0.1-0.4-0.2-0.4-0.3
		C122.5,26.1,122.5,25.6,122,25.3z"/>
	<path class="st74" d="M120.5,17.2c-0.7-1.6-0.4-3.5-2.1-4.9c-0.2-0.1-0.3-0.3-0.3-0.6c0.2,0.1,0.4,0.3,0.6,0.4c1.1,0.8,2.1,1.6,2,3
		c0.1,0.6-0.2,1.3,0.6,1.7c-0.1,0.2-0.2,0.4-0.2,0.6C120.9,17.4,120.6,17.5,120.5,17.2z"/>
	<path class="st75" d="M117.9,15.9c-0.3-0.2-0.6-0.4-0.9-0.5c-1.2-1.1-1.5-2.5-2-3.9c0.6,0.9,1.1,1.8,2,2.4
		C117.1,14.6,117.8,15.2,117.9,15.9z"/>
	<path class="st76" d="M119.6,17.6c-0.1-0.1-0.1-0.1-0.2-0.2c1,0,1.7,0.5,2.3,1.1c0.6,0.7,0.9,1.5,0.7,2.4
		C121.4,19.8,121,18.4,119.6,17.6z"/>
	<path class="st77" d="M123.6,17.3c0.2-1.4,0.4-2.8,0.7-4.4C124.9,14.6,124.8,16,123.6,17.3z"/>
	<path class="st78" d="M117.8,14.1c0.7,0.8,1.3,1.6,1.6,2.6c-1-0.6-1.4-1.5-1.9-2.3c-0.1-0.1,0-0.2,0.2-0.3
		C117.7,14.1,117.7,14.1,117.8,14.1z"/>
	<path class="st79" d="M122.5,45c-0.2,0.3-0.3,0.6-0.7,0.8c-0.6,0-0.7-0.3-0.7-0.7c-0.1-0.7-0.2-1.4-0.1-2.1c0.4-0.6,0.5,0,0.8,0.1
		c-0.1-1.3-0.6-2.3-2-2.8c-0.6-0.4-0.8-0.9-1.2-1.4c-0.3-0.4-0.4-0.8-0.2-1.3c0.3,0,0.4,0.1,0.5,0.3c0.3,0.8,1.1,1.1,1.7,1.6
		c0.5,0.1,0.6,0.9,1.4,0.5c0.1,0,0.2,0,0.2,0c-0.1,0.9,0.2,1.8,0.5,2.6C123.4,43.4,122.9,44.2,122.5,45z"/>
	<path class="st79" d="M121.5,50.5c-0.1,0.1-0.2,0.3-0.4,0.4c-0.9,0.4-1.1,0.3-1.2-0.5c-0.1-0.5-0.1-1,0.1-1.6
		c0.2-0.4,0.5-0.2,0.7-0.1c0.2-1.8-1.1-2.9-2.6-3.9c-0.4-0.3-0.7-0.6-0.9-1c-0.2-0.6-0.8-1.3-0.3-2c0.3,0.1,0.3,0.4,0.5,0.6
		c0.3,1.2,1.1,2.1,2.5,2.4c0.3,0.1,0.5,0.3,0.8,0.5c0.2,0.1,0.6,0.1,0.7,0.4c-0.6,0.7,0.3,1.3,0.2,2
		C121.6,48.8,121.6,49.7,121.5,50.5z"/>
	<path class="st80" d="M118.5,42.9c-1.1-0.7-1.3-1.7-1.5-2.7c-0.3-2.1-0.5-4.3-0.5-6.5c0.4,0.6,0.2,1.2,0.3,1.8c0.3,1,0.5,2,1,3
		C118.6,39.9,118.2,41.4,118.5,42.9z"/>
	<path class="st81" d="M121.4,45.9c-0.2-0.1-0.5-0.3-0.7-0.4c-0.1-0.9-0.6-1.7-0.3-2.7c0.2-1.1-0.7-2.2-1.4-3.1
		c-0.2-0.3-0.5-0.6-0.5-0.9c0.4,0.4,0.8,0.9,1.3,1.3c0.9,0.7,1.6,1.5,1.4,2.6c0.1,0.8,0.3,1.6,0.2,2.4c0,0.3,0.2,0.5,0.4,0.6
		C121.7,45.9,121.6,45.9,121.4,45.9z"/>
	<path class="st82" d="M122.1,39.9c0,0.2,0,0.4,0,0.7c-0.6-0.3-0.9-0.8-1.5-1c-0.4-0.7-1.5-1-1.8-1.8c-0.1-0.1-0.3-0.2-0.4-0.3
		c-0.1-0.3-0.5-0.4-0.4-0.8c0.1-0.1,0.2-0.1,0.3-0.2c0.6,0.1,0.9,0.5,1.1,1c0.6,0.6,0.9,1.4,1.8,1.9C121.5,39.4,122,39.5,122.1,39.9
		z"/>
	<path class="st81" d="M117.2,34.7c0.3,0.6,0.6,1.2,0.6,1.9C117.2,36,117.1,35.4,117.2,34.7z"/>
	<path class="st83" d="M120.7,15.2c-0.4-1.1-1.2-2.1-2-3c1.8,0.7,2.8,1.6,2.6,3.4C120.9,15.6,121,15.3,120.7,15.2z"/>
	<path class="st11" d="M126,21.6c-0.2-0.4-0.2-0.8,0.2-1.2C126.3,20.8,126.2,21.2,126,21.6z"/>
	<path class="st84" d="M122.5,45c0.2-0.8,0.2-1.6,0.2-2.5c0.2,0,0.4-0.1,0.4-0.2c0.3-1.8,1.6-3,3.2-4.1c0.7-0.5,1.3-1.1,1.9-1.7
		c-0.5,1.4-1.8,2.4-2.7,3.5c-0.6,0.8-0.8,1.7-1.7,2.3c-0.3,0.3-0.1,0.5,0.3,0.5c-0.1,0.2-0.2,0.4-0.1,0.6
		C123.5,44,123,44.5,122.5,45z"/>
	<path class="st85" d="M118.5,58.3c-0.2-0.8-0.4-1.5-0.6-2.3c0.6,0.1,0.5,0.5,0.8,0.7c0.1,0.3,0.3,0.6,0.4,0.9
		c0.2,0.7,0.3,1.5,0.2,2.2c-0.1,0.2-0.2,0.4-0.4,0.7C118.4,59.7,119.1,58.9,118.5,58.3z"/>
	<path class="st11" d="M129.1,33.2c0.4-0.2,0.1-0.6,0.4-0.9c0.3,0.7-0.3,1.4-0.3,2C129.1,33.9,129.1,33.5,129.1,33.2
		C129.1,33.2,129.1,33.2,129.1,33.2z"/>
	<path class="st86" d="M122.1,39.9c-0.3-0.2-0.6-0.4-0.9-0.5c0,0,0.2-0.1,0.1-0.1c-0.7-1.6-0.1-3.6-1.7-5.1
		c-0.2-0.2-0.4-0.5-0.4-0.8c1.6,1.6,2.8,3.4,2.8,5.6c0,0.3,0,0.6,0.4,0.7c-0.1,0.1-0.1,0.2-0.2,0.2
		C122.2,39.9,122.1,39.9,122.1,39.9L122.1,39.9z"/>
	<path class="st87" d="M115,52.1c-0.1,0-0.2,0-0.2,0c-0.4-2.7-0.3-5.3-0.1-8C114.8,46.7,114.6,49.4,115,52.1z"/>
	<path class="st88" d="M116.9,42c0.2,0.7,0.3,1.3,0.5,2c0.5,0.9,1.3,1.6,1.7,2.6c0.3,0.8,0.7,1.6,0.3,2.4c-0.2,0.4,0.1,0.7,0.2,1.1
		c0.1,0.3,0.5,0.6,0.2,1c-1.3-0.5-2.6-0.9-3.1-2.2c-0.1-0.3-0.3-0.7-0.4-1c0.5,0.5,1,1,1.6,1.5c0,0,0.1,0,0.1,0
		c-0.2-0.4-0.4-0.7-0.6-1.1c0-1.8-0.2-3.6-0.9-5.4c-0.5-1.1-0.9-2.3-0.4-3.6C116.4,40.2,116.4,41.2,116.9,42z"/>
	<path class="st89" d="M122,31.5c0.1,0.8,0.3,1.6,0.4,2.4c0,0.3,0.1,0.5,0.4,0.6c0,0.1,0,0.2-0.1,0.2c0,0-0.1,0-0.1,0
		c-0.4,0.1-0.7,0-0.7-0.4c-0.5-1-1.2-1.9-0.9-3.1c0.1-0.6-0.5-1.1-0.9-1.7c-0.3-0.4-0.8-0.8-0.8-1.4c0.2,0.1,0.4,0.3,0.6,0.4
		c0.9,0.6,1.5,1.3,1.9,2.1C122.1,30.9,122.3,31.2,122,31.5z"/>
	<path class="st90" d="M119.8,51.1c-0.2-0.5-0.4-0.9-0.6-1.4c-0.2-0.3-0.2-0.6,0-1c0.5-1-0.3-1.8-0.7-2.7c-0.4-0.7-0.9-1.3-1.1-2
		c0.3,0.3,0.6,0.5,0.8,0.8c0.9,0.9,1.6,1.9,2,3c0.1,0.3,0.3,0.6,0,1c0,0.6,0,1.1,0,1.7c-0.1,0.7,0.2,0.8,0.9,0.6
		c-0.1,0.8-0.8,0.5-1.3,0.5C119.9,51.4,119.8,51.2,119.8,51.1z"/>
	<path class="st7" d="M119.4,37.5c-0.5-0.2-0.8-0.6-1.1-1c-0.8-1.9-1-4-1.1-6c0.6,0.7,0.5,1.7,1,2.4C119.2,34.4,119.1,36,119.4,37.5
		z"/>
	<path class="st67" d="M122,34.3c0.2,0.1,0.4,0.3,0.7,0.4c0,0.2,0,0.4,0,0.7c-0.5-0.5-0.9-0.9-1.3-1.3
		C121.6,34.2,121.8,34.2,122,34.3z"/>
	<path class="st91" d="M122,31.5c-0.4-1.1-1.3-2-2-3c2,0.6,3.4,2.6,2.9,4.2C122.3,32.4,122.6,31.8,122,31.5z"/>
	<path class="st92" d="M121.2,42.7c-0.2-1-0.9-1.8-1.4-2.6c1.5,0.3,2,1.4,2.2,2.6c0.1,0.3,0.1,0.7-0.1,1
		C121.3,43.6,121.6,43,121.2,42.7z"/>
	<path class="st93" d="M118.8,37.8c0.7,0.6,1.4,1,1.8,1.8c-0.7-0.4-1.5-0.8-1.9-1.5C118.6,37.9,118.6,37.9,118.8,37.8z"/>
	<path class="st76" d="M120.3,48.7c-0.3-1.4-1.3-2.6-2-3.9c1.5,1,2.8,2,2.8,3.8c0,0.4,0.1,0.7-0.3,1
		C120.3,49.4,120.7,48.9,120.3,48.7z"/>
</g>
</svg>
