<?xml version="1.0" encoding="utf-8"?>
<!-- Generator: Adobe Illustrator 23.0.1, SVG Export Plug-In . SVG Version: 6.00 Build 0)  -->
<svg version="1.1" id="Calque_1" xmlns="http://www.w3.org/2000/svg" xmlns:xlink="http://www.w3.org/1999/xlink" x="0px" y="0px"
	 viewBox="0 0 300 80" style="enable-background:new 0 0 300 80;" xml:space="preserve">
<style type="text/css">
	.st0{fill:#089447;}
	.st1{fill:#1A2955;}
	.st2{fill:#E01F26;}
	.st3{fill:#FFFFFF;}
	.st4{fill:#18793D;}
	.st5{fill:#F6D277;}
	.st6{fill:#D98B33;}
	.st7{fill:#E6B555;}
	.st8{fill:#F4C768;}
	.st9{fill:#F5D06A;}
	.st10{fill:#D78935;}
	.st11{fill:#F7F8F7;}
	.st12{fill:#F9D66D;}
	.st13{fill:#E1AD4F;}
	.st14{fill:#F8D369;}
	.st15{fill:#F8D775;}
	.st16{fill:#F7D576;}
	.st17{fill:#E0A64C;}
	.st18{fill:#E6AE4A;}
	.st19{fill:#F7D97D;}
	.st20{fill:#ECCEA3;}
	.st21{fill:#CE7C29;}
	.st22{fill:#E9BB5C;}
	.st23{fill:#D48F37;}
	.st24{fill:#E1A449;}
	.st25{fill:#C87729;}
	.st26{fill:#E5AC4C;}
	.st27{fill:#F5CA6F;}
	.st28{fill:#F0E2CF;}
	.st29{fill:#D28F36;}
	.st30{fill:#F6D881;}
	.st31{fill:#CD7A29;}
	.st32{fill:#EDCFA3;}
	.st33{fill:#E6AA4F;}
	.st34{fill:#D8923D;}
	.st35{fill:#ECCEA5;}
	.st36{fill:#CA812A;}
	.st37{fill:#BF6928;}
	.st38{fill:#ECD0AF;}
	.st39{fill:#EAC99F;}
	.st40{fill:#EECFA4;}
	.st41{fill:#F1D4A9;}
	.st42{fill:#B75D27;}
	.st43{fill:#E8C294;}
	.st44{fill:#E5BB8C;}
	.st45{fill:#3DA860;}
	.st46{fill:#ECCDA2;}
	.st47{fill:#EDCC9B;}
	.st48{fill:#CA7729;}
	.st49{fill:#E6AD4D;}
	.st50{fill:#E2A74C;}
	.st51{fill:#CB7A29;}
	.st52{fill:#F7F6F4;}
	.st53{fill:#F7F8F6;}
	.st54{fill:#F8F6F1;}
	.st55{fill:#FCE47E;}
	.st56{fill:#E7B237;}
	.st57{fill:#EFB854;}
	.st58{fill:#F4EADA;}
	.st59{fill:#D78631;}
	.st60{fill:#D68A32;}
	.st61{fill:#FBE17D;}
	.st62{fill:#D68731;}
	.st63{fill:#FADA6E;}
	.st64{fill:#F5F0E8;}
	.st65{fill:#BA6328;}
	.st66{fill:#F5F0E7;}
	.st67{fill:#BF6A28;}
	.st68{fill:#F6F4EE;}
	.st69{fill:#F6EFDD;}
	.st70{fill:#F0E0D4;}
	.st71{fill:#F8F4E9;}
	.st72{fill:#D58A32;}
	.st73{fill:#CC7929;}
	.st74{fill:#ECAF4D;}
	.st75{fill:#FCF4A9;}
	.st76{fill:#ECB04D;}
	.st77{fill:#F8F5F0;}
	.st78{fill:#FDF4A2;}
	.st79{fill:#FCEBA0;}
	.st80{fill:#F7F3E9;}
	.st81{fill:#F2F4F2;}
	.st82{fill:#FADD74;}
	.st83{fill:#E8B542;}
	.st84{fill:#ECB357;}
	.st85{fill:#F7F3EA;}
	.st86{fill:#FCF3A5;}
	.st87{fill:#E3A84A;}
	.st88{fill:#FDEB98;}
	.st89{fill:#ECAF4C;}
	.st90{fill:#CD893A;}
	.st91{fill:#D78732;}
	.st92{fill:#ECAD4B;}
	.st93{fill:#EEB44F;}
	.st94{fill:#FCF1A4;}
	.st95{fill:#FCF6AF;}
	.st96{fill:#C17029;}
</style>
<g>
	<g id="g10" transform="matrix(1.3333333,0,0,-1.3333333,0,510.71997)">
		<g id="g16" transform="matrix(0.23999999,0,0,-0.23999999,0,383.03998)">
			<g id="g42">
				<g>
					<g id="g44">
						<g id="g50" transform="matrix(1.1814847,0,0,1.1833069,-354.06363,143.04088)">
							<path id="path54" class="st0" d="M699.5-102.7v-9.5c0-0.2,0.1-0.2,0.3-0.2h0.9c0.2,0,0.3,0.1,0.3,0.3v9.3
								c0,0.3,0.2,0.5,0.5,0.5c9.5,0.3,18.4,2.6,26.6,7.1c12.5,6.8,21.9,18,26.8,31.3c0.2,0.5,0.3,1,0.5,1.4c0,0.1-0.1,0.3-0.3,0.2
								L701.1-96c-0.2-0.1-0.3-0.3-0.3-0.6v-5.4c0-0.2-0.2-0.4-0.4-0.4H700c-0.2,0-0.4,0.2-0.4,0.4v5.3c0,0.1-0.1,0.3-0.2,0.3
								L644.9-62c-0.2,0.1-0.2,0.1-0.2-0.1c3.8-11.5,10.4-20.9,19.9-28.2c10-7.7,21.5-11.7,34.5-12
								C699.3-102.4,699.5-102.5,699.5-102.7L699.5-102.7z"/>
							<path id="path56" class="st1" d="M498.5-26.6C498.4-26.6,498.4-26.6,498.5-26.6l-0.1,76.8c0,0.1,0.1,0.2,0.2,0.2h20.6
								c0.1,0,0.1,0,0.1,0.1v3.1c0,0.1,0,0.1-0.1,0.1H445c-0.1,0-0.1,0-0.1-0.1v-3.1c0,0,0-0.1,0.1-0.1h20.4c0.1,0,0.2-0.1,0.2-0.2
								v-151.1c0-0.1-0.1-0.2-0.3-0.2H445c-0.1,0-0.1,0-0.1-0.1v-3c0-0.1,0.1-0.1,0.1-0.1h132.9c0.1,0,0.2,0.1,0.2,0.2v37.5
								c0,0.2-0.1,0.3-0.3,0.3h-2.5c-0.2,0-0.3-0.1-0.3-0.2c-2.1-5.3-4.4-10.2-6.9-14.5c-5.4-9.3-13.2-16.1-23.8-18.8
								c-3.6-0.9-8-1.3-12.1-1.3c-7.7,0-18.9,0-33.4,0c-0.2,0-0.3,0.1-0.3,0.3v70.7c0,0.2,0.1,0.3,0.3,0.3c1.6,0,5.3,0,10.9,0
								c0.3,0,1.8,0,4.7-0.1c10.2-0.3,19-5.1,24.1-14.3c1.2-2.2,2.1-3.9,2.6-5.2c1.7-4.4,3-8.8,3.9-13.1c0-0.2,0.2-0.3,0.3-0.3h2.5
								c0.2,0,0.3,0.1,0.3,0.3V6c0,0.1-0.1,0.2-0.2,0.2h-2.6c-0.2,0-0.2-0.1-0.3-0.2c-1.3-5.1-2.7-9.5-4.1-13.3
								c-1.7-4.6-4.6-9.2-8.2-12.5c-5-4.6-11.1-6.8-18.3-6.7C510.9-26.5,505.6-26.6,498.5-26.6L498.5-26.6z"/>
							<path id="path58" class="st1" d="M322.7,51c0.1,0,0.3-0.1,0.3-0.3V-99.7c0-0.1-0.1-0.2-0.2-0.2h-20.3c-0.1,0-0.1,0-0.1-0.1
								v-3c0-0.1,0-0.1,0.1-0.1c19.9,0,32.4,0,37.4,0c9.3,0,19.1-0.6,29.6-0.6c4.2,0,7-0.1,10.3,0.2c3.3,0.2,7.1,0.7,11.3,1.4
								c2.2,0.4,4.4,1,6.4,1.4c3.5,0.8,7.3,2.3,11.4,4.3c4.9,2.4,9,5.6,12.5,9.8c3.6,4.3,5.8,9.3,6.4,15c0.8,6.9-0.1,13.9-4,19.6
								c-7.2,10.6-20,16.5-32,19.4c-2.9,0.7-5.8,1.3-8.8,1.8c-0.2,0-0.3,0.2-0.3,0.3c0,0.2,0.1,0.3,0.4,0.3c8,0.7,15.3,2.1,22.1,4
								c2.5,0.7,5.5,1.9,8.9,3.5c7.4,3.5,13.2,8.6,17.5,15.3c5.4,8.3,5.9,20.1,3.6,29.4c-1,3.8-2.7,7.3-5.1,10.5
								c-7.8,10.2-19.3,16.2-31.7,19.2c-7.2,1.7-14.6,2.7-22.3,2.8c-4.3,0.1-13.3,0-27-0.2c-9.8-0.1-22.3-0.1-46.4-0.1
								c-0.1,0-0.1,0-0.1-0.1v-3c0-0.1,0-0.1,0.1-0.1L322.7,51z"/>
							<path id="path60" class="st0" d="M625.4,54.3c0,0.1-0.1,0.2-0.2,0.2H621c-0.1,0-0.2-0.1-0.2-0.2v-156.8
								c0-0.1,0.1-0.2,0.2-0.2h4.2c0.1,0,0.2,0.1,0.2,0.2V54.3z"/>
							<path id="path62" class="st2" d="M634.2,54.2c0,0.2-0.2,0.4-0.4,0.4H630c-0.2,0-0.4-0.2-0.4-0.4v-156.6
								c0-0.2,0.2-0.4,0.4-0.4h3.9c0.2,0,0.4,0.2,0.4,0.4V54.2z"/>
							<path id="path64" class="st3" d="M355.6-32v-67.7c0-0.1,0.1-0.2,0.2-0.2c6.6-0.8,13.5-1.1,19.9,0.4c7,1.6,12.2,5.6,14.8,12.4
								c1.5,4,2.5,8.1,2.9,12.6c0.7,7.2,0.7,14.2,0,21c-0.4,3.7-1.4,7.2-3,10.3c-3.2,6.3-9.8,9.8-16.7,10.8
								c-5.9,0.9-11.4,0.7-17.8,0.6C355.7-31.8,355.6-31.9,355.6-32L355.6-32z"/>
							<path id="path66" class="st0" d="M670.1-59.4l-27.8,17.9c-0.2,0.1-0.3,0.1-0.3-0.1c-0.3-4.8,0.1-9.6,1.1-14.5
								c0.3-1.3,0.6-2.6,1-3.8c0.1-0.3,0.3-0.5,0.5-0.7l54.7-34.5c0.1-0.1,0.2,0,0.2,0.1v17.5c0,0.2-0.1,0.3-0.3,0.3
								c-2.5,0.1-5.4,0.4-8,1c-4.7,1.2-8.8,3.3-12.4,6.2c-0.6,0.5-1.8,1.7-3.6,3.5c-2.2,2.2-3.4,4-4.9,6.4
								C670.3-59.6,670.2-59.4,670.1-59.4L670.1-59.4z"/>
							<path id="path68" class="st0" d="M733.9-57.1c-1.2-0.9-2.4-1.5-3.4-2.5c-0.2-0.2-0.3-0.3-0.4-0.5c-2.7-4.6-6.4-8.2-10.9-11.1
								c-5.5-3.5-11.5-5.4-18-5.8c-0.2,0-0.3-0.2-0.3-0.4v-17.2c0-0.1,0.1-0.2,0.3-0.1c19.4,12,37.4,23.3,53.9,33.7
								c0.7,0.4,1.1,0.6,1.3,1.5c1.1,4.8,1.7,8.2,1.9,10.1c0.2,2.6,0.2,5.1,0.1,7.7c0,0.1-0.1,0.2-0.3,0.2c-0.3-0.1-0.5-0.2-0.8-0.3
								C749.5-47,741.7-52.1,733.9-57.1L733.9-57.1z"/>
							<path id="path74" class="st4" d="M699.6-59.9c-2.8,0-5.4,0.6-7.6,1.8c-11.2,5.7-12.7,20.9-3,28.8c3,2.4,6.5,3.6,10.6,3.6
								l0,16.9c0,0.1-0.1,0.3-0.3,0.3c-4.1,0-8-0.7-11.8-2.2c-1.7-0.6-3.2-1.3-4.7-2c-1-0.9-2.1-1.7-3.2-2.3c-0.9-0.5-1.6-1-2.2-1.6
								c-0.7-0.6-1.3-1.2-2-1.8c-0.8-0.7-2.3-2.7-4.5-5.8c-8.9-14.4-6.4-32.1,5.5-43.8c1.1-1,2.7-2.3,4.9-3.8
								c0.6-0.4,1.4-0.8,2.3-1.2c1-0.4,2-1.1,3.1-1.5c4.1-1.5,8.2-2.4,12.4-2.6c0.3,0,0.5,0.2,0.5,0.5L699.6-59.9L699.6-59.9z"/>
							<path id="path78" class="st0" d="M665.7-38.2l-20.4,12.8c-0.1,0.1-0.2,0-0.3-0.1c-1.6-4.6-2.5-9.2-2.9-14
								c0-0.3,0.1-0.6,0.4-0.8c11.4-7.3,19.9-12.8,25.5-16.4c0.6-0.4,1.2-1.2,1.7-2.4c0,0,0.1-0.1,0.1-0.1h0.2c0.1,0,0.1,0,0.1,0.1
								c-0.5,1.1-1.2,2.3-1.6,3.3c-3.1,7.8-3.5,16.5-0.4,24.3c0.2,0.5,0.1,1.1,0.3,1.5c1.5,3.1,2.4,5,2.9,5.5
								c0.5,0.5,0.9,1.1,1.3,1.7c1,1.6,1.9,2.6,3.3,4.1c2.1,2.3,4.6,4.2,7.6,5.8c0.2,0.1,0.2,0.3,0,0.4
								c-11.8,7.5-19.4,12.3-22.8,14.4c0,0-0.2,0.2-0.5,0.4c-0.2,0.2-0.4,0.2-0.6,0.1c-0.1-0.1-0.3-0.2-0.4-0.4
								c-2.5-3.7-4.9-7.5-7-11.5c-0.1-0.2,0-0.3,0.1-0.4l19.7-12.4c0.2-0.1,0.3-0.4,0.1-0.6l-0.1-0.2c-0.2-0.2-0.4-0.3-0.6-0.1
								l-19.8,12.5c-0.1,0.1-0.2,0-0.3-0.1c-2.3-4.4-4.6-9-5.9-13.5c0-0.1,0-0.3,0.1-0.3c0.5-0.2,0.9-0.4,1.3-0.7
								c6-3.8,12.2-7.7,18.7-11.7c0.2-0.1,0.3-0.3,0.3-0.5V-38C666-38.2,665.9-38.3,665.7-38.2L665.7-38.2z"/>
							<path id="path80" class="st2" d="M699.6-59.9c6.2,0.2,11,2.9,14.5,7.9c0,0,0,0.1,0,0.1l0,0c0,0-0.1,0-0.1,0
								c-3.8-4.1-8.6-5.4-14.1-4c-0.1,0-0.1,0-0.1,0.1c0,0-0.1,0.1-0.1,0.1c-0.2-0.2-0.4-0.2-0.5,0c-12.2,4.5-11.9,21.4,0.2,25.8
								c0.1,0,0.1,0,0.2,0l0.1-0.1c0,0,0,0.1,0,0.1c0,0.1,0.1,0.1,0.1,0.1c5.6,1.4,10.3,0.1,14.2-4c0,0,0.1,0,0.1,0l0,0
								c0,0,0,0.1,0,0.1c-3.1,4.7-7.5,7.3-13.1,7.8c-0.4,0-0.9,0.1-1.3,0.1c-4.1,0-7.6-1.3-10.6-3.6c-9.8-7.9-8.3-23,3-28.8
								C694.2-59.3,696.8-59.9,699.6-59.9L699.6-59.9L699.6-59.9z"/>
							<path id="path82" class="st0" d="M734.2-55.5c7.8,5,15.6,10,23.4,15.1c0.4,0.3,0.6,0.6,0.6,1c-0.5,4.7-1.4,9.4-2.9,13.9
								c0,0.1-0.2,0.2-0.3,0.1l-17.2-10.8l-3-2.3c-0.1-0.1-0.2-0.2-0.1-0.3c0.5-5.7-0.2-11.1-2.1-16.4c-0.2-0.4-0.5-0.8-0.5-1.2
								c-0.2-0.6,0-0.6,0.4-0.3C732.8-56.3,733.4-55.9,734.2-55.5L734.2-55.5z"/>
							<path id="path84" class="st4" d="M699.6-55.7v25.7l-0.1,0.1c-0.1,0-0.1,0.1-0.2,0c-12.1-4.5-12.3-21.3-0.2-25.8
								C699.2-55.8,699.4-55.8,699.6-55.7L699.6-55.7L699.6-55.7z"/>
							<path id="path86" class="st2" d="M709.3-44.7l5.3,1.7c0.2,0.1,0.2,0.3,0,0.3l-5.3,1.8c-0.1,0-0.1,0.1-0.1,0.2l0,5.6
								c0,0.2-0.2,0.2-0.3,0.1l-3.3-4.5c0-0.1-0.1-0.1-0.2-0.1l-5.3,1.7c-0.2,0-0.3-0.1-0.2-0.3l3.2-4.5c0-0.1,0-0.1,0-0.2l-3.2-4.5
								c-0.1-0.1,0-0.3,0.2-0.3l5.3,1.7c0.1,0,0.1,0,0.2-0.1l3.3-4.5c0.1-0.1,0.3-0.1,0.3,0.1l0,5.6
								C709.1-44.8,709.2-44.7,709.3-44.7L709.3-44.7z"/>
							<path id="path88" class="st0" d="M737.4-35.1l17.3,10.8c0.1,0.1,0.2,0.2,0.1,0.4c-1.7,4.6-3.7,9-6,13.3
								c-0.1,0.1-0.2,0.1-0.3,0.1L729.1-23c-0.1-0.1-0.2-0.2-0.2-0.4c0-0.1,0-0.3,0.1-0.4c1.6-2.6,3-5.2,4.1-8
								c0.6-1.5,0.7-2.5,1.1-4.4c0.1-0.3,0.4-0.5,0.7-0.3L737.4-35.1z"/>
							<path id="path90" class="st3" d="M384-25.3c9.6,5.8,14.2,15.7,15.1,26.7c0.5,6.3,0.4,12.3,0,18.6c-0.4,5.7-1.6,11.7-3.8,17.1
								c-2.7,6.5-7.7,11.4-14.7,13.2c-2.9,0.7-5.4,1.1-7.6,1.2c-5.4,0.2-11,0.1-16.9-0.4c-0.3,0-0.4-0.2-0.4-0.5v-79
								c0-0.1,0.1-0.2,0.2-0.2c9-0.1,14.4-0.1,16.1,0c1.8,0.1,4.1,0.5,6.8,1.2C380.9-26.8,382.7-26.1,384-25.3L384-25.3z"/>
							<path id="path92" class="st0" d="M729.4-21.5l18.6,11.8c0.2,0.1,0.2,0.3,0.1,0.5c-2.2,3.9-4.5,7.7-7,11.4
								c-0.1,0.2-0.4,0.2-0.6,0.1L717-12.3c-0.3-0.2-0.6-0.2-0.9,0l-0.4,0.2c-0.2,0.1-0.2,0.2,0,0.3l23.9,14.9
								c0.4,0.3,0.5,0.6,0.2,1l-8.5,11c-0.1,0.1-0.2,0.1-0.3,0.1l-29.8-19c-0.2-0.1-0.3-0.4-0.3-0.6v-3.9c0-0.2,0.1-0.3,0.3-0.3
								c5-0.1,9.6-1.3,13.9-3.5c0.6-0.3,0.9-0.5,1.1-0.5c1.4-0.6,2.7-1.3,3.9-2.1c3-2,5.6-4.4,7.7-7.3c0.1-0.2,0.3-0.2,0.4-0.1
								L729.4-21.5z"/>
							<path id="path96" class="st0" d="M670.2,14.8c-0.3,0.2-0.6,0.6-0.8,0.7c-0.2,0.1-0.3,0.1-0.3,0l-8.8-11.6
								c-0.1-0.1,0-0.2,0-0.3c3.3-2.1,11.3-7.2,24-15.2c0.4-0.2,0.7-0.3,1.1-0.1c2.8,1.3,5.3,2.1,7.6,2.5c1.6,0.3,3.6,0.5,6.1,0.6
								c0.2,0,0.4,0.2,0.4,0.4v3.9c0,0.2-0.1,0.3-0.2,0.4C682.8,6.8,673,13,670.2,14.8L670.2,14.8L670.2,14.8z"/>
							<path id="path98" class="st0" d="M678.8,28L670,16.6c-0.1-0.1-0.1-0.2,0-0.3l29.3-18.8c0.1-0.1,0.3,0,0.3,0.2v16.7
								c0,0.1,0,0.1-0.1,0.2L679.1,28C679,28.1,678.9,28.1,678.8,28L678.8,28z"/>
							<path id="path100" class="st0" d="M730.3,16.5l-8.7,11.3c-0.1,0.1-0.3,0.2-0.4,0.1L701,14.5c-0.1-0.1-0.1-0.2-0.1-0.3V-2.2
								c0-0.2,0.3-0.4,0.5-0.3l29,18.5C730.4,16.1,730.5,16.3,730.3,16.5L730.3,16.5z"/>
							<path id="path102" class="st0" d="M680.1,28.6c4.2-2.7,10.6-6.9,19.2-12.6c0.1-0.1,0.3,0,0.3,0.2v16.3c0,0.2-0.1,0.4-0.3,0.6
								l-10.8,7.3c-0.1,0.1-0.1,0-0.2,0L679.6,29c-0.1-0.1,0-0.2,0.1-0.3c0,0,0.1,0,0.2,0C680,28.7,680.1,28.7,680.1,28.6z"/>
							<path id="path104" class="st0" d="M720.6,29.1l-8.5,11c-0.1,0.1-0.2,0.1-0.3,0.1L700.9,33c-0.1,0-0.1-0.1-0.1-0.2V16.2
								c0-0.2,0.2-0.3,0.4-0.2l19.4,12.7C720.7,28.8,720.7,29,720.6,29.1L720.6,29.1z"/>
							<path id="path106" class="st0" d="M700.8,53.8V34.8c0-0.2,0.2-0.3,0.4-0.2l9.8,6.4c0.1,0.1,0.2,0.3,0.1,0.4L701.3,54
								C701.2,54.2,700.8,54.1,700.8,53.8L700.8,53.8z"/>
							<path id="path108" class="st0" d="M699.2,54.3l-10-12.8c-0.1-0.1-0.1-0.3,0.1-0.3l10-6.6c0.2-0.1,0.4,0,0.4,0.2v19.4
								C699.6,54.4,699.3,54.5,699.2,54.3z"/>
							<path id="path110" class="st0" d="M533.8,86.4c-0.2,0.3-0.3,0.6-0.4,1c0,0.2-0.1,0.2-0.3,0.2H533c-0.2,0-0.2-0.1-0.2-0.2v-8
								c0-0.1,0.1-0.2,0.2-0.2h0.3c0.2,0,0.3,0.1,0.3,0.3c0.3,3.9,1.7,8.1,6.4,7.4c3.1-0.4,3.8-3.7,2.2-6c-0.5-0.7-1.3-1.4-2.2-2.1
								c-3.4-2.3-7.2-4.2-7.1-8.4c0.1-4.9,5.6-6,9.4-5.2c0.9,0.2,2,0.9,3,1.3c0.1,0.1,0.3,0,0.4-0.1c0.2-0.2,0.4-0.6,0.4-1
								c0-0.2,0.1-0.3,0.3-0.3h0.1c0.2,0,0.3,0.1,0.3,0.3l-0.1,6.6c0,0.1-0.1,0.2-0.2,0.2h-0.1c-0.2,0-0.4-0.2-0.4-0.4
								c-0.2-2.8-1.7-5.8-4.7-6.2c-3.2-0.4-5,2.8-3.2,5.3c0.5,0.7,1.1,1.3,2,1.8c2.4,1.6,4,2.8,5,3.5c4,3,4.1,8.7-0.9,10.7
								c-3,1.2-6.8,0.8-9.5-0.9C534.2,86.1,533.9,86.2,533.8,86.4L533.8,86.4z"/>
							<path id="path112" class="st0" d="M369.3,79.1c-0.1,0-0.1,0-0.2,0.1c-0.8,1.8-1.3,3.3-1.6,4.5c-0.4,2,0.4,3,2.4,3
								c0.1,0,0.2,0.1,0.2,0.2v0.2c0,0.1-0.1,0.2-0.2,0.2l-5.7,0c-0.2,0-0.3,0-0.4-0.1c0,0,0-0.1,0-0.1c0-0.1,0.1-0.2,0.1-0.2
								c1-0.5,1.8-1.6,2.5-3.2c1-2.5,3.3-8.5,7-18c0.1-0.1,0.1-0.2,0.3-0.2h1.7c0.2,0,0.3,0.1,0.3,0.2c4.4,11.5,7,18.1,7.7,19.6
								c0.2,0.5,0.4,0.8,0.5,0.9c0.5,0.5,1,0.6,1.5,0.3c0.9-0.4,0.8-1.5,0.8-2.4c0-5.7,0-11.2,0-16.3c0-1.6-1-1.5-2.2-1.8
								c-0.1,0-0.1-0.1-0.1-0.2v-0.1c0-0.2,0.1-0.2,0.2-0.2h9.3c0.2,0,0.2,0.1,0.2,0.3v0.2c0,0.1-0.1,0.2-0.2,0.2
								c-2.6-0.2-2.3,1.7-2.3,3.6c0,5.5,0,10.6,0,15.5c0,0.9,0.5,1.4,1.4,1.4c1.3,0.1,2.7,0.2,3.8-0.3c2.3-1.1,3.6-4,3.9-6.3
								c0-0.1,0.1-0.2,0.3-0.2h0.2c0.2,0,0.2,0.1,0.2,0.2v7.3c0,0.1,0,0.1-0.1,0.1h-25.1c-0.1,0-0.3-0.1-0.3-0.2v-0.2
								c0-0.1,0-0.1,0.1-0.2c1,0,2.4-0.2,2-1.7c-0.3-1.1-1-3-2.1-5.9c0-0.1-0.1-0.1-0.2-0.1L369.3,79.1z"/>
							<path id="path114" class="st0" d="M513.7,76.9c1.7,0.2,3.4,0.6,4.5,1.9c0.4,0.5,0.7,1.4,1.1,2.9c0.4,1.8,0.8,6.3,3.1,4
								c0.1-0.1,0.3-0.1,0.4,0l0.1,0.1c0.1,0.1,0.1,0.2,0,0.3c-1.4,1.4-3.2,1.9-5.4,1.5c-1.5-0.3-2.3-1.2-2.6-2.5
								c0-0.1-0.4-1.8-1.1-5.3c-0.2-0.8-0.5-1.5-0.9-2.2c-0.6-0.9-2.3-0.7-3.4-0.7c-0.1,0-0.2,0.1-0.2,0.2c0,2.1,0,4.2,0,6.3
								c0,1.8-0.2,3.4,2.1,3.2c0.2,0,0.3,0.1,0.3,0.3l0,0.1c0,0.1-0.1,0.2-0.2,0.2h-9.1c-0.1,0-0.2,0-0.3-0.1
								c-0.1-0.1-0.2-0.1-0.3,0c-0.1,0-0.2,0.1-0.3,0.1H484c-0.1,0-0.2-0.1-0.2-0.2v-0.2c0-0.1,0.1-0.2,0.2-0.2c1-0.1,2.4-0.3,2-1.6
								c-0.4-1.3-1.1-3.3-2.1-5.9c-0.1-0.1-0.1-0.2-0.3-0.2h-6.3c-0.1,0-0.2,0.1-0.3,0.2c-0.8,1.8-1.3,3.3-1.5,4.7
								c-0.4,2.1,0.8,2.7,2.6,2.8c0.1,0,0.2,0.1,0.2,0.2l0,0.2c0,0.1-0.1,0.1-0.2,0.1h-29.4c-0.2,0-0.3-0.1-0.3-0.3v-0.2
								c0-0.1,0-0.1,0.1-0.1c1-0.1,2.4-0.2,2.1-1.5c-0.2-0.7-0.9-2.7-2.2-6c-0.1-0.1-0.1-0.2-0.3-0.2h-6.3c-0.1,0-0.2,0.1-0.3,0.2
								c-0.9,2.2-1.4,3.8-1.6,4.8c-0.3,2.2,0.9,2.4,2.6,2.7c0.1,0,0.2,0.1,0.2,0.2l0,0.2c0,0.1-0.1,0.2-0.2,0.2
								c-0.9,0-2.8-0.1-5.7-0.1c-0.1,0-0.2,0-0.3-0.1c-0.1-0.1-0.1-0.3,0.1-0.3c1.1-0.5,1.9-1.4,2.3-2.6c1.5-3.8,3.9-10,7.3-18.6
								c0-0.1,0.1-0.2,0.3-0.2h1.8c0.1,0,0.2,0.1,0.3,0.2c3.8,9.9,6.4,16.5,7.7,19.8c0.1,0.4,0.4,0.7,0.8,0.9
								c0.1,0.1,0.2,0.1,0.3-0.1l10.2-19.8c0.1-0.1,0-0.2-0.1-0.2c-3.4-0.1-6.9-0.3-8.5,3.3c-0.3,0.7-0.6,1.7-0.7,2.9
								c0,0.2-0.2,0.3-0.3,0.2l-0.2,0c-0.1,0-0.1-0.1-0.1-0.2v-6.7c0-0.1,0-0.1,0.1-0.1h15.1c0.5,0,0.6,0.2,0.4,0.6l-10.5,20.3
								c0,0.1,0,0.2,0.1,0.2c3,0,5.5,0.3,7.6-1.9c1.1-1.2,1.8-2.7,1.9-4.5c0-0.2,0.2-0.3,0.3-0.3h0.2c0.2,0,0.3,0.1,0.3,0.3v5.9
								c0,0.2,0.2,0.2,0.3,0.1c0.7-0.8,1.2-1.8,1.7-3c3.1-8.1,5.4-14,6.9-17.7c0-0.1,0.1-0.2,0.2-0.2h1.7c0.2,0,0.3,0.1,0.3,0.2
								c4.5,11.6,7,18.1,7.7,19.7c0.2,0.4,0.3,0.7,0.5,0.8c0.8,0.9,2.1,0.7,2.3-0.5c0.1-0.3,0.1-0.8,0.1-1.3c0-7.1,0-12.6,0-16.4
								c0-1.5-1.1-1.6-2.2-1.8c-0.1,0-0.2-0.1-0.1-0.2l0-0.1c0-0.1,0.1-0.2,0.2-0.2h9c0.1,0,0.2,0,0.3,0.1c0.1,0.1,0.2,0.1,0.4,0
								c0.1-0.1,0.2-0.1,0.3-0.1c1.7,0,5.2,0,10.7,0c1.8,0,4.7,0.7,6,2.2c1.7,2,1.4,4.8-0.2,6.7c-1.3,1.6-3,1.9-5.1,2.4
								C513.5,76.8,513.5,76.9,513.7,76.9L513.7,76.9z"/>
							<path id="path116" class="st0" d="M330.9,75.8c0.9,0.1,1.7,0.3,2.6,0.4c3,0.6,5.5,2.9,4.8,6.3c-0.8,3.8-5.1,4.8-8.6,4.7
								c-3-0.1-6.3-0.1-9.9,0c-0.1,0-0.2-0.1-0.2-0.2v-0.2c0-0.1,0-0.1,0.1-0.1c1.3-0.2,2.2-0.3,2.2-1.9c0-6.3,0-11.8,0-16.5
								c0-0.9-0.2-1.5-0.5-1.8c-0.1-0.1-0.3-0.2-0.4-0.2l-1.4-0.3c-0.1,0-0.1-0.1-0.1-0.2l0-0.2c0-0.1,0.1-0.2,0.2-0.2
								c2.9,0,6.3,0,10.2,0c2.8,0,6.2,1,6.8,4.1c0.7,3.5-3,5.5-5.8,6.1C330.7,75.8,330.7,75.8,330.9,75.8L330.9,75.8z"/>
							<path id="path118" class="st0" d="M345.8,76.8c-0.1,0-0.1,0.1-0.1,0.1c0,2.6,0,5.2,0,7.8c0,1.9,1.5,1.9,3.1,2
								c0.1,0,0.2,0.1,0.2,0.2v0.1c0,0.1-0.1,0.2-0.2,0.2h-10.2c-0.1,0-0.2-0.1-0.2-0.2v-0.2c0-0.1,0.1-0.2,0.2-0.2
								c2.4,0.1,2.1-1.6,2.1-3.5c0-2.7,0-7.8,0-15.3c0-1.5-1-1.7-2.2-1.8c-0.1,0-0.1-0.1-0.1-0.2v-0.1c0-0.2,0.1-0.2,0.2-0.2h16.1
								c0.1,0,0.1,0,0.1,0.1l-0.2,6.7c0,0.1-0.1,0.2-0.2,0.2l-0.1,0c-0.2,0-0.3-0.2-0.3-0.3c-0.7-4.3-2.4-6.5-7.1-6
								c-1.4,0.2-1.3,1.2-1.3,2.5c0,1.4,0,3.8,0,7.2c0,0.1,0.1,0.2,0.2,0.2c2.7,0.4,4.1-1.5,4.5-3.8c0-0.1,0.1-0.2,0.3-0.2h0.3
								c0.1,0,0.2,0.1,0.2,0.2v8.5c0,0.1-0.1,0.2-0.2,0.2h-0.1c-0.2,0-0.3-0.1-0.4-0.3C350,77.8,348.5,76.5,345.8,76.8L345.8,76.8z"
								/>
							<path id="path120" class="st0" d="M406.6,86.7c1.3,0,2.2-0.4,2.2-1.8c0-4.2,0-9.6,0-16.2c0-1.8-0.1-2.5-2.3-2.7
								c-0.1,0-0.1-0.1-0.1-0.2v-0.2c0-0.1,0.1-0.2,0.2-0.2c3.3,0,6.7,0,10.1,0c2.1,0,4.1,0.4,6,1.2c4.5,1.9,6,7,5.2,11.6
								c-1,6-5.9,9.2-11.7,9.1c-4,0-7.1,0-9.5,0c-0.2,0-0.3-0.1-0.3-0.3v-0.2C406.4,86.8,406.5,86.7,406.6,86.7L406.6,86.7z"/>
							<path id="path122" class="st0" d="M437.8,66.1c-1.9-0.1-2.2,0.9-2.2,2.7c0,5.1,0,10.2,0,15.2c0,1.5-0.2,3.9-1.1,5.4
								c-1.5,2.7-4.6,3.8-7.6,3.7c-0.1,0-0.2-0.1-0.2-0.2c0-0.2,0.1-0.3,0.3-0.3c3.5-0.6,3.6-4.2,3.6-7.1c0-6.1,0-12,0-17.7
								c0-1.5-1.1-1.6-2.2-1.7c-0.1,0-0.1-0.1-0.1-0.2v-0.1c0-0.1,0.1-0.2,0.2-0.2h9.2c0.2,0,0.3,0.1,0.3,0.3v0.2
								C438,66,438,66.1,437.8,66.1L437.8,66.1z"/>
							<path id="path124" class="st3" d="M504.3,85c0,1-0.8,1.7-1.7,1.7h-1.3c-1,0-1.7-0.8-1.7-1.7V67.8c0-1,0.8-1.7,1.7-1.7h1.3
								c1,0,1.7,0.8,1.7,1.7V85z"/>
							<path id="path126" class="st3" d="M326.8,75.6c0-3.7,0-6.3,0-7.9c0-0.9,0.4-1.5,1.4-1.7c1.8-0.2,2.8,0.6,3.2,2.3
								c0.5,2,0.5,5.3-1.3,6.7C329.5,75.8,327.8,75.8,326.8,75.6C326.9,75.6,326.8,75.6,326.8,75.6L326.8,75.6z"/>
							<path id="path128" class="st3" d="M413.8,67.8c0-1,0.8-1.9,1.9-1.9h1c3.5,0,6.3,3.6,6.3,8l0,5c0,4.4-2.8,8-6.3,7.9h-1
								c-1,0-1.9-0.8-1.9-1.9L413.8,67.8z"/>
							<path id="path130" class="st3" d="M509.5,76.3c-0.1,0-0.3-0.1-0.3-0.3c0-3.8,0-6.6,0-8.2c0-2,1.6-2.1,3.1-1.7
								c2.9,0.7,2.9,4.8,2.4,7.1C514.1,76.2,511.9,76.3,509.5,76.3L509.5,76.3z"/>
							<path id="path132" class="st0" d="M556,79.9c-0.1,1.9-0.1,3.7,0.1,5.4c0.1,1.3,1.6,1.4,2.7,1.4c0.1,0,0.1,0.1,0.1,0.1v0.1
								c0,0.1-0.1,0.2-0.2,0.2H550c-0.1,0-0.2-0.1-0.2-0.2V87c0-0.1,0.1-0.2,0.2-0.2c1.2,0.1,1.8-0.6,1.8-2c0-8.4,0-13.1,0-14.3
								c0-1.3-0.8-1.5-1.9-1.6c-0.1,0-0.2-0.1-0.2-0.2v-0.2c0-0.1,0-0.1,0.1-0.1c1.2,0,4.1,0,8.8,0c1.8,0,3.4,0.4,4.7,1.3
								c2.2,1.4,2.6,4.2,1.5,6.4c-1.6,3.3-5.4,3.5-8.6,3.5C556.1,79.7,556.1,79.8,556,79.9L556,79.9z"/>
							<path id="path134" class="st3" d="M556,69.6c0-0.4,0.3-0.8,0.8-0.8l0.8,0c1.9,0,3.4,1.7,3.4,3.9l0,2.5c0,2.1-1.5,3.9-3.4,3.9
								l-0.8,0c-0.4,0-0.8-0.3-0.8-0.8L556,69.6z"/>
							<path id="path136" class="st3" d="M369.5,78.2l3-7.8c0-0.1,0.2-0.1,0.2,0l2.9,7.9c0,0.1,0,0.2-0.1,0.2l-5.9,0
								C369.5,78.4,369.4,78.3,369.5,78.2L369.5,78.2z"/>
							<path id="path138" class="st3" d="M441.9,78.2l3-7.9c0-0.1,0.2-0.1,0.2,0l2.9,7.9c0,0.1,0,0.2-0.1,0.2l-5.9,0
								C441.9,78.4,441.9,78.3,441.9,78.2z"/>
							<path id="path140" class="st3" d="M477.4,78.2l3-7.9c0-0.1,0.2-0.1,0.2,0l2.9,7.9c0,0.1,0,0.2-0.1,0.2l-5.9,0
								C477.4,78.4,477.3,78.3,477.4,78.2L477.4,78.2z"/>
							<path id="path142" class="st0" d="M567.3,81c-0.7,1.7-2.6,5.5,0.7,5.5c0.1,0,0.2,0.1,0.2,0.2v0.1c0,0.1-0.1,0.2-0.2,0.2h-4.3
								c-0.1,0-0.2,0-0.2-0.1c0,0,0-0.1,0-0.1c0,0,0-0.1,0.1-0.1c0.8-0.3,1.4-1,1.8-2.1c1.5-3.9,3.3-8.4,5.3-13.7
								c0-0.1,0.1-0.2,0.3-0.2h1.2c0.1,0,0.2,0.1,0.3,0.2c2.2,5.6,4.1,10.5,5.7,14.7c0.1,0.3,0.5,0.7,1.2,1c0.1,0.1,0.2,0.2,0.1,0.3
								c0,0,0,0.1-0.1,0.1c0,0-0.1,0-0.2,0c-2.2-0.1-4.5-0.1-6.7,0c-0.1,0-0.2-0.1-0.2-0.1v-0.1c0-0.1,0.1-0.2,0.2-0.2
								c1.1,0,1.6-0.3,1.5-1.1c-0.1-0.4-0.6-1.9-1.6-4.5c0-0.1-0.1-0.2-0.3-0.2h-4.5C567.4,80.8,567.3,80.8,567.3,81L567.3,81
								L567.3,81z"/>
							<path id="path144" class="st3" d="M567.6,80.1l2.2-5.7c0-0.1,0.2-0.1,0.3,0l2.1,5.7c0,0.1,0,0.2-0.1,0.2l-4.3,0
								C567.6,80.3,567.6,80.2,567.6,80.1L567.6,80.1z"/>
							<path id="path146" class="st3" d="M327,76.2c3.3,0,6,0.5,6.3,4.5c0.2,3.3-0.9,6.1-4.6,6c-1.2,0-1.7-0.6-1.8-1.8
								c0-1.7,0-4.5,0-8.5C326.8,76.3,326.9,76.2,327,76.2z"/>
						</g>
					</g>
				</g>
			</g>
		</g>
	</g>
</g>
<g>
	<path class="st5" d="M118.6,29.5c-0.1,0.5-0.1,0.9-0.2,1.4c0.2,0,0.1-0.3,0.3-0.3c-0.2,1-0.4,1.9-0.6,2.8c0,0,0.1,0,0.1,0
		c0.1-0.2,0.2-0.4,0.3-0.6c0,0,0.1,0,0.1,0c-0.3,0.9-0.5,1.7-0.8,2.6c-0.5,1.9-1.1,3.7-1.6,5.6c-0.1,0.5-0.3,1-0.7,1.3
		c-0.3,0-0.3,0.2-0.4,0.3c-0.5,0.7-1.2,1-1.9,1.3c-0.2,0.1-0.3,0.1-0.5,0c-0.1-0.1,0-0.3,0.1-0.4c0.4-0.8,1.1-1.3,1.7-1.9
		c0.4-0.4,1-0.8,1.3-1.3c0.1-0.2,0.2-0.4,0.3-0.6c0.1-0.2,0.1-0.4,0.2-0.5c-0.4,0.5-1,0.9-1.5,1.2c-0.1,0-0.4,0-0.1,0.2
		c-0.1,0.2-0.4,0.2-0.6,0.2c-0.7-0.2-0.7-0.3-0.4-0.9c0.5-0.9,1.3-1.5,2-2.3c0.4-0.4,0.9-0.9,1.2-1.4c0.1-0.2,0.1-0.4,0.1-0.6
		c0.2-0.4,0.5-0.8,0.6-1.2c-0.6,0.8-1.3,1.5-2.3,1.9c-0.7,0-0.9-0.1-0.7-0.7c0.1-0.5,0.5-0.8,0.8-1.2c0.8-1,1.8-1.9,2.4-3.1
		c0.1-0.2,0.1-0.4,0.1-0.7c0.3-0.6,0.3-1.2,0.7-1.8C118.7,29.2,118.7,29.3,118.6,29.5z"/>
	<path class="st6" d="M109.6,26.8c0.1,0.2,0,0.4,0.2,0.5c0.1,0.1,0.3,0,0.4,0.1c0.1,0,0.1,0.1,0.1,0.2c0,0.2,0,0.4-0.1,0.5
		c-0.3,1.5-0.3,2.9-0.2,4.4c0.1,1.1,0.1,2.1,0.4,3.2c0,0.4,0.1,0.8,0.2,1.2c0.1,0.2,0.1,0.3,0.2,0.5c0.2,0.6,0.7,1.1,0.9,1.8
		c0.2,0.8,0.5,1.6-0.2,2.4c-0.2,0.2-0.2,0.7-0.1,1c0.1,0.7,0.2,1.4,0.4,2.1c0,0.6,0.3,1.1,0.7,1.6c0,0,0,0.1,0,0.1
		c-0.8,0.4-0.8,1.2-0.9,1.9c-0.3,1.5-0.6,2.9-0.9,4.4c0,0.3-0.1,0.6-0.3,0.7c-0.2,0.1-0.3,0-0.2-0.2c0.3-2,0.6-3.9,0.9-5.9
		c0.1-0.3,0-0.6,0-0.9c-0.3-0.9-0.9-1.6-1.2-2.5c-0.2-0.5-0.4-0.9-0.5-1.4c0-0.1,0-0.3,0-0.4c-0.1-0.1-0.1-0.2,0-0.3
		c0.1-0.1,0.2,0,0.3,0.1c0.2,0.3,0.4,0.7,0.8,1c-0.4-0.9-0.6-1.8-0.9-2.6c-0.1-0.2-0.1-0.5,0-0.7c0.4-0.2,0.4,0.2,0.5,0.3
		c0.2,0.3,0.3,0.7,0.7,1c-0.1-0.7-0.9-1.1-0.9-1.8c-0.4-2.3-0.2-4.7-0.2-7c0-0.2,0.1-0.4,0.2-0.5c0.1-1.6-0.1-3.2-0.1-4.8
		C109.4,26.9,109.3,26.8,109.6,26.8z"/>
	<path class="st7" d="M110,18.9c-0.2-0.6-0.2-1.2-0.4-2c0.4,0.4,0.3,0.9,0.6,1.2c-0.2-2.2-0.9-4.4-0.9-6.7c0.1,0.4,0.2,0.8,0.4,1.2
		c0.1,0.2,0.1-0.1,0.2-0.1c0.1-0.4,0-0.9-0.1-1.3c0-0.1,0-0.3,0.1-0.4c0.2-0.1,0.3,0.1,0.3,0.2c0.2,0.3,0.2,0.6,0.5,0.8
		c0.2,0.2,0.3,0.4,0.4,0.6c0.3,1,1.1,1.7,1.5,2.7c0.1,0.2,0.3,0.4,0.1,0.7c-0.1,0-0.1,0.1-0.2,0.1c-0.3-0.1-0.2,0.2-0.4,0.3
		c-0.2,0-0.3-0.1-0.4-0.3c0-0.6-0.6-0.8-0.9-1.3c0,0,0-0.1,0-0.1c0,0-0.1,0,0,0.1c0,0.4,0.2,0.7,0.4,1.1c0.4,0.8,0.9,1.6,1.3,2.4
		c0.2,0.4,0.5,0.9,0.2,1.4c-0.3,0.2-0.5-0.1-0.7-0.2c-0.1-0.2-0.4-0.2-0.6-0.3c-0.5-0.7-0.4-1.6-0.8-2.2c-0.1-0.2-0.2,0-0.1-0.1
		c0,0,0,0,0.1,0c0.2,0.4,0.3,0.8,0.4,1.3c-0.1,0.9,0.2,1.6,0.6,2.3c0.6,1.1,1.1,2.3,1.1,3.6c-0.2,0.3-0.3,0.1-0.5,0
		c-0.1-0.1-0.3-0.1-0.4-0.1c-0.1,0-0.2-0.1-0.3-0.2c-0.1-0.7-0.5-1.3-0.4-2c-0.1,0-0.1,0.1-0.3,0.1c-0.4-0.5-0.1-1.1-0.4-1.6
		c-0.2-0.4-0.2-0.9-0.3-1.3C110.1,19,110.1,18.9,110,18.9z"/>
	<path class="st8" d="M110,53.3C110,53.3,110,53.3,110,53.3c0.1,0.1,0.1,0.2,0.2,0.1c0.3-1.5,0.6-3.1,0.9-4.6c0.1-0.7,0.4-1.3,0.4-2
		c0-0.2,0.2-0.2,0.3-0.2c0.2,0,0.5,0.1,0.5-0.3c0.4-0.5,0.5-0.5,0.8-0.3c-1.4,1.3-1.3,3.2-1.7,4.8c-0.6,2.3-1,4.7-1.4,7
		c-0.6,3.1-1,6.2-1.3,9.3c0,0.2-0.1,0.4-0.1,0.5c-0.8,0.1-0.7-0.5-0.6-0.9c0.1-0.9,0.2-1.8,0.4-2.7c0.1-0.8,0.4-1.5,0.3-2.3
		c0.4-2.2,0.8-4.5,1.2-6.7C109.8,54.5,109.7,53.9,110,53.3z"/>
	<path class="st9" d="M112.2,16.2c0-0.2-0.1-0.4-0.1-0.6c0.2,0,0.3,0.2,0.4,0.3c0.3,0.3,0.6,0.5,0.9,0.7c0.1,0.1,0.2,0.1,0.4,0.2
		c-0.2-1.1-0.3-2.2-1.1-3.1c-0.1-0.2-0.3-0.3-0.1-0.6c0.7,0.1,0.9,0.7,1.2,1.2c0.2,0.2,0.3,0.5,0.4,0.8c-0.2-1.1-0.9-1.8-1.8-2
		c-0.3,0-0.5-0.2-0.7-0.5c-0.1-0.3-0.4-0.5-0.5-0.8c-0.1-0.5-0.7-0.9-0.5-1.6c0.2-0.1,0.3-0.1,0.5,0c0.2,0.8,0.6,1.4,1.2,1.9
		c0.2,0.2,0.5,0.3,0.8,0.5c0.2,0.1,0.3,0.1,0.5,0.2c0.2,0.1,0.4,0.4,0.6,0.5c0.4-1.3,0.8-2.7,1-4.1c0-0.2,0.2-0.5,0-0.8
		c-0.1-0.5-0.1-1-0.2-1.5c0,0,0,0,0.1,0c0.2,0.7,0.4,1.3,0.6,2c0.6,1,0.7,2.1,0.3,3.1c-0.2,0.7-0.6,1.4-1,2
		c-0.2,0.3-0.4,0.7-0.2,1.1c0,0.6-0.2,1.2-0.2,1.9c0,0.3,0.1,0.6,0.2,0.9c0.3,0.6,0.5,1.3,0.5,2c0,0.4-0.1,0.8-0.4,1.1
		c-0.2,0.2-0.4,0.5-0.7,0.2c-0.2-0.8-0.5-1.5-0.4-2.3c0.1-0.2,0.3-0.1,0.4,0c0.2,0.2,0.2,0.4,0.3,0.6c0-1.2-0.9-1.9-1.8-2.5
		c-0.2-0.1-0.4-0.2-0.5-0.3c-0.1-0.1-0.2-0.2-0.3-0.4C112.1,16.4,112.2,16.3,112.2,16.2z"/>
	<path class="st10" d="M110,18.9c0,0,0.1,0,0.1,0c0.3,0.8,0.5,1.7,0.5,2.5c0.2,1.5,0,2.9,0.4,4.4c0,0.5,0,1,0.3,1.4
		c0,0.1,0.1,0.1,0.1,0.2c0.1,0.2,0.2,0.4,0.3,0.6c0,0.4,0.1,0.7,0.2,1c0.4,0.9,1.2,1.7,1.2,2.7c0,0.8,0.2,1.6,0.1,2.4
		c-1-0.1-1.6-0.7-2.2-1.4c-0.1-0.2-0.3-0.4-0.2-0.7c0.6-0.1,0.6,0.5,0.8,0.6c-0.1-0.2-0.2-0.4-0.2-0.6c0-1.9-0.7-3.6-1.1-5.4
		c-0.1-0.4,0-0.9-0.2-1.3c0-0.4-0.2-0.9,0-1.3c0.1-1.4,0-2.8-0.2-4.2C110.1,19.4,110.1,19.2,110,18.9z"/>
	<path class="st11" d="M114.9,15.2c-0.3-0.4-0.1-0.7,0.1-1.1c0.8-1.3,1.5-2.7,1.1-4.3c-0.1-0.3-0.3-0.5-0.2-0.8
		c0.3-0.7-0.1-1.4-0.2-2c-0.3-1.5-0.7-3.1-0.9-4.6c-0.1-0.3-0.3-0.5-0.4-0.8c-0.1-0.2-0.1-0.5,0-0.7c0.1-0.1,0.3-0.1,0.5,0
		c0.2,0.1,0.4,0.4,0.3,0.6c-0.6,0.7,0,1.3,0.1,1.9c0.1,0.9,0.5,1.9,0.6,2.8c0.2,1.6,0.7,3.1,0.9,4.7c-0.1,0.6,0.1,1.1,0.1,1.7
		C116.8,13.9,115.9,14.6,114.9,15.2z"/>
	<path class="st12" d="M110.9,7.3c0.2,0.1,0.3,0.1,0.4,0.3c0.2,0.5,0.5,0.8,1.1,1c0.3-0.3,0-0.7,0.2-1c0.3,0.2,0.2,0.4,0.2,0.7
		c0,0.3,0,0.6,0.3,0.9c0.3,0.2,0.3,0,0.3-0.2c0.2-1.3,0.4-2.6,0.3-4c0-0.1,0-0.2,0.1-0.3c1,1.6,1.4,3.3,0.6,5.1
		c-0.1,0.2-0.3,0.4,0,0.6c-0.1,0.6-0.2,1.1-0.3,1.7c0,0.3-0.1,0.5-0.5,0.6c-0.7-0.2-0.6-0.7-0.6-1.2c0.4-0.1,0.4-0.3,0.3-0.6
		c-0.2-0.8-0.9-1.2-1.5-1.6c-0.2-0.1-0.4-0.2-0.5-0.4c-0.2-0.2-0.3-0.5-0.5-0.8C110.8,7.8,110.7,7.6,110.9,7.3z"/>
	<path class="st13" d="M111.2,10.4c-0.1-0.2-0.3-0.1-0.4-0.1c-0.8-0.2-1-1-1.4-1.6c-0.2-0.1-0.3-0.2-0.4-0.4
		c-0.3-0.6-0.5-1.2-0.5-1.9c0.1,0.2,0.2,0.4,0.3,0.6c-0.7-2.4-0.9-4.8-1.7-7.2l0,0c0.7,1.3,0.9,2.8,1.4,4.2c0.2,0.6,0.4,1.2,0.6,1.8
		c0.2,0.5,0.5,0.9,0.8,1.4c0.5,0.8,0.9,1.6,1.5,2.3c0.2,0.3,0.4,0.7,0,1C111.3,10.5,111.3,10.5,111.2,10.4z"/>
	<path class="st14" d="M116.7,12.8c0.1-0.6-0.2-1.2,0.1-1.8c0.2,0.9,0.2,1.9,0.5,2.8c0.5,1.9-0.3,3.4-1.5,4.9
		c-0.5,0.1-0.6-0.1-0.6-0.5c0-0.5,0.2-0.9,0.3-1.4c0.4-1.1,0.9-2.1,1.1-3.3C116.7,13.2,116.8,13,116.7,12.8z"/>
	<path class="st15" d="M118.2,27c0.1-0.3,0.3-0.6,0.4-1c0.4,0.1,0.3,0.4,0.3,0.6c-0.1,0.8-0.2,1.5-0.4,2.3c-0.3,1.3-1.2,2.2-2.3,3
		c-0.2,0.2-0.4,0.3-0.7,0.3c-0.7-0.2-0.3-0.6-0.1-0.9c0.7-1.2,1.6-2.3,2.4-3.4c0.1-0.2,0.2-0.4,0.3-0.5
		C118.2,27.3,118.3,27.2,118.2,27z"/>
	<path class="st16" d="M118.3,16.9c0,0.7,0,1.3,0,2c0,1.8-1,3-2.4,4.1c-0.4-0.2-0.2-0.5-0.1-0.9c0.3-1.2,1-2.2,1.6-3.2
		c0.1-0.2,0.3-0.5,0.3-0.7c0-0.1,0-0.1,0.1-0.2c0.2-0.3,0.2-0.7,0.4-1C118.2,16.9,118.2,16.9,118.3,16.9z"/>
	<path class="st17" d="M116,40.3c0,0.3-0.3,0.5-0.5,0.7c-0.9,0.9-2,1.7-2.6,2.9c0.9-0.4,1.8-0.7,2.3-1.5c0.1-0.2,0.2-0.2,0.4-0.1
		c-0.2,0.3-0.5,0.7-0.7,1c-0.4,0.6-0.8,1.3-1.5,1.7c-0.6,0.4-0.9,0.3-1.1-0.4c0-0.5-0.1-1-0.1-1.5c0.2-0.1,0.4-0.2,0.5-0.4
		C113.4,41.6,114.6,40.9,116,40.3z"/>
	<path class="st18" d="M116.3,27.2c-0.6,0.3-0.6,0.8-0.3,1.3c-0.1,0.6-0.6,1-0.8,1.5c0,0.1-0.2,0.2-0.3,0.1
		c-0.2-0.1-0.2-0.3-0.1-0.4c0.1-0.4,0.3-0.9,0.4-1.3c0.1-0.3,0.1-0.4-0.2-0.6c-0.1-0.2-0.1-0.3-0.1-0.5c0.4-1.3,1-2.4,2-3.3
		c0.5-0.5,1-0.9,1.3-1.6c0.1-0.3,0.3-0.6,0.4-1c0.3,0.1,0.2,0.4,0.1,0.5c-0.1,0.7-0.4,1.4-0.9,2c-0.7,0.8-1,1.8-1.5,2.8
		C116.2,27,116.3,27.1,116.3,27.2z"/>
	<path class="st19" d="M116.3,27.2c-0.5-0.1-0.2-0.3-0.1-0.6c0.4-1.6,1.8-2.6,2.3-4.2c0.1-0.3,0.3-0.6,0.1-0.9c0-0.3,0.1-0.7,0.1-1
		c0.3,0,0.2,0.1,0.1,0.3c0.1,1-0.1,1.9-0.2,2.9C118.5,25.3,117.4,26.3,116.3,27.2z"/>
	<path class="st20" d="M118.3,29.1c0.1-0.8,0.3-1.5,0.4-2.3c0-0.2,0.1-0.5-0.1-0.7c0.2-0.4,0-0.9,0.3-1.3c0.2,0.2,0,0.4,0.1,0.6
		c-0.1-0.3,0.2-0.6,0.2-1c-0.1,0.1,0.2,0.4-0.2,0.4c-0.2-0.8,0.1-1.5,0.2-2.3c0.2-1.8,0.5-3.6,0.7-5.4c0-0.1,0.1-0.1,0.2-0.3
		c-0.2,2-0.5,3.9-0.7,5.8c0.1,0,0.1,0,0.2,0c0.1-0.8,0.3-1.6,0.4-2.4c0.1,0,0.1,0,0.2,0c-0.2,1.6-0.5,3.3-0.7,4.9
		c-0.2,1.3-0.4,2.6-0.6,3.9c0,0.1-0.1,0.2-0.1,0.3c-0.1-0.1-0.1-0.2-0.2-0.3C118.4,29.2,118.4,29.1,118.3,29.1z"/>
	<path class="st21" d="M114.9,27.9c0.1-0.1,0.2-0.2,0.3-0.2c0.2,0.1,0.2,0.2,0.1,0.4c-0.1,0.4-0.3,0.9-0.4,1.3
		c-0.1,0.2-0.2,0.4-0.1,0.7c0.4-0.6,0.6-1.2,1.1-1.6c0.8-0.5,1.8-0.6,2.2-1.5c0.1,0.1,0.1,0.2,0.1,0.3c-0.4,0.7-0.8,1.2-1.4,1.7
		c-0.8,0.7-1.4,1.5-1.7,2.5c-0.1,0.3-0.2,0.6-0.6,0.3c-0.4-0.6-0.5-1.2-0.3-1.9c0-0.1,0.1-0.2,0.1-0.3
		C114.7,29.1,114.6,28.4,114.9,27.9z"/>
	<path class="st22" d="M109.4,39.8c0.1,1,0.5,2,0.9,3c0.1,0.2,0.2,0.5,0.1,0.8c-0.5-0.3-0.9-0.7-1.1-1.3c0-0.1,0-0.1-0.1-0.1
		c0,0,0,0.1,0,0.1c-0.3-1-0.3-2-0.2-2.9c0.1-2.1,0.1-4.2,0.1-6.2c0-0.4,0-0.8,0-1.2c0-0.2,0.2-0.3,0.3,0c0.2,0.3,0.1,0.7,0.1,1
		c-0.1,2-0.2,3.9,0.1,5.9C109.5,39.2,109.6,39.5,109.4,39.8z"/>
	<path class="st23" d="M113.7,12.5c0.3-0.3,0.3-0.7,0.3-1.1c-0.1-0.5,0.1-0.8,0.4-1.1c0.6-0.4,0.8-1.1,0.9-1.7
		c0.3,0.6,0.1,1.2-0.1,1.8c-0.2,1.1-0.6,2.2-0.9,3.3c-0.4-0.2-0.6-0.5-0.9-0.8C113.4,12.8,113.6,12.6,113.7,12.5z"/>
	<path class="st24" d="M117.9,18c0,0.3-0.1,0.6-0.3,0.9c-0.6,1.1-1.2,2.2-1.7,3.4c-0.1,0.3,0,0.5,0.1,0.7c-0.4,0.3-0.1,0.7,0,1
		c0,0.7-0.2,1-0.8,0.9c-0.2-0.6-0.1-1.3-0.2-1.9c0.2-0.7,0.4-1.5,0.7-2.2C116.1,19.6,117,18.8,117.9,18z"/>
	<path class="st11" d="M110.3,24c0.2,0.4,0.1,0.9,0.2,1.3c0.1,1.4,0.4,2.9,0.5,4.3c0.1,0.9,0.4,1.8,0.8,2.6c0.1,0.3,0.3,0.6,0.4,0.9
		c0,0-0.1,0-0.1,0c-0.4-0.4-0.7-0.8-1.1-1.1c-0.3-0.1-0.3-0.3-0.5-0.5c-0.4-0.6-0.5-1.3-0.5-2c-0.1-0.5,0.1-1,0-1.5
		c0-0.1,0.1-0.2,0.1-0.4c-0.2-0.5-0.1-1-0.1-1.5c0-0.3,0-0.5-0.1-0.8c-0.1-0.3-0.2-0.7,0-1C110.1,24.1,109.9,23.8,110.3,24z"/>
	<path class="st25" d="M117.9,18c-0.5,0.6-1.1,1.3-1.6,1.9c-0.5,0.6-0.7,1.4-0.9,2.2c-0.1,0.2-0.1,0.5-0.3,0.7
		c-0.5-0.2-0.6-0.6-0.8-1c0-0.2-0.1-0.5,0.3-0.5c0.7-0.2,0.7-0.8,0.8-1.3c0.1-0.3,0.1-0.8,0.6-0.9c0.7-0.3,1.4-0.7,1.8-1.4
		C118,17.7,118,17.9,117.9,18L117.9,18z"/>
	<path class="st21" d="M115.2,25c0.4-0.2,0.5-0.6,0.7-1c0.7-0.5,1.7-0.6,2.1-1.4c0.2,0.6-0.4,0.9-0.7,1.2c-1.1,1-1.9,2.2-2.4,3.5
		c-0.6-0.3-0.3-0.8-0.3-1.3c0-0.1,0-0.1,0-0.2C114.8,25.5,114.9,25.2,115.2,25z"/>
	<path class="st26" d="M116,19.1c-0.2,0.3-0.4,0.6-0.6,0.9c0-0.7-0.2-1.3-0.5-2c-0.1-1.8,0.9-3.3,1.9-4.7c0,1.2-0.6,2.2-1,3.3
		c-0.2,0.5-0.3,1-0.4,1.5c-0.1,0.4,0.2,0.4,0.4,0.5C115.9,18.8,115.9,19,116,19.1z"/>
	<path class="st27" d="M112.4,44.8c0.1,0.6,0.4,0.5,0.7,0.2c0.6-0.5,1-1.2,1.6-1.6c-0.4,1-0.9,1.9-1.8,2.5c-0.3-0.1-0.4,0.4-0.8,0.3
		c-0.7-0.1-0.5-0.7-0.7-1c-0.1-0.1,0-0.4,0-0.5c-0.2-0.4,0-0.7,0.3-1c0.5,0,0.3,0.4,0.4,0.6C112.2,44.5,111.9,44.8,112.4,44.8z"/>
	<path class="st28" d="M109.2,33c0-0.3,0-0.7,0.1-1c0.1,0,0.2-0.1,0.3-0.1c0,1.8,0.1,3.5,0,5.3c0,0.8,0.3,1.6,0.2,2.4
		c-0.3-0.1-0.4-0.4-0.4-0.7C109.1,36.9,109.2,35,109.2,33z"/>
	<path class="st29" d="M109,8.3c0.1,0.1,0.2,0.3,0.4,0.1c0.4,1,0.8,1.9,1.4,2.9c0,0.2,0.1,0.5-0.1,0.7c-0.6-0.1-0.5-0.7-0.8-1.1
		c0,0.6,0.3,1.1,0,1.6C109.6,11.1,109.3,9.7,109,8.3z"/>
	<path class="st30" d="M109.2,42.7c0.8,1.1,1.1,2.5,1.9,3.6c0.1,0.2-0.1,0.2-0.2,0.3C109.6,45.5,109.2,44.2,109.2,42.7z"/>
	<path class="st31" d="M113.1,9.3c-0.8-0.4-0.3-1.1-0.5-1.7c0.1-0.5,0.4-0.8,0.7-1.1c0.2-0.3,0.3-0.7,0.4-1c0.3,0,0.2,0.3,0.2,0.4
		c0,1.1-0.5,2.1-0.5,3.1C113.4,9.2,113.3,9.3,113.1,9.3z"/>
	<path class="st32" d="M118.3,16.9c0,0-0.1,0-0.1,0c-0.1-0.1-0.1-0.2-0.1-0.3c0-3-0.3-5.9,0-8.9c0.1,2,0.2,4,0.2,5.9
		C118.2,14.8,118.4,15.8,118.3,16.9z"/>
	<path class="st33" d="M113.1,9.3c0.1-1.1,0.4-2.2,0.7-3.3c0-0.2,0.1-0.4-0.1-0.5c0-0.2,0-0.5,0-0.7c0-0.1,0-0.2,0.2-0.1
		c0,0,0,0,0,0c0.4,1.5,0,3.1-0.1,4.6c0,0.1,0,0.3-0.2,0.4C113.3,9.7,113.2,9.5,113.1,9.3z"/>
	<path class="st34" d="M108.4,61.8c0.3,0.9-0.2,1.8-0.3,2.7c-0.1,0.9-0.3,1.8-0.2,2.6c0,0.3,0.1,0.6,0.5,0.6c0,0.2,0.1,0.3-0.1,0.5
		c-0.7-0.4-1-0.8-0.8-1.7C108,64.9,108.2,63.3,108.4,61.8z"/>
	<path class="st35" d="M118.8,20.9c0-0.1-0.1-0.2-0.1-0.3c0-1.7,0.2-3.4,0.4-5c0.1-0.9,0.2-1.8,0.3-2.8c0.2,1.2-0.1,2.4-0.1,3.6
		c-0.1,1.3-0.3,2.6-0.3,4C118.9,20.6,118.9,20.7,118.8,20.9z"/>
	<path class="st36" d="M110,24.3c0,0.3,0,0.6,0,0.9c0.1,0.7,0.1,1.5,0,2.2c-0.2,0.2-0.2,0-0.3-0.1c0.2-0.7,0.1-1.4,0.1-2.1
		c-0.1-1.6-0.2-3.2-0.4-4.8c0.2,0.6,0.4,1.1,0.4,1.7C109.7,22.9,109.9,23.6,110,24.3z"/>
	<path class="st37" d="M109.7,7.2c-0.2-0.5-0.7-0.8-0.6-1.4c0.4,0.5,0.8,0.9,1.4,1.2c0.2,0,0.3,0.2,0.5,0.4c0,0,0,0,0,0
		c0.1,0.2,0.1,0.5,0.2,0.7c0.1,0.6-0.3,0.3-0.4,0.2C110.3,7.9,110,7.5,109.7,7.2z"/>
	<path class="st38" d="M109.6,26.8c0,0.1-0.1,0.2-0.1,0.2c-0.4-1.4-0.7-2.7-1.1-4.3C109.2,24.2,109.5,25.5,109.6,26.8z"/>
	<path class="st39" d="M109,31.5c-0.2-1.3-0.7-2.5-0.9-3.9C109,28.8,108.9,30.2,109,31.5z"/>
	<path class="st40" d="M109.7,4.6c-0.6-0.9-0.9-2-1.3-3C109,2.6,109.5,3.6,109.7,4.6L109.7,4.6z"/>
	<path class="st41" d="M110.9,7.3c-0.2-0.1-0.3-0.2-0.5-0.4c-0.1-0.8-0.7-1.5-0.7-2.3c0,0,0,0,0,0C110.2,5.5,110.6,6.4,110.9,7.3z"
		/>
	<path class="st42" d="M112.4,8.6c0,0.1,0,0.1,0,0.2c-0.5,0-1.2-0.7-1.1-1.2C111.7,7.9,112.1,8.2,112.4,8.6z"/>
	<path class="st43" d="M112.6,2.2c-0.4-0.8-0.7-1.6-1.1-2.4c0.6,0.7,0.9,1.5,1.2,2.2C112.8,2.2,112.7,2.3,112.6,2.2z"/>
	<path class="st44" d="M114.3,3.4c0.2,0.8,0.5,1.6,0.6,2.4c-0.3-0.7-0.6-1.5-0.7-2.3C114.1,3.4,114.2,3.4,114.3,3.4z"/>
	<path class="st45" d="M102.9,77.2c-0.1,0-0.2,0-0.3,0c0.2-0.7,0.5-1.4,0.8-2c0.1,0,0.1,0,0.2,0C103.7,76,103.4,76.7,102.9,77.2z"/>
	<path class="st46" d="M114.3,3.4c0,0-0.1,0.1-0.1,0.1c-0.3-0.7-0.5-1.4-0.5-2.1C113.9,2.1,114.1,2.7,114.3,3.4z"/>
	<path class="st47" d="M112.6,2.2c0,0,0.1-0.1,0.1-0.1c0.3,0.6,0.7,1.1,0.7,1.7l0,0C113,3.3,112.8,2.8,112.6,2.2z"/>
	<path class="st24" d="M118,16.6c0.1,0.1,0.1,0.2,0.1,0.3c-0.1,0.4-0.1,0.8-0.3,1.1c0-0.1,0-0.2-0.2-0.3
		C117.8,17.4,117.9,17,118,16.6z"/>
	<path class="st13" d="M107.1-0.1c-0.3-0.3-0.3-0.7-0.4-1C106.9-0.9,107.1-0.5,107.1-0.1C107.1-0.2,107.1-0.1,107.1-0.1z"/>
	<path class="st12" d="M113.9,4.6c-0.1,0-0.1,0.1-0.2,0.1c-0.2-0.3-0.2-0.6-0.3-1c0,0,0,0,0,0C113.7,4,113.8,4.3,113.9,4.6z"/>
	<path class="st48" d="M117.9,31c0.2,0.2,0,0.4,0,0.5c-0.5,0.7-1.1,1.4-1.8,1.9c-0.8,0.6-1.3,1.4-1.6,2.3c-0.1,0.4-0.3,0.8-0.7,0.1
		c-0.1-0.5-0.5-1-0.2-1.5c0.1-0.1,0.2-0.2,0.3-0.3c0.2-0.2,0.3-0.4,0.5-0.6c0.3-0.4,0.7-0.8,1.1-1.1C116.4,32.1,117.2,31.6,117.9,31
		z"/>
	<path class="st49" d="M113.9,35.9c0.1,0,0.2,0.4,0.3,0c0.4-1.3,1.3-2.4,2.5-3.2c0.5-0.3,0.8-0.8,1.2-1.2c-0.3,1-1.2,1.6-1.7,2.4
		c-0.4,0.6-1.1,1-1.4,1.8c-0.3,0.7-0.2,0.7,0.5,0.6c0,0.4-0.6,0.5-0.6,0.9c-0.3,0.2-0.4,0.7-0.9,0.5
		C113.6,37.2,113.5,36.5,113.9,35.9z"/>
	<path class="st25" d="M113.8,37.9c0.3-0.2,0.5-0.5,0.8-0.7c0-0.1,0.1-0.2,0.2-0.3c0.8-0.2,1.5-0.6,2.2-1c0.2,0.2,0,0.3,0,0.4
		c-0.4,0.5-0.9,1-1.5,1.4c-0.6,0.4-1.1,0.9-1.5,1.4c-0.2,0.3-0.3,0.8-0.9,0.8c-0.3-0.4-0.5-0.8-0.5-1.3c0.1-0.2,0.2-0.3,0.4-0.3
		c0.2,0,0.3-0.1,0.4-0.3C113.6,38,113.6,37.9,113.8,37.9z"/>
	<path class="st50" d="M113.1,40c0.6-0.6,0.9-1.5,1.6-2c0.8-0.5,1.5-1,2.2-1.6c-0.2,0.5-0.6,0.9-1,1.3c-0.8,0.8-1.6,1.6-2.2,2.5
		c-0.2,0.4-0.1,0.5,0.3,0.5c-0.2,0.5-0.6,0.7-1,0.2C112.9,40.6,112.9,40.3,113.1,40z"/>
	<path class="st51" d="M113.1,41c0.4,0.2,0.6-0.1,0.9-0.3c0.2,0,0.4,0,0.6-0.1c0.5-0.3,1-0.8,1.7-0.9c0,0.2-0.1,0.4-0.3,0.6
		c-0.6,0.4-1.2,0.8-1.8,1.2c-0.6,0.3-1,0.9-1.4,1.5c-0.1,0.2-0.2,0.5-0.5,0.1c-0.3-0.1-0.4-0.4-0.3-0.7c0.1-0.2,0.4-0.1,0.6-0.3
		C112.8,41.8,112.7,41.3,113.1,41z"/>
	<path class="st52" d="M117,35.9c-0.4,0.6-1,0.9-1.7,1c-0.2,0-0.4,0.2-0.7,0.2c-0.2-0.6,0.6-0.4,0.7-0.8c1-0.6,1.7-1.3,2.4-2.3
		C117.7,34.9,117.3,35.4,117,35.9z"/>
	<path class="st53" d="M117.9,31c-0.5,0.9-1.4,1.2-2.4,1.5c-0.1-0.2-0.2-0.3,0.1-0.4c1.2-0.8,2.3-1.7,2.8-3.1c0,0,0.1,0.1,0.1,0.1
		C118.5,29.8,118.1,30.4,117.9,31z"/>
	<path class="st54" d="M116.3,39.7c-0.5,0.3-0.9,0.9-1.7,0.9c-0.3-0.1-0.1-0.1,0-0.2c0.7-0.5,1.4-1,2.1-1.8
		C116.7,39.1,116.2,39.3,116.3,39.7z"/>
	<path class="st55" d="M113.1,41c-0.2,0.4-0.2,0.9-0.6,1.3c-0.7,0.1-0.5-0.4-0.5-0.7c-0.1-1-0.2-2-0.7-2.9c-0.2-0.5-0.6-0.9-0.8-1.3
		c-0.2-0.1-0.1-0.3-0.1-0.4c-0.1-0.1-0.1-0.3,0.1-0.3c0.6,0.8,1.5,1.1,2.2,1.7c0,0.1,0,0.2,0,0.3c0,0.5,0.4,0.9,0.4,1.4
		C113.1,40.4,113.1,40.7,113.1,41z"/>
	<path class="st56" d="M110,27.9c0.2,0.5,0.1,1,0.1,1.5c-0.1,1.1,0.3,2.1,0.6,3.1c0.3,0.9,0.4,1.9,0.5,2.9c0,0.3,0,0.5-0.1,0.7
		c-0.5,0.2-0.6-0.2-0.7-0.4c-0.3-0.6-0.4-1.2-0.4-1.9c0-0.4,0.1-0.8-0.2-1.1C109.7,31.1,109.7,29.5,110,27.9z"/>
	<path class="st57" d="M110.6,37.4c1,1.3,1.7,2.7,1.6,4.3c0,0.2-0.1,0.5,0.3,0.6c-0.1,0.4-0.4,0.1-0.6,0.1c0,0.1-0.3-0.2-0.2,0.1
		c0.1,0.4,0.2,0.8,0.1,1.1c0.1,0.4-0.4,0.6-0.3,1c-0.4-1.2-0.5-2.3-0.4-3.6c0.1,0,0.3,0.4,0.4-0.1c0.3-1.1-0.1-1.9-0.6-2.8
		C110.8,37.9,110.6,37.7,110.6,37.4z"/>
	<path class="st42" d="M109.4,39c0.1,0.2,0.2,0.4,0.3,0.5c0.1,0.4,0.4,0.6,0.7,0.9c0.2,0.2,0.3,0.4,0.3,0.6c0,0.1,0,0.3-0.1,0.4
		c-0.2,0.1-0.3-0.1-0.4-0.2c-0.4-0.5-0.5-1.1-0.8-1.5c0-0.2-0.1-0.5-0.1-0.7C109.3,39,109.4,39,109.4,39z"/>
	<path class="st58" d="M109.8,32.7c0.4,0.2,0.2,0.7,0.2,1c0.1,0.9,0.2,1.9,1.1,2.5c0,0,0.1,0,0.1,0c0.3,0.2,0.7,0.6,0.4,0.9
		c-0.3,0.3-0.5-0.3-0.7-0.5c-0.2-0.2-0.4-0.4-0.5-0.6c0-0.1-0.1-0.2-0.1-0.3C109.8,34.8,109.9,33.7,109.8,32.7z"/>
	<path class="st11" d="M110,27.5c0-0.7,0-1.5,0-2.2c0.3,0.8,0.1,1.5,0.1,2.3C110.1,27.5,110.1,27.5,110,27.5z"/>
	<path class="st57" d="M110.2,35.8c0,0.1,0.1,0.1,0.1,0.2c0.1,0.2,0.4,0.4,0.3,0.7c0,0.1-0.1,0.2-0.1,0.3
		C110.2,36.6,110.2,36.2,110.2,35.8z"/>
	<path class="st59" d="M111.7,23.8c0,0.1,0.1,0.1,0.3,0.2c0.3,0.3,0.4,0.6,0.5,0.9c0.1,0.4,0.3,0.7,0.5,1c0.4,0.7,0.8,1.3,0.6,2.2
		c-0.1,0.3,0.1,0.5,0.2,0.7c0.1,0.2,0.3,0.5-0.1,0.7c-0.9-0.2-1-0.9-1.4-1.5c-0.1-0.4-0.2-0.7-0.2-1.1c0-0.6-0.2-1.2-0.5-1.8
		c-0.4-0.7-0.5-1.5-0.8-2.3c-0.1-0.9-0.3-1.8-0.1-2.7c0.4,0.5,0.1,1.2,0.4,1.7C111.4,22.5,111.4,23.2,111.7,23.8z"/>
	<path class="st59" d="M112.7,24.3c-0.2-1.6-1-3-1.6-4.5c-0.2-0.5-0.5-1-0.2-1.6c0.5,0.5,0.3,1.2,0.9,1.7c0.4,0.3,0.6,0.7,0.8,1.2
		c0.1,0.4,0.4,0.7,0.6,1c0.4,0.6,0.7,1.2,0.6,1.9c-0.1,0.3,0.1,0.6,0.3,0.9c0.1,0.2,0.3,0.4,0.2,0.7c-0.1,0.2-0.3,0.1-0.5,0.1
		c-0.1,0-0.1-0.1-0.2-0.1C113.2,25.2,112.8,24.8,112.7,24.3z"/>
	<path class="st60" d="M111.8,12.5c0.2,0.1,0.4,0.3,0.6,0.4c0.1,0,0.1,0.1,0.1,0.1c1,1.2,1.3,2.6,1.5,4c-0.3,0-0.5-0.2-0.8-0.4
		c-0.1-0.4-0.5-0.5-0.6-0.8c0-0.6-0.4-1.2-0.8-1.7c-0.4-0.5-0.8-1.1-0.9-1.7C111.3,12.4,111.6,12.9,111.8,12.5z"/>
	<path class="st61" d="M112.3,24.9c-0.1-0.3-0.2-0.6-0.3-1c0.1-0.1,0.2-0.2,0.3,0c0.4,0.6,0.9,1.1,1.5,1.6l0,0
		c0.3,0.2,0.5,0.5,0.8,0.4c0.1,0,0.1,0,0.1,0c0.1,0.5-0.1,0.9,0.2,1.4c0,0.2,0,0.4,0,0.6c0,0.6,0,1.3-0.5,1.8
		c-0.4,0.1-0.4-0.2-0.4-0.4C113.9,27.6,113.2,26.3,112.3,24.9z"/>
	<path class="st62" d="M112.3,16.5c0.1,0.1,0.2,0.2,0.3,0.3c0.2,0.4,0.6,0.6,0.8,1c0.4,0.6,0.7,1.2,0.6,1.9
		c-0.1,0.3,0.2,0.5,0.2,0.8c0.1,0.2,0.4,0.5,0,0.7c-0.7-0.3-1.3-0.7-1.5-1.5c0.1-1.1-0.7-1.9-1.1-2.8c-0.2-0.4-0.5-0.7-0.5-1.1
		c0.5,0,0.6,0.4,0.8,0.7C112.1,16.7,112.1,16.6,112.3,16.5z"/>
	<path class="st63" d="M112.4,21c-0.2-0.4-0.3-0.8-0.7-1c0.1-0.3-0.4-0.5,0-0.8c0.2-0.3,0.3-0.1,0.4,0.1c0.3,0.8,0.9,1.5,1.7,1.9
		c0.2,0.1,0.4,0.2,0.5,0.4c0.1,0.1,0.1,0.2,0.1,0.3c0.2,0.3,0.4,0.6,0.6,1c0.2,0.7,0.1,1.4,0.2,2.1c-0.1,0.3-0.2,0.6-0.5,0.8
		c-0.3,0-0.4-0.2-0.5-0.4c-0.2-0.6-0.3-1.1-0.2-1.7c0.3-0.1,0.3-0.1,0.6,0.3c0.1-1.3-0.9-1.9-1.8-2.5
		C112.6,21.3,112.5,21.2,112.4,21z"/>
	<path class="st64" d="M110.6,20.2c0,0.9,0.1,1.8,0.2,2.7c0.2,0.6,0.3,1.3,0.4,1.9c0.1,0.8,0.3,1.6,0.5,2.4c0,0.2-0.1,0.3-0.3,0.3
		c0,0,0-0.1,0-0.1c-0.3-0.4-0.3-0.9-0.4-1.4c-0.4-1.3-0.3-2.6-0.4-3.9c-0.1-1.1-0.2-2.1-0.4-3.1C110.6,19.2,110.4,19.8,110.6,20.2z"
		/>
	<path class="st52" d="M114.3,21.7c-0.8-0.5-1.7-0.9-2.1-1.8c-0.1-0.2-0.4-0.4-0.1-0.6c0.2,0.1,0.4,0.3,0.6,0.4
		c0.5,0.5,0.8,1.1,1.5,1.4C114.4,21.3,114.4,21.5,114.3,21.7z"/>
	<path class="st65" d="M112.3,16.5c0,0.2,0,0.3-0.1,0.5c-0.6-0.3-0.7-0.9-1.2-1.2c-0.1-0.4-0.6-0.7-0.3-1.1c0.5,0.4,0.9,0.8,1.2,1.3
		c0.1,0.1,0.2,0.2,0.3,0.3C112.2,16.3,112.3,16.4,112.3,16.5z"/>
	<path class="st66" d="M111.6,19.2c-0.1,0.3,0.3,0.5,0,0.8c-0.5-0.5-0.7-1.2-0.8-1.9c-0.1-0.5-0.2-0.9-0.3-1.4c0,0,0.1,0,0.1,0
		C111,17.6,111.3,18.4,111.6,19.2z"/>
	<path class="st67" d="M111.8,12.5c0,0.2,0,0.3,0,0.5c-0.3,0-0.4-0.4-0.7-0.5c-0.2-0.2-0.2-0.4-0.3-0.6c0-0.2-0.3-0.4,0-0.6
		c0.4-0.1,0.4,0.3,0.6,0.4C111.6,12,111.8,12.2,111.8,12.5z"/>
	<path class="st68" d="M112,15.9c-0.5-0.3-0.9-0.7-1.2-1.3c0-0.2-0.2-0.3,0-0.6C110.9,14.9,112,15,112,15.9z"/>
	<path class="st69" d="M113.7,25.5c-0.7-0.3-1.4-0.7-1.5-1.6c0.1,0.1,0.3,0.2,0.4,0.3C113,24.7,113.4,25.1,113.7,25.5z"/>
	<path class="st70" d="M111.7,23.8c-0.5-0.6-0.5-1.3-0.7-2c0-0.1,0.1-0.2,0.1-0.1C111.3,22.4,111.7,23.1,111.7,23.8z"/>
	<path class="st71" d="M112.7,15.9c0.4,0.1,0.7,0.4,0.6,0.8c-0.3-0.2-0.7-0.4-0.7-0.9C112.6,15.9,112.6,15.9,112.7,15.9z"/>
	<path class="st72" d="M109.7,7.2c0.3,0.3,0.7,0.6,1,0.9c0.2,0.1,0.3,0.2,0.3-0.1c0.1,0.2,0.3,0.5,0.4,0.7c0.2,0.4,0.6,0.6,0.9,0.9
		c0.3,0.4,0.5,0.8,0.5,1.4c0,0.4,0.1,0.6,0.3,0.9c0.1,0.3,0.3,0.6,0,0.8c-0.3-0.1-0.5-0.3-0.8-0.4c-0.4-0.6-0.9-1.2-1.1-2
		c0.4-0.4,0.1-0.7-0.1-1C110.6,8.8,110.1,8,109.7,7.2z"/>
	<path class="st73" d="M116.8,13.4c-0.8,1.5-1.7,3-1.9,4.7c-0.6-0.8-0.2-1.7-0.1-2.6c0-0.1,0-0.2,0.1-0.3c0.1-0.3,0.3-0.5,0.6-0.7
		c0.7-0.4,1-1,1.2-1.7C116.9,13,116.8,13.2,116.8,13.4z"/>
	<path class="st74" d="M114.3,21.7c0-0.2,0-0.4-0.1-0.6c-0.2-0.7-0.5-1.4-0.5-2.2c0-0.5-0.4-1-0.8-1.5c-0.2-0.2-0.3-0.4-0.4-0.7
		c0.1,0.1,0.3,0.2,0.4,0.3c0.6,0.5,1.2,1,1.2,1.8c0.1,0.8,0.3,1.6,0.4,2.4c-0.2,0.1-0.1,0.4-0.2,0.6
		C114.4,21.8,114.4,21.8,114.3,21.7z"/>
	<path class="st75" d="M114.2,18.9c-0.3-0.7-0.8-1.2-1.2-1.8c1.2,0.4,2.1,1.6,2.1,2.7c0,0.1,0,0.3-0.1,0.3c-0.2,0-0.2-0.1-0.3-0.2
		C114.5,19.5,114.5,19.1,114.2,18.9z"/>
	<path class="st76" d="M113.1,12.8c-0.5-1.2-0.3-2.7-1.4-3.7c-0.1-0.1-0.2-0.2-0.2-0.4c0.1,0.1,0.3,0.2,0.4,0.3
		c0.8,0.6,1.4,1.2,1.4,2.2c0,0.5-0.1,1,0.4,1.3c-0.1,0.1-0.1,0.3-0.2,0.4C113.4,13,113.2,13,113.1,12.8z"/>
	<path class="st77" d="M111.4,11.8c-0.2-0.1-0.4-0.3-0.6-0.4c-0.8-0.8-1-1.9-1.3-3c0.4,0.7,0.8,1.3,1.4,1.8
		C110.9,10.8,111.3,11.3,111.4,11.8z"/>
	<path class="st78" d="M112.5,13.1c0,0-0.1-0.1-0.1-0.1c0.7,0,1.1,0.4,1.5,0.8c0.4,0.5,0.6,1.1,0.5,1.8
		C113.8,14.7,113.4,13.7,112.5,13.1z"/>
	<path class="st79" d="M115.2,12.9c0.1-1,0.3-2.1,0.5-3.3C116.1,10.8,116,11.9,115.2,12.9z"/>
	<path class="st80" d="M111.3,10.4c0.5,0.6,0.9,1.2,1.1,2c-0.7-0.4-0.9-1.1-1.3-1.8C111,10.5,111.1,10.5,111.3,10.4
		C111.2,10.4,111.3,10.4,111.3,10.4z"/>
	<path class="st81" d="M102.9,77.2c0.2-0.7,0.5-1.3,0.7-2c0.5,0.5,0.6,1.3,0.9,2C104,77.2,103.5,77.2,102.9,77.2z"/>
	<path class="st82" d="M114.5,33.7c-0.1,0.2-0.2,0.4-0.4,0.6c-0.4,0-0.5-0.2-0.5-0.5c0-0.5-0.2-1.1-0.1-1.6c0.2-0.4,0.3,0,0.5,0.1
		c-0.1-1-0.4-1.7-1.3-2.1c-0.4-0.3-0.6-0.7-0.8-1.1c-0.2-0.3-0.3-0.6-0.1-1c0.2,0,0.3,0.1,0.4,0.3c0.2,0.6,0.7,0.9,1.2,1.2
		c0.3,0.1,0.4,0.6,0.9,0.4c0.1,0,0.1,0,0.2,0c-0.1,0.7,0.1,1.3,0.3,2C115.1,32.5,114.7,33.1,114.5,33.7z"/>
	<path class="st82" d="M113.8,37.9c-0.1,0.1-0.2,0.2-0.2,0.3c-0.6,0.3-0.7,0.2-0.8-0.3c-0.1-0.4-0.1-0.8,0-1.2
		c0.1-0.3,0.3-0.2,0.5,0c0.1-1.4-0.7-2.2-1.8-3c-0.3-0.2-0.4-0.5-0.6-0.7c-0.1-0.5-0.5-0.9-0.2-1.5c0.2,0.1,0.2,0.3,0.3,0.5
		c0.2,0.9,0.7,1.6,1.7,1.8c0.2,0,0.4,0.2,0.5,0.3c0.2,0.1,0.4,0.1,0.5,0.3c-0.4,0.5,0.2,1,0.1,1.5C113.9,36.6,113.9,37.2,113.8,37.9
		z"/>
	<path class="st83" d="M111.8,32.1c-0.7-0.5-0.9-1.3-1-2c-0.2-1.6-0.4-3.2-0.3-4.9c0.3,0.4,0.1,0.9,0.2,1.4c0.2,0.8,0.3,1.5,0.6,2.2
		C111.8,29.9,111.6,31,111.8,32.1z"/>
	<path class="st84" d="M113.8,34.4c-0.2-0.1-0.3-0.2-0.5-0.3c-0.1-0.7-0.4-1.3-0.2-2c0.2-0.8-0.5-1.6-0.9-2.4
		c-0.1-0.2-0.3-0.4-0.3-0.7c0.3,0.3,0.6,0.7,0.8,1c0.6,0.5,1.1,1.1,0.9,2c0.1,0.6,0.2,1.2,0.2,1.8c0,0.2,0.1,0.3,0.3,0.4
		C114,34.4,113.9,34.4,113.8,34.4z"/>
	<path class="st85" d="M114.2,29.9c0,0.2,0,0.3,0,0.5c-0.4-0.2-0.6-0.6-1-0.7c-0.3-0.5-1-0.8-1.2-1.4c-0.1-0.1-0.2-0.2-0.3-0.2
		c-0.1-0.2-0.4-0.3-0.3-0.6c0.1,0,0.2-0.1,0.2-0.1c0.4,0.1,0.6,0.4,0.7,0.7c0.4,0.4,0.6,1.1,1.2,1.4
		C113.8,29.5,114.1,29.6,114.2,29.9z"/>
	<path class="st84" d="M110.9,25.9c0.2,0.5,0.4,0.9,0.4,1.4C110.9,27,110.9,26.5,110.9,25.9z"/>
	<path class="st86" d="M113.3,11.3c-0.3-0.8-0.8-1.6-1.4-2.2c1.2,0.5,1.9,1.2,1.7,2.6C113.4,11.6,113.5,11.3,113.3,11.3z"/>
	<path class="st11" d="M116.8,16.1c-0.2-0.3-0.2-0.6,0.1-0.9C117,15.5,117,15.8,116.8,16.1z"/>
	<path class="st87" d="M114.5,33.7c0.1-0.6,0.1-1.2,0.1-1.8c0.1,0,0.3,0,0.3-0.2c0.2-1.3,1.1-2.2,2.1-3.1c0.5-0.4,0.8-0.8,1.3-1.3
		c-0.3,1.1-1.2,1.8-1.8,2.7c-0.4,0.6-0.6,1.3-1.1,1.8c-0.2,0.2-0.1,0.4,0.2,0.4c-0.1,0.1-0.1,0.3-0.1,0.4
		C115.2,32.9,114.8,33.3,114.5,33.7z"/>
	<path class="st88" d="M111.8,43.7c-0.1-0.6-0.3-1.1-0.4-1.8c0.4,0,0.3,0.4,0.6,0.5c0.1,0.2,0.2,0.5,0.3,0.7
		c0.1,0.6,0.2,1.1,0.1,1.7c-0.1,0.2-0.2,0.3-0.3,0.5C111.7,44.8,112.2,44.2,111.8,43.7z"/>
	<path class="st11" d="M118.9,24.8c0.3-0.2,0.1-0.5,0.2-0.7c0.2,0.5-0.2,1-0.2,1.5C118.9,25.4,118.9,25.1,118.9,24.8
		C118.9,24.8,118.9,24.8,118.9,24.8z"/>
	<path class="st89" d="M114.2,29.9c-0.2-0.1-0.4-0.3-0.6-0.4c0,0,0.1-0.1,0.1-0.1c-0.5-1.2,0-2.7-1.1-3.8c-0.2-0.2-0.3-0.4-0.3-0.6
		c1.1,1.2,1.8,2.6,1.9,4.2c0,0.2,0,0.4,0.3,0.5c0,0.1-0.1,0.1-0.1,0.2C114.3,29.9,114.2,29.9,114.2,29.9L114.2,29.9z"/>
	<path class="st90" d="M109.4,39c-0.1,0-0.1,0-0.2,0c-0.3-2-0.2-4,0-6C109.3,35,109.2,37,109.4,39z"/>
	<path class="st91" d="M110.7,31.5c0.1,0.5,0.2,1,0.3,1.5c0.3,0.7,0.9,1.2,1.1,1.9c0.2,0.6,0.5,1.2,0.2,1.8c-0.1,0.3,0,0.5,0.1,0.8
		c0.1,0.2,0.3,0.5,0.1,0.8c-0.9-0.4-1.7-0.7-2.1-1.6c-0.1-0.2-0.2-0.5-0.3-0.7c0.4,0.4,0.7,0.8,1.1,1.2c0,0,0,0,0.1,0
		c-0.1-0.3-0.3-0.6-0.4-0.8c0-1.4-0.2-2.7-0.6-4.1c-0.3-0.9-0.6-1.8-0.3-2.7C110.4,30.1,110.4,30.9,110.7,31.5z"/>
	<path class="st92" d="M114.2,23.5c0.1,0.6,0.2,1.2,0.3,1.8c0,0.2,0.1,0.4,0.3,0.5c0,0.1,0,0.1,0,0.2c0,0-0.1,0-0.1,0
		c-0.3,0.1-0.5,0-0.5-0.3c-0.3-0.8-0.8-1.5-0.6-2.4c0.1-0.4-0.3-0.9-0.6-1.3c-0.2-0.3-0.5-0.6-0.6-1c0.1,0.1,0.3,0.2,0.4,0.3
		c0.6,0.4,1,1,1.3,1.6C114.2,23.1,114.4,23.3,114.2,23.5z"/>
	<path class="st93" d="M112.7,38.3c-0.1-0.3-0.3-0.7-0.4-1c-0.1-0.3-0.1-0.5,0-0.8c0.3-0.7-0.2-1.4-0.5-2c-0.2-0.5-0.6-0.9-0.7-1.5
		c0.2,0.2,0.4,0.4,0.6,0.6c0.6,0.7,1,1.4,1.3,2.2c0.1,0.2,0.2,0.5,0,0.7c0,0.4,0,0.8,0,1.2c0,0.5,0.2,0.6,0.6,0.5
		c0,0.6-0.5,0.4-0.9,0.4C112.7,38.5,112.7,38.4,112.7,38.3z"/>
	<path class="st7" d="M112.4,28.1c-0.3-0.2-0.5-0.5-0.7-0.7c-0.5-1.5-0.6-3-0.8-4.5c0.4,0.5,0.3,1.3,0.7,1.8
		C112.2,25.7,112.2,26.9,112.4,28.1z"/>
	<path class="st69" d="M114.2,25.6c0.2,0.1,0.3,0.2,0.5,0.3c0,0.1,0,0.3,0,0.5c-0.4-0.4-0.6-0.7-0.9-1
		C113.9,25.5,114,25.6,114.2,25.6z"/>
	<path class="st94" d="M114.2,23.5c-0.2-0.9-0.9-1.5-1.4-2.2c1.3,0.4,2.3,2,1.9,3.2C114.4,24.3,114.5,23.8,114.2,23.5z"/>
	<path class="st95" d="M113.6,32c-0.2-0.7-0.6-1.3-0.9-2c1,0.2,1.4,1.1,1.5,2c0,0.2,0.1,0.5-0.1,0.8C113.7,32.6,113.8,32.2,113.6,32
		z"/>
	<path class="st96" d="M112,28.3c0.4,0.4,1,0.8,1.2,1.4c-0.5-0.3-1-0.6-1.3-1.1C111.8,28.4,111.9,28.3,112,28.3z"/>
	<path class="st78" d="M113,36.5c-0.2-1.1-0.9-2-1.3-3c1,0.7,1.9,1.5,1.9,2.8c0,0.3,0.1,0.5-0.2,0.8C113,37,113.3,36.6,113,36.5z"/>
</g>
</svg>
