<?xml version="1.0" encoding="utf-8"?>
<!-- Generator: Adobe Illustrator 23.0.1, SVG Export Plug-In . SVG Version: 6.00 Build 0)  -->
<svg version="1.1" id="Calque_1" xmlns="http://www.w3.org/2000/svg" xmlns:xlink="http://www.w3.org/1999/xlink" x="0px" y="0px"
	 viewBox="0 0 300 128" style="enable-background:new 0 0 300 128;" xml:space="preserve">
<style type="text/css">
	.st0{fill:#089447;}
	.st1{fill:#1A2955;}
	.st2{fill:#E01F26;}
	.st3{fill:#FFFFFF;}
	.st4{fill:#18793D;}
	.st5{clip-path:url(#SVGID_2_);}
	.st6{fill:#F6D277;}
	.st7{fill:#D98B33;}
	.st8{fill:#E6B555;}
	.st9{fill:#F4C768;}
	.st10{fill:#F5D06A;}
	.st11{fill:#D78935;}
	.st12{fill:#F7F8F7;}
	.st13{fill:#F9D66D;}
	.st14{fill:#E1AD4F;}
	.st15{fill:#F8D369;}
	.st16{fill:#F8D775;}
	.st17{fill:#F7D576;}
	.st18{fill:#E0A64C;}
	.st19{fill:#E6AE4A;}
	.st20{fill:#F7D97D;}
	.st21{fill:#ECCEA3;}
	.st22{fill:#CE7C29;}
	.st23{fill:#E9BB5C;}
	.st24{fill:#D48F37;}
	.st25{fill:#E1A449;}
	.st26{fill:#C87729;}
	.st27{fill:#E5AC4C;}
	.st28{fill:#F5CA6F;}
	.st29{fill:#F0E2CF;}
	.st30{fill:#D28F36;}
	.st31{fill:#F6D881;}
	.st32{fill:#CD7A29;}
	.st33{fill:#EDCFA3;}
	.st34{fill:#E6AA4F;}
	.st35{fill:#D8923D;}
	.st36{fill:#ECCEA5;}
	.st37{fill:#CA812A;}
	.st38{fill:#BF6928;}
	.st39{fill:#ECD0AF;}
	.st40{fill:#EAC99F;}
	.st41{fill:#EECFA4;}
	.st42{fill:#F1D4A9;}
	.st43{fill:#B75D27;}
	.st44{fill:#E8C294;}
	.st45{fill:#E5BB8C;}
	.st46{fill:#3DA860;}
	.st47{fill:#ECCDA2;}
	.st48{fill:#EDCC9B;}
	.st49{fill:#CA7729;}
	.st50{fill:#E6AD4D;}
	.st51{fill:#E2A74C;}
	.st52{fill:#CB7A29;}
	.st53{fill:#F7F6F4;}
	.st54{fill:#F7F8F6;}
	.st55{fill:#F8F6F1;}
	.st56{fill:#FCE47E;}
	.st57{fill:#E7B237;}
	.st58{fill:#EFB854;}
	.st59{fill:#F4EADA;}
	.st60{fill:#D78631;}
	.st61{fill:#D68A32;}
	.st62{fill:#FBE17D;}
	.st63{fill:#D68731;}
	.st64{fill:#FADA6E;}
	.st65{fill:#F5F0E8;}
	.st66{fill:#BA6328;}
	.st67{fill:#F5F0E7;}
	.st68{fill:#BF6A28;}
	.st69{fill:#F6F4EE;}
	.st70{fill:#F6EFDD;}
	.st71{fill:#F0E0D4;}
	.st72{fill:#F8F4E9;}
	.st73{fill:#D58A32;}
	.st74{fill:#CC7929;}
	.st75{fill:#ECAF4D;}
	.st76{fill:#FCF4A9;}
	.st77{fill:#ECB04D;}
	.st78{fill:#F8F5F0;}
	.st79{fill:#FDF4A2;}
	.st80{fill:#FCEBA0;}
	.st81{fill:#F7F3E9;}
	.st82{fill:#F2F4F2;}
	.st83{fill:#FADD74;}
	.st84{fill:#E8B542;}
	.st85{fill:#ECB357;}
	.st86{fill:#F7F3EA;}
	.st87{fill:#FCF3A5;}
	.st88{fill:#E3A84A;}
	.st89{fill:#FDEB98;}
	.st90{fill:#ECAF4C;}
	.st91{fill:#CD893A;}
	.st92{fill:#D78732;}
	.st93{fill:#ECAD4B;}
	.st94{fill:#EEB44F;}
	.st95{fill:#FCF1A4;}
	.st96{fill:#FCF6AF;}
	.st97{fill:#C17029;}
</style>
<g>
	<g>
		<g id="g10" transform="matrix(1.3333333,0,0,-1.3333333,0,510.71997)">
			<g id="g16" transform="matrix(0.23999999,0,0,-0.23999999,0,383.03998)">
				<g id="g42">
					<g>
						<g id="g44">
							<g id="g50" transform="matrix(1.1814847,0,0,1.1833069,-354.06363,143.04088)">
								<path id="path54" class="st0" d="M929.2-48.7v-12.8c0-0.2,0.1-0.3,0.3-0.3h1.3c0.2,0,0.4,0.1,0.4,0.4V-49
									c0,0.4,0.3,0.7,0.7,0.7c12.9,0.4,24.9,3.6,36,9.6c17,9.2,29.7,24.3,36.3,42.4c0.3,0.7,0.5,1.3,0.6,1.8
									c0.1,0.2-0.2,0.4-0.3,0.3l-73-45.5c-0.3-0.2-0.4-0.4-0.4-0.7v-7.3c0-0.3-0.2-0.5-0.5-0.5h-0.6c-0.3,0-0.6,0.3-0.6,0.6v7.1
									c0,0.2-0.1,0.4-0.2,0.4L855.3,6.4c-0.2,0.2-0.3,0.1-0.2-0.2c5.1-15.5,14.1-28.3,27-38.2c13.6-10.5,29.2-15.9,46.7-16.3
									C929-48.3,929.2-48.5,929.2-48.7L929.2-48.7z"/>
								<path id="path56" class="st1" d="M657,54.3C657,54.3,656.9,54.3,657,54.3l-0.1,103.9c0,0.2,0.1,0.3,0.3,0.3h27.9
									c0.1,0,0.1,0.1,0.1,0.1v4.2c0,0.1,0,0.2-0.1,0.2H584.7c-0.1,0-0.1,0-0.1-0.1v-4.2c0-0.1,0.1-0.1,0.1-0.1h27.7
									c0.1,0,0.2-0.1,0.2-0.2V-46.2c0-0.2-0.2-0.3-0.3-0.3h-27.6c-0.1,0-0.1,0-0.1-0.1v-4c0-0.1,0.1-0.2,0.2-0.2h179.8
									c0.2,0,0.3,0.1,0.3,0.3V0.1c0,0.3-0.1,0.4-0.4,0.4H761c-0.2,0-0.4-0.1-0.4-0.3c-2.8-7.2-6-13.7-9.4-19.6
									c-7.4-12.7-17.9-21.8-32.2-25.4c-4.9-1.3-10.8-1.7-16.4-1.7c-10.5,0-25.5,0-45.2,0c-0.3,0-0.4,0.1-0.4,0.4v95.7
									c0,0.2,0.2,0.4,0.4,0.4c2.2,0,7.1,0,14.8,0c0.4,0,2.5-0.1,6.4-0.2c13.9-0.5,25.8-6.9,32.6-19.4c1.6-3,2.8-5.3,3.5-7
									c2.3-5.9,4.1-11.9,5.3-17.8c0-0.2,0.2-0.4,0.5-0.4h3.3c0.2,0,0.4,0.2,0.4,0.4v92.8c0,0.2-0.1,0.3-0.3,0.3h-3.5
									c-0.2,0-0.3-0.1-0.4-0.3c-1.8-6.9-3.7-12.9-5.6-18c-2.3-6.2-6.2-12.5-11.1-16.9c-6.8-6.2-15-9.2-24.7-9.1
									C673.9,54.4,666.7,54.4,657,54.3L657,54.3z"/>
								<path id="path58" class="st1" d="M419.2,159.4c0.2,0,0.4-0.2,0.4-0.4V-44.7c0-0.1-0.1-0.2-0.2-0.2h-27.5
									c-0.1,0-0.2-0.1-0.2-0.2v-4.1c0-0.1,0-0.1,0.1-0.1c27,0,43.9,0,50.7,0c12.6,0,25.9-0.8,40-0.8c5.7,0,9.5-0.1,13.9,0.2
									c4.5,0.3,9.6,0.9,15.3,1.8c3,0.5,5.9,1.3,8.6,1.9c4.8,1.1,9.9,3.1,15.5,5.8c6.6,3.3,12.2,7.6,16.9,13.2
									c4.9,5.8,7.8,12.5,8.6,20.3c1,9.4-0.1,18.8-5.4,26.5C546.1,34,528.8,42.1,512.5,46c-3.9,0.9-7.9,1.8-11.9,2.5
									c-0.2,0-0.4,0.2-0.4,0.5c0,0.3,0.1,0.4,0.5,0.5c10.8,1,20.7,2.8,29.9,5.4c3.4,1,7.4,2.6,12,4.8c10,4.8,17.9,11.7,23.7,20.6
									c7.3,11.2,8,27.2,4.8,39.9c-1.3,5.1-3.6,9.9-6.9,14.2c-10.5,13.7-26.1,21.9-42.8,26c-9.8,2.4-19.8,3.6-30.2,3.7
									c-5.8,0.1-18,0-36.6-0.3c-13.3-0.2-30.2-0.1-62.8-0.1c-0.1,0-0.1-0.1-0.1-0.1v-4.1c0-0.1,0-0.1,0.1-0.1L419.2,159.4z"/>
								<path id="path60" class="st0" d="M828.9,163.8c0,0.2-0.1,0.3-0.3,0.3h-5.7c-0.2,0-0.3-0.1-0.3-0.3V-48.5
									c0-0.2,0.1-0.3,0.3-0.3h5.7c0.2,0,0.3,0.1,0.3,0.3V163.8z"/>
								<path id="path62" class="st2" d="M840.8,163.7c0,0.3-0.2,0.5-0.5,0.5h-5.2c-0.3,0-0.5-0.2-0.5-0.5v-212
									c0-0.3,0.2-0.5,0.5-0.5h5.2c0.3,0,0.5,0.2,0.5,0.5V163.7z"/>
								<path id="path64" class="st3" d="M463.7,47v-91.6c0-0.2,0.1-0.3,0.3-0.3c8.9-1.1,18.3-1.5,26.9,0.5
									c9.5,2.2,16.5,7.6,20,16.8c2.1,5.3,3.4,11,4,17.1c0.9,9.7,0.9,19.2,0,28.4c-0.5,5-1.9,9.7-4.1,14
									c-4.4,8.5-13.3,13.2-22.6,14.6c-7.9,1.2-15.4,1-24.1,0.8C463.8,47.2,463.7,47.1,463.7,47L463.7,47z"/>
								<path id="path66" class="st0" d="M889.4,9.9l-37.6,24.3c-0.2,0.2-0.4,0.1-0.4-0.2c-0.4-6.5,0.1-13,1.4-19.6
									c0.4-1.8,0.8-3.5,1.4-5.1c0.1-0.4,0.4-0.7,0.7-0.9L929-38.2c0.1-0.1,0.3,0,0.3,0.2v23.6c0,0.2-0.2,0.4-0.4,0.5
									c-3.4,0.1-7.3,0.5-10.8,1.4c-6.3,1.6-12,4.4-16.8,8.4c-0.8,0.7-2.4,2.3-4.8,4.7c-2.9,3-4.6,5.4-6.6,8.7
									C889.6,9.7,889.5,9.9,889.4,9.9L889.4,9.9z"/>
								<path id="path68" class="st0" d="M975.7,13c-1.6-1.2-3.2-2-4.6-3.4c-0.3-0.2-0.4-0.5-0.6-0.7c-3.7-6.2-8.6-11.2-14.8-15
									c-7.5-4.7-15.6-7.3-24.3-7.9c-0.3,0-0.4-0.2-0.4-0.5v-23.3c0-0.2,0.2-0.3,0.3-0.2c26.3,16.3,50.6,31.5,73,45.6
									c0.9,0.6,1.4,0.9,1.7,2c1.5,6.5,2.3,11.1,2.5,13.7c0.3,3.5,0.3,6.9,0.2,10.4c0,0.2-0.2,0.3-0.3,0.3
									c-0.4-0.1-0.7-0.2-1.1-0.4C996.8,26.7,986.2,19.8,975.7,13L975.7,13z"/>
								<path id="path74" class="st4" d="M929.3,9.2c-3.8,0.1-7.3,0.9-10.3,2.4c-15.2,7.8-17.3,28.3-4,38.9c4,3.2,8.8,4.9,14.3,4.9
									l0,22.8c0,0.2-0.2,0.4-0.4,0.4c-5.5,0.1-10.9-0.9-16-2.9c-2.2-0.9-4.4-1.8-6.4-2.7c-1.4-1.2-2.8-2.2-4.3-3.1
									c-1.2-0.7-2.2-1.4-3-2.1c-0.9-0.8-1.8-1.6-2.7-2.4c-1.2-1-3.2-3.6-6.1-7.9c-12.1-19.4-8.7-43.4,7.4-59.3
									c1.4-1.4,3.7-3.1,6.7-5.1c0.8-0.5,1.9-1.1,3.1-1.6c1.3-0.5,2.8-1.5,4.2-2c5.5-2.1,11.1-3.3,16.8-3.5c0.4,0,0.7,0.3,0.7,0.7
									L929.3,9.2L929.3,9.2z"/>
								<path id="path78" class="st0" d="M883.4,38.6L855.8,56c-0.1,0.1-0.3,0-0.3-0.1c-2.1-6.2-3.4-12.5-3.9-19
									c0-0.4,0.2-0.9,0.5-1.1c15.5-9.9,27-17.3,34.6-22.1c0.8-0.5,1.6-1.6,2.2-3.2c0-0.1,0.1-0.1,0.2-0.1h0.2c0.1,0,0.1,0,0.1,0.2
									c-0.7,1.6-1.7,3.1-2.2,4.5c-4.2,10.5-4.7,22.3-0.5,32.9c0.2,0.6,0.2,1.4,0.4,2c2,4.2,3.3,6.7,3.9,7.4
									c0.6,0.7,1.2,1.5,1.7,2.3c1.4,2.2,2.6,3.5,4.5,5.6c2.8,3.1,6.3,5.8,10.3,7.9c0.2,0.1,0.2,0.4,0,0.6
									c-15.9,10.1-26.2,16.6-30.9,19.5c0,0-0.3,0.2-0.7,0.6c-0.2,0.2-0.5,0.3-0.8,0.1c-0.2-0.1-0.4-0.2-0.5-0.5
									c-3.4-5-6.6-10.2-9.4-15.5c-0.1-0.2,0-0.5,0.2-0.6l26.7-16.8c0.3-0.2,0.4-0.5,0.2-0.8l-0.2-0.3c-0.2-0.3-0.5-0.4-0.8-0.2
									L864.4,76c-0.1,0.1-0.3,0-0.3-0.1c-3.1-6-6.2-12.1-8-18.3c-0.1-0.2,0-0.3,0.2-0.4c0.6-0.3,1.2-0.5,1.8-0.9
									c8.1-5.1,16.5-10.4,25.3-15.8c0.2-0.1,0.3-0.3,0.3-0.6v-1.1C883.8,38.5,883.6,38.5,883.4,38.6L883.4,38.6z"/>
								<path id="path80" class="st2" d="M929.3,9.2c8.4,0.3,14.9,3.9,19.6,10.8c0,0.1,0,0.1,0,0.2l0,0c0,0-0.1,0-0.2,0
									c-5.2-5.5-11.6-7.3-19.1-5.5c-0.1,0-0.1,0.1-0.2,0.1c-0.1,0.1-0.1,0.1-0.1,0.2c-0.3-0.2-0.5-0.2-0.7,0
									c-16.4,6.1-16.2,28.9,0.3,35c0.1,0,0.2,0,0.3,0l0.1-0.1c0,0.1,0,0.1,0,0.2c0,0.1,0.1,0.1,0.2,0.1c7.5,1.9,13.9,0.1,19.2-5.4
									c0.1-0.1,0.1-0.1,0.1,0l0,0c0,0.1,0,0.1,0,0.1c-4.2,6.3-10.2,9.8-17.8,10.6c-0.6,0.1-1.2,0.1-1.8,0.1
									c-5.5-0.1-10.3-1.7-14.3-4.9c-13.3-10.7-11.2-31.2,4-38.9C922,10.1,925.5,9.3,929.3,9.2L929.3,9.2L929.3,9.2z"/>
								<path id="path82" class="st0" d="M976.1,15.1c10.6,6.8,21.1,13.6,31.7,20.4c0.6,0.4,0.8,0.8,0.8,1.3
									c-0.6,6.4-1.9,12.7-3.9,18.8c-0.1,0.2-0.3,0.2-0.4,0.2L981,41.2l-4.1-3.1c-0.1-0.1-0.2-0.3-0.2-0.4c0.7-7.7-0.3-15-2.9-22.2
									c-0.2-0.6-0.6-1.1-0.7-1.6c-0.2-0.8,0-0.9,0.5-0.3C974.2,14.1,975,14.6,976.1,15.1L976.1,15.1z"/>
								<path id="path84" class="st4" d="M929.3,14.9v34.8l-0.1,0.1c-0.1,0.1-0.2,0.1-0.3,0c-16.4-6.1-16.7-28.8-0.3-35
									C928.8,14.7,929,14.7,929.3,14.9L929.3,14.9L929.3,14.9z"/>
								<path id="path86" class="st2" d="M942.4,29.8l7.1,2.4c0.2,0.1,0.2,0.4,0,0.4l-7.1,2.4c-0.1,0-0.2,0.1-0.2,0.2l0,7.6
									c0,0.2-0.3,0.3-0.4,0.1l-4.4-6.1c-0.1-0.1-0.2-0.1-0.3-0.1L930,39c-0.2,0.1-0.4-0.2-0.3-0.4l4.4-6.1c0.1-0.1,0.1-0.2,0-0.3
									l-4.4-6.1c-0.1-0.2,0-0.4,0.3-0.4l7.1,2.3c0.1,0,0.2,0,0.3-0.1l4.4-6.1c0.1-0.2,0.4-0.1,0.4,0.1l0,7.6
									C942.2,29.6,942.3,29.7,942.4,29.8L942.4,29.8z"/>
								<path id="path88" class="st0" d="M980.4,42.8l23.5,14.6c0.2,0.1,0.2,0.3,0.2,0.5c-2.3,6.2-5,12.2-8.1,18
									c-0.1,0.2-0.2,0.2-0.4,0.1l-26.4-16.8c-0.1-0.1-0.2-0.3-0.2-0.5c0-0.2,0-0.3,0.2-0.5c2.2-3.5,4.1-7.1,5.5-10.9
									c0.8-2,1-3.4,1.5-6c0.1-0.4,0.6-0.6,0.9-0.4L980.4,42.8z"/>
								<path id="path90" class="st3" d="M502.1,56c13,7.8,19.2,21.2,20.4,36.2c0.7,8.6,0.6,16.6,0,25.1c-0.5,7.8-2.1,15.8-5.2,23.1
									c-3.7,8.9-10.4,15.5-19.9,17.9c-3.9,1-7.3,1.5-10.3,1.7c-7.3,0.3-14.9,0.2-22.9-0.5c-0.4,0-0.6-0.2-0.6-0.6V52
									c0-0.2,0.1-0.2,0.2-0.2c12.2-0.1,19.5-0.1,21.8,0c2.5,0.1,5.5,0.6,9.1,1.6C497.9,54,500.3,55,502.1,56L502.1,56z"/>
								<path id="path92" class="st0" d="M969.6,61.2l25.1,15.9c0.2,0.2,0.3,0.5,0.2,0.7c-2.9,5.3-6.1,10.5-9.5,15.5
									c-0.2,0.2-0.5,0.3-0.8,0.2l-31.9-19.9c-0.4-0.2-0.8-0.2-1.2,0l-0.5,0.3c-0.2,0.1-0.2,0.3,0,0.4l32.4,20.2
									c0.6,0.4,0.6,0.8,0.2,1.3l-11.5,14.9c-0.1,0.2-0.3,0.2-0.5,0.1l-40.3-25.7c-0.3-0.2-0.5-0.5-0.5-0.8V79
									c0-0.2,0.2-0.4,0.4-0.4c6.7-0.2,13-1.7,18.8-4.7c0.8-0.4,1.2-0.6,1.5-0.7c1.9-0.8,3.7-1.7,5.3-2.8c4.1-2.7,7.6-6,10.5-9.9
									c0.2-0.2,0.4-0.3,0.6-0.1L969.6,61.2z"/>
								<path id="path96" class="st0" d="M889.6,110.3c-0.5,0.3-0.8,0.8-1.1,0.9c-0.2,0.1-0.4,0.1-0.5,0l-11.9-15.7
									c-0.1-0.1-0.1-0.3,0.1-0.4c4.5-2.9,15.4-9.7,32.5-20.5c0.5-0.3,1-0.4,1.5-0.2c3.8,1.7,7.2,2.9,10.3,3.4
									c2.2,0.4,4.9,0.7,8.2,0.8c0.3,0,0.5,0.3,0.5,0.6v5.2c0,0.2-0.1,0.4-0.3,0.5C906.5,99.5,893.3,107.9,889.6,110.3L889.6,110.3
									L889.6,110.3z"/>
								<path id="path98" class="st0" d="M901.2,128.2l-12-15.4c-0.1-0.1-0.1-0.3,0.1-0.4l39.7-25.4c0.2-0.1,0.4,0,0.4,0.2v22.6
									c0,0.1,0,0.2-0.1,0.2l-27.7,18.2C901.4,128.3,901.2,128.3,901.2,128.2L901.2,128.2z"/>
								<path id="path100" class="st0" d="M970.9,112.6l-11.8,15.2c-0.1,0.2-0.4,0.2-0.6,0.1l-27.4-18c-0.1-0.1-0.2-0.2-0.2-0.4
									V87.4c0-0.3,0.4-0.5,0.6-0.4l39.2,25C971,112.1,971.1,112.4,970.9,112.6L970.9,112.6z"/>
								<path id="path102" class="st0" d="M903,129.1c5.7-3.7,14.3-9.4,25.9-17.1c0.2-0.1,0.4,0,0.4,0.2v22.1c0,0.3-0.2,0.6-0.4,0.8
									l-14.6,9.8c-0.1,0.1-0.2,0.1-0.3,0l-11.9-15.3c-0.1-0.1,0-0.3,0.1-0.4c0,0,0.2,0,0.3-0.1C902.8,129.2,902.9,129.1,903,129.1
									z"/>
								<path id="path104" class="st0" d="M957.8,129.6l-11.5,14.9c-0.1,0.1-0.3,0.2-0.4,0.1l-14.7-9.6c-0.1-0.1-0.1-0.2-0.1-0.3
									v-22.4c0-0.3,0.3-0.4,0.5-0.3l26.2,17.2C957.9,129.3,957.9,129.5,957.8,129.6L957.8,129.6z"/>
								<path id="path106" class="st0" d="M931,163.2v-25.8c0-0.3,0.3-0.5,0.6-0.3l13.3,8.7c0.2,0.1,0.2,0.4,0.1,0.5l-13.3,17.1
									C931.4,163.7,931,163.5,931,163.2L931,163.2z"/>
								<path id="path108" class="st0" d="M928.8,163.8l-13.5-17.4c-0.1-0.1-0.1-0.4,0.1-0.5l13.5-8.9c0.2-0.1,0.5,0,0.5,0.3v26.3
									C929.3,163.9,929,164,928.8,163.8z"/>
								<path id="path110" class="st0" d="M704.8,207.2c-0.2,0.4-0.4,0.8-0.5,1.3c0,0.2-0.2,0.3-0.4,0.3h-0.2
									c-0.2,0-0.3-0.1-0.3-0.3v-10.8c0-0.2,0.1-0.2,0.2-0.2h0.4c0.2,0,0.4,0.1,0.4,0.4c0.4,5.3,2.3,10.9,8.7,10
									c4.1-0.6,5.1-5,2.9-8.1c-0.7-1-1.7-1.9-3-2.8c-4.6-3.1-9.7-5.6-9.6-11.3c0.1-6.6,7.6-8.2,12.7-7c1.2,0.3,2.8,1.3,4,1.8
									c0.2,0.1,0.4,0,0.5-0.1c0.3-0.3,0.5-0.8,0.6-1.4c0-0.2,0.2-0.4,0.4-0.4h0.2c0.3,0,0.4,0.1,0.4,0.4l-0.2,8.9
									c0,0.2-0.1,0.3-0.3,0.3h-0.2c-0.3,0-0.5-0.2-0.5-0.5c-0.3-3.7-2.3-7.9-6.4-8.4c-4.3-0.6-6.8,3.7-4.3,7.2
									c0.6,0.9,1.5,1.7,2.7,2.5c3.2,2.1,5.5,3.7,6.8,4.7c5.5,4.1,5.6,11.7-1.3,14.5c-4,1.6-9.2,1.1-12.9-1.2
									C705.4,206.8,705,206.9,704.8,207.2L704.8,207.2z"/>
								<path id="path112" class="st0" d="M482.2,197.3c-0.1,0-0.2,0.1-0.2,0.1c-1,2.4-1.7,4.4-2.1,6.1c-0.6,2.7,0.5,4,3.3,4.1
									c0.2,0,0.3,0.2,0.3,0.3v0.2c0,0.2-0.1,0.3-0.3,0.3l-7.7,0c-0.3,0-0.5-0.1-0.5-0.1c0,0,0-0.1,0-0.2c0-0.1,0.1-0.3,0.2-0.3
									c1.4-0.7,2.5-2.2,3.3-4.3c1.3-3.3,4.5-11.5,9.5-24.4c0.1-0.2,0.2-0.3,0.4-0.3h2.3c0.2,0,0.4,0.1,0.4,0.3
									c6,15.6,9.5,24.5,10.4,26.6c0.3,0.6,0.5,1,0.7,1.2c0.7,0.6,1.3,0.8,2,0.5c1.2-0.5,1.1-2.1,1.1-3.3c0-7.8,0-15.1,0-22
									c0-2.1-1.4-2-3-2.4c-0.1,0-0.2-0.1-0.2-0.2v-0.2c0-0.2,0.1-0.3,0.3-0.3h12.6c0.2,0,0.3,0.1,0.3,0.3v0.2
									c0,0.2-0.1,0.3-0.3,0.3c-3.5-0.3-3.1,2.2-3.1,4.9c0,7.4,0,14.4,0,20.9c0,1.2,0.6,1.9,1.8,1.9c1.7,0.1,3.7,0.2,5.1-0.5
									c3.1-1.4,4.8-5.4,5.2-8.5c0-0.2,0.2-0.3,0.4-0.3h0.3c0.2,0,0.3,0.1,0.3,0.3v9.8c0,0.1,0,0.1-0.1,0.1h-33.9
									c-0.2,0-0.3-0.2-0.3-0.3v-0.2c0-0.1,0.1-0.2,0.2-0.2c1.4-0.1,3.3-0.3,2.7-2.2c-0.5-1.5-1.4-4.1-2.9-8c0-0.1-0.2-0.2-0.3-0.2
									L482.2,197.3z"/>
								<path id="path114" class="st0" d="M677.7,194.4c2.3,0.3,4.6,0.8,6.1,2.6c0.5,0.6,1,1.9,1.5,3.9c0.6,2.4,1.1,8.5,4.2,5.4
									c0.2-0.2,0.4-0.2,0.5,0.1l0.1,0.1c0.1,0.1,0.1,0.2,0,0.4c-1.9,1.9-4.3,2.6-7.3,2c-2-0.4-3.2-1.6-3.6-3.4
									c0-0.1-0.5-2.5-1.4-7.2c-0.2-1.1-0.6-2.1-1.3-2.9c-0.8-1.2-3.1-1-4.6-0.9c-0.2,0-0.3,0.1-0.3,0.3c0,2.9,0,5.7,0,8.5
									c0,2.4-0.3,4.5,2.8,4.4c0.2,0,0.4,0.2,0.4,0.4l0,0.2c0,0.1-0.1,0.2-0.3,0.2h-12.3c-0.1,0-0.3,0-0.4-0.1
									c-0.1-0.1-0.3-0.1-0.4,0c-0.1,0.1-0.2,0.1-0.3,0.1h-23.5c-0.1,0-0.3-0.1-0.3-0.3V208c0-0.1,0.1-0.2,0.2-0.2
									c1.4-0.1,3.3-0.4,2.7-2.2c-0.6-1.8-1.5-4.4-2.9-8c-0.1-0.2-0.2-0.3-0.4-0.3h-8.5c-0.2,0-0.3,0.1-0.4,0.3
									c-1,2.4-1.7,4.5-2.1,6.3c-0.6,2.8,1,3.6,3.5,3.8c0.1,0,0.2,0.2,0.2,0.3l-0.1,0.3c0,0.1-0.1,0.2-0.2,0.2h-39.8
									c-0.2,0-0.3-0.1-0.3-0.3v-0.2c0-0.1,0.1-0.2,0.2-0.2c1.3-0.1,3.3-0.3,2.8-2.1c-0.2-0.9-1.2-3.6-2.9-8.1
									c-0.1-0.2-0.2-0.3-0.4-0.3h-8.5c-0.2,0-0.3,0.1-0.4,0.3c-1.2,3-1.9,5.1-2.1,6.5c-0.4,2.9,1.2,3.3,3.5,3.6
									c0.2,0,0.2,0.1,0.2,0.3l-0.1,0.2c0,0.2-0.1,0.3-0.3,0.3c-1.2-0.1-3.8-0.1-7.7-0.1c-0.2,0-0.3,0-0.4-0.1
									c-0.1-0.1-0.1-0.4,0.1-0.5c1.5-0.7,2.5-1.9,3.2-3.6c2-5.1,5.3-13.5,9.8-25.2c0.1-0.2,0.2-0.2,0.4-0.2h2.4
									c0.2,0,0.3,0.1,0.4,0.2c5.2,13.4,8.7,22.3,10.4,26.8c0.2,0.5,0.6,0.9,1.1,1.2c0.2,0.1,0.3,0.1,0.4-0.1l13.8-26.8
									c0.1-0.1,0-0.3-0.2-0.3c-4.6-0.2-9.3-0.4-11.5,4.4c-0.4,1-0.8,2.3-1,3.9c0,0.2-0.2,0.4-0.5,0.3l-0.3-0.1
									c-0.1,0-0.2-0.1-0.2-0.2v-9.1c0-0.1,0-0.1,0.1-0.1h20.5c0.6,0,0.8,0.3,0.5,0.8l-14.2,27.5c-0.1,0.1,0,0.2,0.1,0.2
									c4.1,0,7.5,0.4,10.3-2.6c1.5-1.6,2.4-3.7,2.5-6.1c0-0.2,0.2-0.4,0.4-0.4h0.2c0.2,0,0.4,0.1,0.4,0.4v8c0,0.2,0.3,0.3,0.4,0.1
									c0.9-1.1,1.7-2.4,2.3-4c4.2-11,7.3-18.9,9.3-23.9c0.1-0.1,0.2-0.2,0.3-0.2h2.4c0.2,0,0.3,0.1,0.4,0.3
									c6,15.7,9.5,24.6,10.4,26.6c0.2,0.5,0.4,0.9,0.6,1.1c1.1,1.3,2.8,0.9,3.2-0.7c0.1-0.4,0.1-1,0.1-1.8c0-9.7,0-17.1,0-22.2
									c0-2-1.4-2.2-3-2.4c-0.1,0-0.2-0.1-0.2-0.3l0-0.2c0-0.2,0.1-0.2,0.3-0.2H661c0.1,0,0.2,0,0.4,0.1c0.2,0.1,0.3,0.1,0.5,0
									c0.1-0.1,0.3-0.1,0.4-0.1c2.3,0,7.1,0,14.5,0c2.4,0,6.4,1,8.1,3c2.3,2.7,1.9,6.5-0.2,9.1c-1.8,2.2-4.1,2.6-6.9,3.2
									C677.3,194.3,677.3,194.3,677.7,194.4L677.7,194.4z"/>
								<path id="path116" class="st0" d="M430.3,192.9c1.2,0.2,2.4,0.4,3.5,0.6c4,0.8,7.4,4,6.5,8.6c-1.1,5.2-6.9,6.5-11.6,6.4
									c-4.1-0.1-8.6-0.1-13.4-0.1c-0.2,0-0.3-0.1-0.3-0.3v-0.2c0-0.1,0.1-0.2,0.2-0.2c1.8-0.2,3-0.4,3-2.6c0-8.6,0-16,0-22.4
									c0-1.2-0.2-2-0.7-2.4c-0.2-0.2-0.4-0.3-0.5-0.3l-2-0.4c-0.1,0-0.2-0.1-0.1-0.2l0-0.2c0-0.2,0.1-0.2,0.3-0.2
									c3.9,0,8.6,0,13.8,0c3.8,0,8.4,1.4,9.2,5.5c0.9,4.8-4.1,7.5-7.9,8.3C429.9,192.8,429.9,192.9,430.3,192.9L430.3,192.9z"/>
								<path id="path118" class="st0" d="M450.4,194.2c-0.1,0-0.2,0.1-0.2,0.2c0,3.5,0,7,0,10.5c0,2.5,2.1,2.6,4.2,2.7
									c0.2,0,0.3,0.2,0.3,0.3v0.2c0,0.2-0.1,0.3-0.3,0.3h-13.7c-0.2,0-0.3-0.1-0.3-0.3v-0.2c0-0.2,0.1-0.3,0.3-0.3
									c3.2,0.2,2.8-2.2,2.9-4.7c0-3.6,0-10.5,0-20.7c0-2-1.3-2.3-3-2.5c-0.1,0-0.2-0.1-0.2-0.2v-0.2c0-0.2,0.1-0.3,0.3-0.3h21.9
									c0.1,0,0.2,0.1,0.2,0.2l-0.2,9.1c0,0.2-0.1,0.3-0.3,0.3l-0.2,0c-0.2-0.1-0.4-0.2-0.4-0.5c-0.9-5.8-3.3-8.8-9.7-8.1
									c-1.9,0.2-1.7,1.6-1.7,3.4c0,1.8,0,5.1,0,9.7c0,0.2,0.1,0.3,0.3,0.3c3.7,0.6,5.5-2,6.1-5.2c0-0.2,0.2-0.3,0.4-0.3h0.3
									c0.2,0,0.3,0.1,0.3,0.3v11.5c0,0.1-0.1,0.2-0.2,0.2h-0.2c-0.2,0-0.5-0.2-0.5-0.4C456.1,195.6,454.1,193.9,450.4,194.2
									L450.4,194.2z"/>
								<path id="path120" class="st0" d="M532.7,207.7c1.7-0.1,3-0.5,3-2.5c0-5.7,0-13,0-21.9c0-2.5-0.1-3.4-3.1-3.6
									c-0.1,0-0.2-0.1-0.2-0.2v-0.3c0-0.1,0.1-0.3,0.3-0.3c4.5,0,9.1,0,13.7,0c2.9,0,5.6,0.5,8.1,1.6c6.1,2.6,8.1,9.4,7.1,15.7
									c-1.3,8.1-8,12.4-15.9,12.4c-5.4,0-9.7,0-12.9,0c-0.2,0-0.4-0.1-0.4-0.4v-0.2C532.5,207.8,532.5,207.7,532.7,207.7
									L532.7,207.7z"/>
								<path id="path122" class="st0" d="M575,179.7c-2.6-0.2-2.9,1.2-2.9,3.6c0,6.9,0,13.8,0,20.6c0,2.1-0.3,5.3-1.4,7.4
									c-2,3.6-6.2,5.2-10.3,5c-0.2,0-0.3-0.1-0.3-0.3c0-0.3,0.1-0.4,0.4-0.5c4.8-0.8,4.9-5.7,4.9-9.6c0-8.2,0-16.2,0-24
									c0-2-1.5-2.1-3-2.4c-0.1,0-0.2-0.1-0.2-0.2v-0.2c0-0.2,0.1-0.3,0.3-0.3h12.4c0.2,0,0.4,0.1,0.4,0.4v0.2
									C575.2,179.7,575.1,179.7,575,179.7L575,179.7z"/>
								<path id="path124" class="st3" d="M664.9,205.4c0,1.3-1.1,2.4-2.4,2.4h-1.8c-1.3,0-2.4-1.1-2.4-2.4V182
									c0-1.3,1.1-2.4,2.4-2.4h1.8c1.3,0,2.4,1.1,2.4,2.4V205.4z"/>
								<path id="path126" class="st3" d="M424.7,192.6c0-5,0-8.6,0-10.6c0-1.2,0.6-2.1,1.9-2.2c2.4-0.2,3.8,0.8,4.4,3.1
									c0.7,2.7,0.6,7.1-1.7,9.1C428.3,192.9,426.1,192.9,424.7,192.6C424.8,192.7,424.7,192.7,424.7,192.6L424.7,192.6z"/>
								<path id="path128" class="st3" d="M542.4,182.1c0-1.4,1.1-2.5,2.5-2.5h1.4c4.7,0,8.5,4.8,8.5,10.8l0,6.7
									c0,5.9-3.8,10.8-8.5,10.8h-1.4c-1.4,0-2.5-1.1-2.5-2.5L542.4,182.1z"/>
								<path id="path130" class="st3" d="M671.9,193.6c-0.2,0-0.3-0.2-0.3-0.3c0-5.2,0-8.9,0-11.1c0-2.8,2.1-2.8,4.2-2.3
									c3.9,0.9,3.9,6.5,3.3,9.6C678.2,193.4,675.3,193.6,671.9,193.6L671.9,193.6z"/>
								<path id="path132" class="st0" d="M735,198.5c-0.1,2.6-0.1,5.1,0.1,7.4c0.1,1.8,2.2,1.9,3.6,1.9c0.1,0,0.2,0.1,0.2,0.2v0.2
									c0,0.2-0.1,0.3-0.3,0.3h-11.8c-0.2,0-0.3-0.1-0.3-0.3V208c0-0.2,0.1-0.2,0.3-0.2c1.6,0.1,2.5-0.8,2.5-2.7
									c0-11.3,0-17.7,0-19.3c0-1.8-1.1-2-2.5-2.2c-0.1,0-0.2-0.1-0.2-0.2v-0.2c0-0.1,0.1-0.2,0.2-0.2c1.6,0,5.6,0,11.9,0
									c2.5,0,4.6,0.6,6.3,1.8c2.9,1.9,3.5,5.7,2,8.7c-2.2,4.5-7.4,4.7-11.6,4.8C735.1,198.2,735,198.3,735,198.5L735,198.5z"/>
								<path id="path134" class="st3" d="M735,184.6c0-0.6,0.5-1,1-1l1,0c2.5,0,4.6,2.4,4.6,5.3l0,3.4c0,2.9-2.1,5.2-4.6,5.2l-1,0
									c-0.6,0-1-0.5-1-1L735,184.6z"/>
								<path id="path136" class="st3" d="M482.4,196.2l4.1-10.6c0.1-0.1,0.3-0.1,0.3,0l3.9,10.7c0,0.1,0,0.2-0.2,0.2l-8-0.1
									C482.4,196.4,482.4,196.3,482.4,196.2L482.4,196.2z"/>
								<path id="path138" class="st3" d="M580.5,196.2l4.1-10.6c0.1-0.1,0.3-0.1,0.3,0l3.9,10.7c0,0.1,0,0.2-0.2,0.2l-8-0.1
									C580.5,196.4,580.4,196.3,580.5,196.2z"/>
								<path id="path140" class="st3" d="M628.5,196.2l4.1-10.6c0.1-0.1,0.3-0.1,0.3,0l3.9,10.7c0,0.1,0,0.2-0.2,0.2l-8-0.1
									C628.5,196.4,628.5,196.3,628.5,196.2L628.5,196.2z"/>
								<path id="path142" class="st0" d="M750.2,199.9c-1,2.3-3.5,7.5,0.9,7.4c0.1,0,0.3,0.1,0.3,0.3v0.2c0,0.1-0.1,0.2-0.2,0.2
									h-5.8c-0.1,0-0.2-0.1-0.3-0.2c0-0.1,0-0.1,0-0.2s0-0.1,0.1-0.1c1.1-0.5,1.9-1.4,2.5-2.9c2.1-5.3,4.5-11.4,7.2-18.5
									c0.1-0.2,0.2-0.2,0.4-0.2h1.6c0.2,0,0.3,0.1,0.4,0.3c2.9,7.6,5.5,14.2,7.7,19.9c0.2,0.5,0.7,0.9,1.6,1.4
									c0.2,0.1,0.2,0.2,0.1,0.4c0,0-0.1,0.1-0.1,0.1c-0.1,0-0.1,0.1-0.2,0.1c-3-0.1-6-0.1-9,0c-0.1,0-0.2-0.1-0.2-0.2v-0.2
									c0-0.1,0.1-0.2,0.2-0.2c1.5,0,2.2-0.5,2-1.4c-0.1-0.6-0.8-2.6-2.2-6c-0.1-0.2-0.2-0.3-0.4-0.3h-6.2
									C750.4,199.6,750.3,199.7,750.2,199.9L750.2,199.9L750.2,199.9z"/>
								<path id="path144" class="st3" d="M750.6,198.7l3-7.7c0.1-0.2,0.3-0.2,0.4,0l2.8,7.7c0,0.1,0,0.3-0.2,0.3l-5.8,0
									C750.7,199,750.6,198.8,750.6,198.7L750.6,198.7z"/>
								<path id="path146" class="st3" d="M424.9,193.5c4.5,0,8.1,0.6,8.5,6c0.3,4.4-1.2,8.2-6.3,8.1c-1.6,0-2.4-0.8-2.4-2.4
									c0-2.3,0-6.2,0-11.5C424.7,193.5,424.8,193.5,424.9,193.5z"/>
							</g>
						</g>
					</g>
				</g>
				<g id="g148">
					<g>
						<defs>
							<rect id="SVGID_1_" x="564.9" y="120.9" width="25.4" height="106.3"/>
						</defs>
						<clipPath id="SVGID_2_">
							<use xlink:href="#SVGID_1_"  style="overflow:visible;"/>
						</clipPath>
						<g id="g156" transform="matrix(146.875,0,0,-615.62506,953.39319,995.26605)" class="st5">
							<defs>
								<filter id="Adobe_OpacityMaskFilter" filterUnits="userSpaceOnUse" x="-2.8" y="-1.6" width="0.5" height="0.5">
									<feColorMatrix  type="matrix" values="1 0 0 0 0  0 1 0 0 0  0 0 1 0 0  0 0 0 1 0"/>
								</filter>
							</defs>
							<mask maskUnits="userSpaceOnUse" x="-2.8" y="-1.6" width="0.5" height="0.5" id="mask158_1_">
								
									<image style="overflow:visible;filter:url(#Adobe_OpacityMaskFilter);enable-background:new    ;" width="285" height="1200" id="image160_1_" xlink:href="D235308B.jpg"  transform="matrix(4.028127e-05 0 0 -2.282435e-06 -6.3312 1.9365)">
								</image>
							</mask>
							
								<g transform="matrix(1.893220e-03 0 0 -4.496397e-04 -2.8288 1.6037)" style="mask:url(#mask158_1_);enable-background:new    ;">
								
									<image style="overflow:visible;" width="285" height="1200" id="image162_1_" xlink:href="D2353089.png"  transform="matrix(1.893220e-03 0 0 -4.496397e-04 -2.8288 1.6037)">
								</image>
							</g>
						</g>
					</g>
				</g>
			</g>
		</g>
	</g>
	<g>
		<path class="st6" d="M193.7,49.5c-0.1,0.7-0.2,1.5-0.2,2.2c0.3,0,0.1-0.4,0.5-0.5c-0.3,1.5-0.6,3-1,4.5c0,0,0.1,0,0.1,0
			c0.1-0.3,0.3-0.7,0.4-1c0.1,0,0.1,0,0.2,0c-0.4,1.4-0.8,2.8-1.2,4.1c-0.8,3-1.6,6-2.5,8.9c-0.2,0.8-0.4,1.6-1.1,2.1
			c-0.4,0-0.5,0.3-0.6,0.5c-0.7,1-1.8,1.5-2.9,2c-0.2,0.1-0.5,0.2-0.7-0.1c-0.1-0.2,0.1-0.4,0.2-0.6c0.6-1.2,1.6-2.1,2.6-3.1
			c0.7-0.7,1.4-1.3,2-2.1c0.2-0.3,0.3-0.6,0.5-0.9c0.1-0.3,0.1-0.6,0.3-0.8c-0.7,0.8-1.5,1.4-2.3,2c-0.1,0.1-0.6,0-0.2,0.4
			c-0.2,0.3-0.5,0.3-0.9,0.4c-1-0.3-1.1-0.5-0.7-1.4c0.7-1.4,1.9-2.4,3-3.6c0.6-0.7,1.3-1.4,1.8-2.2c0.1-0.3,0.2-0.6,0.2-0.9
			c0.3-0.7,0.7-1.3,0.9-2c-0.9,1.3-2,2.4-3.4,3.1c-1.1,0.1-1.3-0.2-1-1.1c0.2-0.7,0.7-1.3,1.2-1.9c1.3-1.6,2.7-3,3.6-4.9
			c0.2-0.3,0.2-0.7,0.2-1.1c0.4-0.9,0.5-2,1.1-2.8C193.8,49,193.8,49.2,193.7,49.5z"/>
		<path class="st7" d="M180,45.3c0.1,0.3-0.1,0.6,0.3,0.9c0.2,0.1,0.5,0,0.7,0.2c0.1,0.1,0.1,0.2,0.1,0.3c0,0.3-0.1,0.6-0.1,0.8
			c-0.5,2.3-0.4,4.7-0.4,7c0.2,1.7,0.2,3.4,0.6,5c0,0.6,0.2,1.2,0.3,1.8c0.1,0.3,0.2,0.5,0.3,0.8c0.3,1,1.1,1.8,1.3,2.8
			c0.3,1.3,0.7,2.5-0.4,3.7c-0.3,0.3-0.3,1.1-0.2,1.6c0.2,1.1,0.3,2.3,0.5,3.4c0,1,0.5,1.8,1,2.6c0,0.1,0,0.2,0,0.2
			c-1.2,0.7-1.2,1.9-1.4,3.1c-0.4,2.3-0.9,4.7-1.3,7c-0.1,0.4-0.1,0.9-0.4,1.1c-0.3,0.2-0.4,0-0.3-0.3c0.5-3.1,0.9-6.2,1.4-9.3
			c0.1-0.5,0.1-1-0.1-1.4c-0.5-1.4-1.3-2.5-1.8-3.9c-0.3-0.7-0.6-1.4-0.8-2.2c0-0.2-0.1-0.4-0.1-0.6c-0.1-0.1-0.1-0.3,0-0.4
			c0.2-0.2,0.3,0,0.4,0.1c0.3,0.5,0.7,1.1,1.2,1.5c-0.6-1.4-0.9-2.8-1.3-4.2c-0.1-0.4-0.2-0.7,0-1.1c0.6-0.3,0.6,0.3,0.7,0.5
			c0.3,0.5,0.4,1.1,1,1.6c-0.2-1.2-1.4-1.7-1.3-2.8c-0.7-3.7-0.3-7.4-0.4-11.1c0-0.3,0.2-0.6,0.3-0.8c0.2-2.5-0.2-5.1-0.2-7.6
			C179.7,45.5,179.5,45.2,180,45.3z"/>
		<path class="st8" d="M180.7,32.6c-0.4-0.9-0.4-1.9-0.5-3.1c0.6,0.7,0.5,1.4,0.9,2c-0.3-3.5-1.4-7-1.4-10.7
			c0.2,0.7,0.3,1.3,0.6,1.9c0.2,0.4,0.1-0.1,0.2-0.2c0.1-0.7,0-1.4-0.2-2.1c-0.1-0.2,0-0.5,0.2-0.6c0.3-0.1,0.4,0.1,0.5,0.3
			c0.3,0.4,0.4,1,0.8,1.3c0.3,0.3,0.4,0.7,0.6,1c0.4,1.6,1.7,2.8,2.3,4.3c0.1,0.4,0.5,0.7,0.1,1.1c-0.1,0.1-0.2,0.1-0.3,0.1
			c-0.4-0.2-0.3,0.3-0.6,0.4c-0.3,0-0.5-0.2-0.6-0.4c-0.1-0.9-1-1.3-1.4-2.1c0,0,0-0.1,0-0.1c-0.1,0-0.1,0-0.1,0.1
			c0,0.7,0.4,1.2,0.6,1.8c0.7,1.3,1.3,2.6,2,3.9c0.4,0.7,0.7,1.4,0.4,2.2c-0.5,0.4-0.8-0.1-1.1-0.3c-0.2-0.3-0.6-0.3-0.9-0.5
			c-0.8-1.1-0.7-2.5-1.1-3.5c-0.1-0.3-0.3,0-0.1-0.1c0,0,0.1,0,0.1,0.1c0.2,0.7,0.4,1.3,0.5,2c-0.2,1.4,0.4,2.6,0.9,3.7
			c0.9,1.8,1.6,3.7,1.7,5.7c-0.2,0.5-0.5,0.1-0.8,0c-0.2-0.1-0.4-0.2-0.7-0.2c-0.2,0-0.4-0.2-0.4-0.4c-0.1-1.1-0.8-2.1-0.6-3.2
			c-0.1,0-0.2,0.2-0.4,0.1c-0.6-0.7-0.1-1.7-0.6-2.5c-0.3-0.7-0.3-1.4-0.5-2.1C180.8,32.8,180.8,32.7,180.7,32.6z"/>
		<path class="st9" d="M180.7,87.3c0,0,0,0.1,0,0.1c0.1,0.1,0.2,0.2,0.2,0c0.5-2.4,0.9-4.8,1.4-7.3c0.2-1.1,0.6-2.1,0.6-3.2
			c0-0.3,0.2-0.3,0.5-0.3c0.3,0,0.7,0.1,0.8-0.4c0.6-0.7,0.7-0.8,1.2-0.5c-2.1,2.1-2,5-2.6,7.6c-0.8,3.7-1.5,7.4-2.1,11.2
			c-0.9,4.9-1.6,9.8-2,14.8c0,0.3-0.1,0.6-0.2,0.9c-1.2,0.2-1-0.7-1-1.4c0.1-1.4,0.4-2.9,0.5-4.3c0.2-1.2,0.6-2.4,0.5-3.7
			c0.6-3.5,1.2-7.1,1.8-10.6C180.3,89.2,180.3,88.2,180.7,87.3z"/>
		<path class="st10" d="M184,28.4c0-0.3-0.1-0.6-0.1-1c0.3,0,0.4,0.3,0.6,0.5c0.4,0.4,0.8,0.8,1.3,1.2c0.2,0.1,0.3,0.2,0.5,0.2
			c-0.4-1.7-0.5-3.5-1.7-5c-0.2-0.3-0.4-0.5-0.2-0.9c1,0.2,1.4,1.1,1.9,1.8c0.3,0.4,0.5,0.8,0.7,1.3c-0.3-1.7-1.3-2.9-2.8-3.2
			c-0.5-0.1-0.7-0.4-1-0.7c-0.2-0.4-0.6-0.8-0.8-1.2c-0.1-0.9-1-1.5-0.7-2.5c0.3-0.2,0.5-0.2,0.7,0.1c0.3,1.2,0.9,2.3,1.9,3.1
			c0.4,0.3,0.7,0.5,1.1,0.7c0.2,0.1,0.5,0.2,0.7,0.3c0.3,0.2,0.6,0.6,0.9,0.8c0.6-2.1,1.2-4.3,1.6-6.5c0.1-0.4,0.3-0.8,0.1-1.2
			c-0.1-0.8-0.2-1.6-0.2-2.4c0,0,0.1,0,0.1,0c0.3,1,0.6,2.1,1,3.1c1,1.6,1,3.3,0.5,5c-0.3,1.1-0.9,2.2-1.5,3.2
			c-0.3,0.5-0.6,1.1-0.4,1.7c0,1-0.4,2-0.3,3c0,0.5,0.1,1,0.4,1.4c0.5,1,0.8,2.1,0.8,3.2c0,0.6-0.1,1.3-0.5,1.8
			c-0.3,0.3-0.6,0.8-1.1,0.3c-0.3-1.2-0.7-2.4-0.7-3.7c0.2-0.4,0.4-0.2,0.6,0c0.3,0.3,0.3,0.7,0.5,1c0-2-1.3-3-2.8-3.9
			c-0.3-0.1-0.5-0.3-0.8-0.5c-0.2-0.2-0.3-0.4-0.4-0.6C183.9,28.7,183.9,28.5,184,28.4z"/>
		<path class="st11" d="M180.7,32.6c0.1,0,0.1,0,0.2,0c0.4,1.3,0.7,2.6,0.8,4c0.2,2.3,0,4.7,0.6,7c0,0.8-0.1,1.6,0.5,2.3
			c0,0.1,0.1,0.2,0.1,0.3c0.1,0.4,0.3,0.7,0.4,1c0,0.6,0.1,1.1,0.3,1.6c0.6,1.4,1.8,2.7,1.8,4.3c0,1.3,0.3,2.6,0.2,3.8
			c-1.5-0.2-2.5-1.1-3.3-2.3c-0.2-0.3-0.4-0.7-0.3-1.1c0.9-0.2,0.9,0.7,1.3,1c-0.1-0.2-0.3-0.6-0.4-1c0-3-1.1-5.8-1.7-8.6
			c-0.2-0.7,0-1.4-0.3-2.1c-0.1-0.7-0.3-1.4,0-2c0.2-2.3-0.1-4.5-0.3-6.7C180.8,33.5,180.7,33.1,180.7,32.6z"/>
		<path class="st12" d="M188.1,26.9c-0.5-0.6-0.1-1.1,0.2-1.7c1.2-2.1,2.3-4.2,1.6-6.8c-0.1-0.4-0.5-0.8-0.3-1.3
			c0.4-1.1-0.1-2.2-0.3-3.2c-0.4-2.4-1-4.9-1.4-7.3c-0.1-0.5-0.4-0.8-0.6-1.3c-0.2-0.3-0.2-0.7,0.1-1.1c0.2-0.2,0.5-0.2,0.7,0
			c0.3,0.2,0.7,0.6,0.4,0.9c-0.8,1.1,0.1,2.1,0.2,3.1c0.2,1.5,0.7,3,0.9,4.5c0.4,2.5,1,5,1.4,7.5c-0.2,0.9,0.1,1.8,0.1,2.7
			C190.9,24.8,189.5,25.9,188.1,26.9z"/>
		<path class="st13" d="M182,14.3c0.2,0.1,0.5,0.2,0.6,0.4c0.3,0.8,0.8,1.3,1.6,1.6c0.5-0.4,0-1.1,0.4-1.6c0.4,0.3,0.3,0.7,0.4,1.1
			c0,0.5,0,1,0.5,1.4c0.4,0.3,0.4-0.1,0.4-0.3c0.3-2.1,0.6-4.2,0.4-6.3c0-0.2,0-0.4,0.1-0.5c1.5,2.6,2.2,5.2,0.9,8.1
			c-0.1,0.3-0.4,0.6,0,0.9c-0.1,0.9-0.4,1.8-0.4,2.7c0,0.4-0.2,0.9-0.7,1c-1.1-0.3-0.9-1.2-0.8-1.9c0.6-0.1,0.6-0.5,0.4-1
			c-0.3-1.3-1.3-1.9-2.3-2.6c-0.3-0.1-0.5-0.3-0.8-0.6c-0.3-0.4-0.5-0.8-0.7-1.3C181.9,15,181.7,14.7,182,14.3z"/>
		<path class="st14" d="M182.5,19.2c-0.2-0.2-0.4-0.2-0.6-0.2c-1.2-0.4-1.5-1.6-2.2-2.5c-0.3-0.1-0.4-0.4-0.6-0.6
			c-0.4-0.9-0.7-1.9-0.8-3c0.1,0.3,0.3,0.6,0.4,1c-1.1-3.8-1.4-7.7-2.6-11.4l0.1-0.1c1.1,2.1,1.4,4.4,2.1,6.6
			c0.3,0.9,0.6,1.9,0.9,2.8c0.2,0.8,0.8,1.5,1.2,2.3c0.8,1.2,1.4,2.5,2.3,3.7c0.3,0.5,0.7,1,0,1.5C182.7,19.3,182.6,19.3,182.5,19.2
			z"/>
		<path class="st15" d="M190.8,23c0.1-1-0.3-2,0.2-2.9c0.2,1.5,0.4,2.9,0.7,4.4c0.8,3-0.5,5.4-2.3,7.7c-0.7,0.2-0.9-0.2-0.8-0.8
			c0-0.7,0.2-1.5,0.5-2.2c0.6-1.7,1.3-3.4,1.7-5.2C190.8,23.7,191,23.4,190.8,23z"/>
		<path class="st16" d="M193,45.6c0.2-0.5,0.4-1,0.7-1.5c0.6,0.1,0.5,0.6,0.4,1c-0.2,1.2-0.3,2.4-0.6,3.6c-0.4,2.1-1.8,3.5-3.4,4.7
			c-0.3,0.2-0.6,0.5-1.1,0.5c-1.1-0.3-0.5-0.9-0.2-1.4c1-2,2.4-3.7,3.6-5.4c0.2-0.3,0.3-0.6,0.5-0.9C193,46,193.1,45.8,193,45.6z"/>
		<path class="st17" d="M193.2,29.5c0,1,0,2.1,0,3.1c0,2.8-1.6,4.8-3.6,6.5c-0.6-0.4-0.4-0.8-0.2-1.4c0.5-1.8,1.5-3.5,2.4-5.1
			c0.2-0.4,0.4-0.7,0.5-1.1c0-0.1,0.1-0.2,0.1-0.3c0.2-0.5,0.3-1.1,0.5-1.6C193,29.5,193.1,29.5,193.2,29.5z"/>
		<path class="st18" d="M189.7,66.7c-0.1,0.5-0.5,0.8-0.8,1.1c-1.4,1.5-3,2.7-4,4.7c1.4-0.6,2.7-1.1,3.5-2.3
			c0.2-0.3,0.2-0.3,0.6-0.2c-0.4,0.5-0.8,1.1-1.1,1.6c-0.7,1-1.3,2-2.2,2.7c-0.8,0.7-1.3,0.5-1.6-0.6c0-0.8-0.1-1.6-0.1-2.4
			c0.3-0.1,0.6-0.3,0.7-0.6C185.7,68.7,187.6,67.6,189.7,66.7z"/>
		<path class="st19" d="M190.2,45.9c-1,0.5-0.9,1.2-0.5,2.1c-0.1,1-0.9,1.6-1.3,2.4c-0.1,0.1-0.3,0.3-0.5,0.2
			c-0.3-0.1-0.3-0.4-0.2-0.7c0.2-0.7,0.4-1.4,0.6-2c0.1-0.4,0.2-0.7-0.3-0.9c-0.2-0.2-0.1-0.5-0.1-0.8c0.5-2,1.5-3.7,3-5.2
			c0.8-0.7,1.6-1.4,2-2.5c0.2-0.5,0.4-1,0.7-1.5c0.5,0.2,0.3,0.6,0.2,0.9c-0.2,1.2-0.6,2.3-1.4,3.2c-1.1,1.3-1.5,2.9-2.2,4.4
			C190,45.6,190.1,45.7,190.2,45.9z"/>
		<path class="st20" d="M190.2,45.9c-0.8-0.2-0.3-0.5-0.2-0.9c0.6-2.5,2.8-4.2,3.4-6.6c0.1-0.4,0.5-0.9,0.1-1.4
			c0.1-0.5,0.1-1.1,0.2-1.6c0.4,0,0.3,0.2,0.2,0.4c0.1,1.6-0.2,3.1-0.3,4.6C193.4,42.9,191.9,44.4,190.2,45.9z"/>
		<path class="st21" d="M193.3,48.8c0.2-1.2,0.4-2.5,0.6-3.7c0.1-0.3,0.2-0.7-0.2-1c0.3-0.6,0-1.4,0.4-2c0.2,0.3,0,0.7,0.1,0.9
			c-0.1-0.5,0.4-1,0.2-1.6c-0.1,0.2,0.2,0.7-0.3,0.7c-0.4-1.2,0.1-2.4,0.3-3.6c0.3-2.9,0.7-5.7,1.1-8.6c0-0.1,0.1-0.2,0.3-0.4
			c-0.4,3.2-0.7,6.2-1.1,9.3c0.1,0,0.2,0,0.2,0c0.2-1.3,0.4-2.6,0.6-3.9c0.1,0,0.2,0,0.2,0c-0.4,2.6-0.7,5.2-1.1,7.8
			c-0.3,2.1-0.6,4.2-0.9,6.3c0,0.2-0.1,0.3-0.2,0.5c-0.1-0.2-0.2-0.3-0.2-0.5C193.4,49,193.3,48.9,193.3,48.8z"/>
		<path class="st22" d="M188.1,47c0.1-0.1,0.3-0.3,0.4-0.3c0.2,0.1,0.3,0.4,0.2,0.6c-0.2,0.7-0.4,1.4-0.6,2.1
			c-0.1,0.3-0.3,0.6-0.1,1.1c0.5-0.9,0.9-1.8,1.7-2.6c1.2-0.7,2.7-0.9,3.4-2.3c0.2,0.1,0.2,0.3,0.2,0.5c-0.5,1-1.3,1.9-2.2,2.7
			c-1.3,1-2.2,2.3-2.6,3.9c-0.1,0.5-0.3,1-1,0.5c-0.6-0.9-0.7-1.9-0.5-2.9c0-0.2,0.1-0.3,0.2-0.5C187.7,48.9,187.6,47.8,188.1,47z"
			/>
		<path class="st23" d="M179.8,65.8c0.2,1.6,0.8,3.2,1.3,4.7c0.1,0.4,0.3,0.7,0.2,1.2c-0.7-0.6-1.4-1.1-1.7-2c0-0.1-0.1-0.2-0.2-0.1
			c0,0,0,0.1-0.1,0.2c-0.5-1.5-0.4-3.1-0.3-4.6c0.2-3.3,0.1-6.6,0.1-9.9c0-0.6,0-1.3,0-1.9c0-0.3,0.3-0.5,0.4,0
			c0.3,0.5,0.2,1.1,0.2,1.6c-0.1,3.1-0.3,6.3,0.1,9.4C179.8,64.9,180.1,65.4,179.8,65.8z"/>
		<path class="st24" d="M186.3,22.6c0.4-0.5,0.5-1.1,0.4-1.8c-0.1-0.7,0.1-1.3,0.7-1.8c0.9-0.7,1.2-1.7,1.4-2.7c0.5,1,0.1,2-0.1,2.9
			c-0.3,1.7-0.9,3.5-1.3,5.3c-0.6-0.4-1-0.8-1.3-1.3C185.8,22.9,186,22.7,186.3,22.6z"/>
		<path class="st25" d="M192.5,31.3c0.1,0.5-0.2,0.9-0.4,1.4c-1,1.7-1.9,3.5-2.6,5.4c-0.1,0.4-0.1,0.7,0.1,1.1
			c-0.6,0.5-0.2,1.1,0,1.6c-0.1,1.2-0.4,1.5-1.3,1.5c-0.3-1-0.1-2.1-0.3-3.1c0.3-1.2,0.6-2.4,1.1-3.5
			C189.9,33.8,191.2,32.6,192.5,31.3z"/>
		<path class="st12" d="M181.1,40.7c0.3,0.6,0.1,1.4,0.3,2c0.1,2.3,0.5,4.6,0.7,6.8c0.1,1.5,0.6,2.8,1.3,4.1c0.2,0.5,0.4,1,0.6,1.5
			c0,0-0.1,0-0.1,0.1c-0.5-0.6-1.1-1.2-1.6-1.8c-0.4-0.1-0.5-0.5-0.8-0.8c-0.6-1-0.7-2.1-0.8-3.2c-0.1-0.8,0.2-1.6,0-2.4
			c0.1-0.2,0.1-0.4,0.2-0.6c-0.4-0.8-0.1-1.6-0.2-2.4c0-0.4,0-0.8-0.1-1.2c-0.1-0.5-0.2-1.1,0.1-1.6C180.7,41,180.5,40.5,181.1,40.7
			z"/>
		<path class="st26" d="M192.5,31.3c-0.8,1-1.6,2-2.4,3c-0.8,1-1,2.3-1.4,3.5c-0.1,0.4-0.1,0.8-0.5,1.1c-0.7-0.3-1-1-1.2-1.6
			c0-0.3-0.1-0.8,0.5-0.8c1.1-0.2,1-1.2,1.2-2c0.2-0.5,0.1-1.2,0.9-1.4c1.1-0.5,2.1-1.1,2.7-2.2C192.7,30.8,192.7,31,192.5,31.3
			L192.5,31.3z"/>
		<path class="st22" d="M188.5,42.3c0.6-0.4,0.8-1,1.1-1.6c1-0.8,2.5-0.9,3.2-2.2c0.2,1-0.6,1.5-1.1,2c-1.7,1.6-2.8,3.5-3.6,5.6
			c-0.8-0.5-0.4-1.3-0.5-2c0-0.1,0-0.2,0.1-0.3C187.9,43.2,188,42.6,188.5,42.3z"/>
		<path class="st27" d="M189.7,33.1c-0.3,0.5-0.6,0.9-0.9,1.4c0-1.1-0.3-2.1-0.7-3.1c-0.2-2.9,1.3-5.2,2.9-7.4
			c0,1.9-0.9,3.5-1.5,5.2c-0.2,0.8-0.4,1.6-0.6,2.3c-0.2,0.6,0.3,0.6,0.6,0.8C189.5,32.5,189.6,32.8,189.7,33.1z"/>
		<path class="st28" d="M184.2,73.9c0.1,1,0.6,0.8,1.1,0.4c1-0.7,1.5-1.9,2.5-2.6c-0.6,1.6-1.3,3-2.7,4c-0.5-0.2-0.7,0.6-1.2,0.5
			c-1-0.1-0.7-1.1-1.1-1.6c-0.1-0.2,0-0.6,0-0.9c-0.2-0.6,0.1-1.1,0.4-1.6c0.8,0,0.5,0.6,0.6,1C184,73.4,183.6,73.9,184.2,73.9z"/>
		<path class="st29" d="M179.5,55.1c0-0.5,0.1-1.1,0.1-1.6c0.1-0.1,0.3-0.1,0.4-0.2c0,2.8,0.1,5.6,0,8.5c0,1.3,0.4,2.5,0.3,3.8
			c-0.5-0.2-0.6-0.7-0.6-1.1C179.3,61.3,179.5,58.2,179.5,55.1z"/>
		<path class="st30" d="M179.1,15.9c0.2,0.1,0.3,0.5,0.7,0.2c0.6,1.6,1.3,3.1,2.1,4.5c0,0.4,0.1,0.7-0.1,1.1
			c-0.9-0.2-0.7-1.1-1.3-1.7c-0.1,0.9,0.5,1.8,0,2.6C180,20.3,179.6,18.1,179.1,15.9z"/>
		<path class="st31" d="M179.4,70.5c1.2,1.8,1.6,3.9,2.9,5.7c0.2,0.3-0.1,0.4-0.3,0.4C180.1,75,179.5,72.9,179.4,70.5z"/>
		<path class="st32" d="M185.4,17.4c-1.2-0.6-0.5-1.8-0.7-2.7c0.1-0.8,0.7-1.2,1.1-1.8c0.3-0.5,0.4-1,0.6-1.6c0.5,0,0.3,0.4,0.3,0.7
			c0,1.7-0.7,3.3-0.8,5C185.8,17.2,185.7,17.4,185.4,17.4z"/>
		<path class="st33" d="M193.2,29.5c-0.1,0-0.1,0-0.2,0c-0.1-0.1-0.1-0.3-0.2-0.4c0-4.7-0.5-9.4-0.1-14.2c0.1,3.1,0.3,6.3,0.2,9.4
			C193,26.1,193.4,27.8,193.2,29.5z"/>
		<path class="st34" d="M185.4,17.4c0.2-1.8,0.7-3.5,1.1-5.2c0.1-0.3,0.1-0.6-0.2-0.8c0-0.4,0-0.7,0-1.1c-0.1-0.2,0-0.3,0.2-0.2
			c0,0,0,0,0,0c0.5,2.5,0,4.9-0.2,7.3c0,0.2,0,0.5-0.3,0.6C185.7,18,185.5,17.7,185.4,17.4z"/>
		<path class="st35" d="M178.3,100.8c0.4,1.5-0.3,2.8-0.4,4.2c-0.1,1.4-0.4,2.8-0.4,4.2c0,0.5,0.1,0.9,0.7,0.9
			c0,0.3,0.1,0.5-0.1,0.7c-1.1-0.6-1.5-1.3-1.2-2.6C177.5,105.8,177.9,103.3,178.3,100.8z"/>
		<path class="st36" d="M193.9,35.8c-0.1-0.1-0.1-0.3-0.2-0.4c0-2.7,0.3-5.3,0.6-8c0.1-1.5,0.2-2.9,0.4-4.4c0.2,1.9-0.1,3.8-0.2,5.8
			c-0.1,2.1-0.4,4.2-0.4,6.3C194.1,35.3,194.1,35.6,193.9,35.8z"/>
		<path class="st37" d="M180.6,41.2c0,0.5,0,1,0.1,1.5c0.1,1.2,0.1,2.4,0,3.5c-0.3,0.3-0.3,0-0.5-0.2c0.4-1.1,0.1-2.2,0.1-3.3
			c-0.1-2.6-0.3-5.1-0.7-7.7c0.3,0.9,0.7,1.7,0.6,2.8C180.2,39,180.5,40.1,180.6,41.2z"/>
		<path class="st38" d="M180.2,14.1c-0.4-0.7-1.1-1.3-0.9-2.2c0.5,0.8,1.2,1.4,2,1.9c0.4,0,0.5,0.4,0.7,0.6c0,0,0,0,0,0
			c0.1,0.4,0.2,0.7,0.2,1.1c0.1,0.9-0.4,0.5-0.7,0.3C181.1,15.2,180.7,14.6,180.2,14.1z"/>
		<path class="st39" d="M180,45.3c-0.1,0.1-0.1,0.3-0.2,0.4c-0.5-2.1-1.1-4.3-1.7-6.8C179.4,41,179.9,43.1,180,45.3z"/>
		<path class="st40" d="M179.2,52.7c-0.3-2.1-1.1-4-1.4-6.2C179.2,48.4,179,50.6,179.2,52.7z"/>
		<path class="st41" d="M180.2,10c-1-1.4-1.3-3.2-2-4.7C179.1,6.8,179.9,8.3,180.2,10L180.2,10z"/>
		<path class="st42" d="M182,14.3c-0.2-0.2-0.5-0.4-0.7-0.6c-0.1-1.3-1.1-2.3-1.1-3.7c0,0,0,0,0,0C181,11.4,181.6,12.8,182,14.3z"/>
		<path class="st43" d="M184.3,16.3c0,0.1,0,0.2,0.1,0.3c-0.8,0-1.8-1.2-1.7-1.9C183.3,15.2,183.8,15.7,184.3,16.3z"/>
		<path class="st44" d="M184.5,6.2c-0.5-1.3-1.1-2.5-1.6-3.8c0.9,1.1,1.4,2.3,1.8,3.6C184.8,6.2,184.7,6.2,184.5,6.2z"/>
		<path class="st45" d="M187.1,8c0.2,1.3,0.8,2.5,0.9,3.8c-0.5-1.2-0.9-2.4-1-3.6C186.8,8,186.9,8,187.1,8z"/>
		<path class="st46" d="M170,125.4c-0.1,0-0.3,0-0.4,0c0.4-1.1,0.7-2.2,1.3-3.2c0.1,0,0.2,0,0.2,0
			C171.1,123.4,170.6,124.4,170,125.4z"/>
		<path class="st47" d="M187.1,8c-0.1,0.1-0.1,0.1-0.2,0.2c-0.4-1.1-0.7-2.2-0.7-3.4C186.5,5.9,186.8,7,187.1,8z"/>
		<path class="st48" d="M184.5,6.2c0.1-0.1,0.1-0.2,0.2-0.2c0.4,0.9,1,1.7,1.1,2.7l0,0C185.2,8,184.9,7,184.5,6.2z"/>
		<path class="st25" d="M192.8,29.1c0.2,0.1,0.2,0.2,0.2,0.4c-0.1,0.6-0.1,1.3-0.5,1.8c0-0.2,0-0.4-0.2-0.5
			C192.5,30.3,192.6,29.7,192.8,29.1z"/>
		<path class="st14" d="M176.2,2.4c-0.4-0.5-0.4-1.1-0.6-1.6C176,1.3,176.2,1.8,176.2,2.4C176.2,2.4,176.2,2.4,176.2,2.4z"/>
		<path class="st13" d="M186.5,10c-0.1,0.1-0.2,0.2-0.2,0.2c-0.2-0.5-0.4-1-0.4-1.6c0,0,0,0,0,0C186.2,9.1,186.4,9.5,186.5,10z"/>
		<path class="st49" d="M192.6,51.9c0.3,0.3,0,0.6-0.1,0.9c-0.7,1.2-1.6,2.2-2.7,3c-1.2,0.9-1.9,2.2-2.4,3.7c-0.2,0.6-0.5,1.2-1,0.2
			c-0.1-0.8-0.8-1.5-0.2-2.4c0.1-0.2,0.3-0.3,0.5-0.4c0.3-0.2,0.5-0.6,0.7-0.9c0.4-0.7,1-1.3,1.6-1.8
			C190.3,53.7,191.5,52.9,192.6,51.9z"/>
		<path class="st50" d="M186.5,59.7c0.2,0,0.3,0.6,0.5,0c0.6-2.1,1.9-3.7,3.7-5c0.7-0.5,1.2-1.3,1.8-1.9c-0.4,1.6-1.8,2.5-2.6,3.8
			c-0.6,1-1.7,1.7-2.1,2.8c-0.4,1-0.3,1.1,0.8,1c0,0.7-0.9,0.8-0.9,1.5c-0.4,0.4-0.6,1.2-1.4,0.8C186.1,61.8,186,60.7,186.5,59.7z"
			/>
		<path class="st26" d="M186.5,62.8c0.4-0.4,0.8-0.7,1.2-1.1c0-0.2,0.1-0.3,0.3-0.4c1.2-0.3,2.3-1,3.3-1.6c0.4,0.2,0,0.5,0,0.7
			c-0.7,0.9-1.4,1.6-2.3,2.2c-0.9,0.6-1.6,1.4-2.2,2.3c-0.3,0.5-0.5,1.3-1.3,1.3c-0.5-0.6-0.8-1.3-0.8-2.1c0.1-0.3,0.4-0.5,0.7-0.4
			c0.4,0.1,0.5-0.2,0.7-0.4C186,63.1,186.2,62.9,186.5,62.8z"/>
		<path class="st51" d="M185.4,66.3c0.9-1,1.3-2.4,2.5-3.3c1.1-0.8,2.3-1.6,3.3-2.6c-0.3,0.9-0.9,1.5-1.6,2.1
			c-1.2,1.3-2.4,2.5-3.4,4c-0.4,0.6-0.2,0.8,0.4,0.8c-0.4,0.8-0.8,1-1.5,0.3C185,67.2,185,66.7,185.4,66.3z"/>
		<path class="st52" d="M185.4,67.8c0.6,0.2,0.9-0.2,1.4-0.4c0.3,0,0.6,0,0.9-0.2c0.8-0.5,1.5-1.2,2.5-1.4c0,0.4-0.2,0.7-0.5,0.9
			c-0.9,0.6-1.8,1.3-2.8,1.8c-0.9,0.5-1.5,1.5-2.1,2.4c-0.2,0.3-0.3,0.7-0.8,0.2c-0.5-0.2-0.5-0.6-0.5-1.1c0.2-0.3,0.7-0.2,0.8-0.5
			C184.9,69.1,184.7,68.2,185.4,67.8z"/>
		<path class="st53" d="M191.2,59.8c-0.7,0.9-1.5,1.4-2.6,1.6c-0.3,0.1-0.7,0.3-1,0.4c-0.3-1,0.9-0.7,1-1.3c1.5-0.9,2.6-2.1,3.7-3.7
			C192.3,58.1,191.7,58.9,191.2,59.8z"/>
		<path class="st54" d="M192.6,51.9c-0.8,1.5-2.2,2-3.6,2.5c-0.1-0.3-0.3-0.5,0.1-0.7c1.9-1.2,3.5-2.6,4.2-4.9
			c0.1,0.1,0.1,0.1,0.2,0.2C193.5,50.1,193,51,192.6,51.9z"/>
		<path class="st55" d="M190.1,65.8c-0.8,0.5-1.4,1.4-2.5,1.4c-0.4-0.1-0.2-0.2,0-0.4c1.1-0.8,2.2-1.6,3.1-2.8
			C190.8,64.8,190.1,65.2,190.1,65.8z"/>
		<path class="st56" d="M185.4,67.8c-0.3,0.7-0.3,1.5-0.9,2c-1,0.2-0.7-0.6-0.7-1.1c-0.1-1.6-0.4-3.2-1-4.6
			c-0.3-0.7-0.9-1.4-1.2-2.1c-0.2-0.2-0.2-0.4-0.2-0.7c-0.2-0.2-0.1-0.4,0.2-0.5c0.9,1.2,2.2,1.8,3.3,2.7c0.1,0.2,0,0.3-0.1,0.5
			c-0.1,0.8,0.6,1.5,0.6,2.2C185.4,66.8,185.4,67.3,185.4,67.8z"/>
		<path class="st57" d="M180.7,47c0.4,0.8,0.1,1.6,0.2,2.5c-0.1,1.7,0.4,3.3,0.9,4.9c0.5,1.5,0.7,3.1,0.8,4.6c0,0.4,0,0.8-0.2,1.2
			c-0.7,0.3-0.9-0.3-1.1-0.7c-0.4-0.9-0.6-2-0.7-3c0-0.6,0.1-1.2-0.3-1.8C180.1,52.1,180.2,49.5,180.7,47z"/>
		<path class="st58" d="M181.6,62c1.5,2,2.5,4.2,2.5,6.8c0,0.4-0.2,0.9,0.4,1c-0.2,0.6-0.6,0.2-0.9,0.2c0,0.2-0.5-0.3-0.4,0.2
			c0.1,0.6,0.3,1.2,0.1,1.8c0.1,0.6-0.6,1-0.5,1.6c-0.6-1.8-0.7-3.7-0.5-5.7c0.2,0,0.5,0.6,0.6-0.2c0.4-1.7-0.2-3.1-0.9-4.5
			C181.9,62.9,181.6,62.5,181.6,62z"/>
		<path class="st43" d="M179.8,64.7c0.2,0.3,0.3,0.6,0.5,0.8c0.2,0.6,0.6,1,1,1.5c0.3,0.3,0.5,0.6,0.5,1c0,0.2,0,0.5-0.2,0.6
			c-0.3,0.1-0.4-0.1-0.5-0.3c-0.6-0.7-0.8-1.7-1.3-2.5c-0.1-0.4-0.1-0.8-0.2-1.1C179.6,64.6,179.7,64.6,179.8,64.7z"/>
		<path class="st59" d="M180.3,54.6c0.7,0.4,0.3,1,0.4,1.6c0.2,1.5,0.2,3,1.6,4c0,0,0.1,0,0.1,0c0.5,0.4,1,1,0.5,1.4
			c-0.5,0.4-0.7-0.4-1.1-0.8c-0.3-0.3-0.6-0.6-0.7-1c-0.1-0.1-0.1-0.3-0.2-0.5C180.4,57.9,180.5,56.3,180.3,54.6z"/>
		<path class="st12" d="M180.7,46.3c0-1.2,0-2.4,0-3.5c0.4,1.2,0.1,2.4,0.2,3.7C180.8,46.4,180.8,46.3,180.7,46.3z"/>
		<path class="st58" d="M180.9,59.5c0.1,0.1,0.1,0.2,0.2,0.3c0.1,0.4,0.6,0.7,0.4,1.2c-0.1,0.1-0.1,0.3-0.2,0.4
			C181,60.8,180.9,60.1,180.9,59.5z"/>
		<path class="st60" d="M183.2,40.5c0.1,0.2,0.2,0.2,0.4,0.3c0.5,0.4,0.6,1,0.8,1.5c0.1,0.6,0.5,1.1,0.8,1.6
			c0.6,1.1,1.2,2.1,0.9,3.5c-0.1,0.4,0.1,0.8,0.2,1.2c0.1,0.4,0.4,0.8-0.1,1.1c-1.3-0.3-1.6-1.5-2.1-2.4c-0.1-0.6-0.3-1.2-0.3-1.8
			c-0.1-1-0.3-2-0.8-2.9c-0.6-1.1-0.8-2.4-1.2-3.6c-0.1-1.4-0.5-2.8-0.2-4.2c0.7,0.8,0.2,1.8,0.6,2.7
			C182.7,38.3,182.7,39.5,183.2,40.5z"/>
		<path class="st60" d="M184.7,41.2c-0.3-2.5-1.4-4.8-2.4-7.1c-0.3-0.8-0.8-1.6-0.4-2.5c0.7,0.7,0.5,2,1.3,2.6
			c0.6,0.5,1,1.2,1.2,1.9c0.2,0.6,0.6,1,0.9,1.5c0.6,0.9,1.1,1.9,0.9,3c-0.1,0.5,0.2,1,0.4,1.5c0.1,0.4,0.4,0.7,0.4,1.2
			c-0.2,0.4-0.4,0.2-0.7,0.1c-0.1,0-0.2-0.1-0.3-0.2C185.5,42.6,184.8,42.1,184.7,41.2z"/>
		<path class="st61" d="M183.4,22.6c0.3,0.2,0.6,0.5,0.9,0.7c0.1,0,0.2,0.1,0.2,0.2c1.5,1.9,2,4.1,2.3,6.4c-0.5,0-0.8-0.4-1.2-0.6
			c-0.1-0.6-0.7-0.8-0.9-1.3c-0.1-1-0.6-1.8-1.1-2.6c-0.6-0.9-1.2-1.7-1.3-2.8C182.6,22.3,183,23.2,183.4,22.6z"/>
		<path class="st62" d="M184.1,42.3c-0.2-0.5-0.3-1-0.5-1.5c0.1-0.2,0.3-0.3,0.5,0c0.6,1,1.3,1.8,2.3,2.5l0,0
			c0.4,0.2,0.7,0.7,1.3,0.7c0.1-0.1,0.2-0.1,0.2,0c0.1,0.7-0.1,1.5,0.3,2.2c0,0.3,0,0.6,0,0.9c0,1-0.1,2-0.7,2.8
			c-0.6,0.1-0.6-0.3-0.7-0.7C186.6,46.6,185.4,44.4,184.1,42.3z"/>
		<path class="st63" d="M184.1,28.8c0.1,0.2,0.3,0.3,0.4,0.5c0.4,0.6,0.9,1,1.3,1.6c0.6,0.9,1.1,1.9,0.8,3c-0.1,0.5,0.2,0.8,0.4,1.3
			c0.1,0.4,0.5,0.8,0.1,1.2c-1.1-0.4-1.9-1.2-2.3-2.3c0.2-1.8-1.1-3-1.6-4.5c-0.2-0.6-0.8-1.1-0.8-1.8c0.7,0,0.9,0.7,1.2,1.1
			C183.8,29.2,183.9,29.1,184.1,28.8z"/>
		<path class="st64" d="M184.3,36c-0.3-0.6-0.5-1.2-1.1-1.5c0.1-0.4-0.5-0.8,0-1.3c0.3-0.5,0.5-0.1,0.7,0.1c0.5,1.3,1.3,2.4,2.6,3
			c0.3,0.1,0.6,0.3,0.8,0.6c0.1,0.1,0.1,0.3,0.2,0.4c0.3,0.5,0.6,1,1,1.5c0.3,1.1,0.2,2.3,0.2,3.4c-0.2,0.5-0.3,1-0.7,1.3
			c-0.5,0.1-0.6-0.3-0.7-0.7c-0.3-0.9-0.4-1.8-0.4-2.7c0.5-0.2,0.5-0.2,0.9,0.4c0.1-2-1.3-3-2.8-4C184.6,36.5,184.4,36.3,184.3,36z"
			/>
		<path class="st65" d="M181.6,34.7c0,1.4,0.2,2.9,0.4,4.3c0.4,1,0.5,2.1,0.6,3.1c0.2,1.3,0.5,2.5,0.7,3.8c0,0.3-0.2,0.5-0.5,0.4
			c0-0.1,0-0.1-0.1-0.2c-0.4-0.7-0.5-1.5-0.7-2.3c-0.6-2-0.4-4.1-0.6-6.2c-0.2-1.7-0.3-3.3-0.6-5C181.6,33.2,181.2,34,181.6,34.7z"
			/>
		<path class="st53" d="M187.2,37.2c-1.2-0.8-2.6-1.4-3.2-2.9c-0.1-0.3-0.6-0.6-0.1-0.9c0.3,0.2,0.6,0.5,0.9,0.7
			c0.7,0.7,1.3,1.7,2.3,2.2C187.4,36.5,187.4,36.8,187.2,37.2z"/>
		<path class="st66" d="M184.1,28.8c0,0.2,0,0.5-0.1,0.8c-0.8-0.5-1.1-1.4-1.7-1.9c-0.2-0.6-0.9-1.1-0.5-1.8c0.7,0.6,1.4,1.2,1.8,2
			c0.1,0.2,0.3,0.3,0.4,0.5C184,28.5,184.1,28.7,184.1,28.8z"/>
		<path class="st67" d="M183.1,33.2c-0.1,0.4,0.4,0.8,0,1.3c-0.8-0.8-1-1.9-1.2-2.9c-0.1-0.8-0.3-1.5-0.4-2.3c0,0,0.1,0,0.1,0
			C182.2,30.6,182.7,31.9,183.1,33.2z"/>
		<path class="st68" d="M183.4,22.6c0,0.2,0,0.5-0.1,0.8c-0.5-0.1-0.7-0.6-1.1-0.7c-0.3-0.2-0.4-0.6-0.5-0.9c0-0.3-0.4-0.6,0-0.9
			c0.6-0.2,0.6,0.4,0.9,0.7C183,21.7,183.3,22.1,183.4,22.6z"/>
		<path class="st69" d="M183.6,27.9c-0.8-0.5-1.4-1.2-1.8-2c0-0.3-0.3-0.5,0-0.9C182,26.3,183.7,26.5,183.6,27.9z"/>
		<path class="st70" d="M186.3,43.2c-1.1-0.5-2.1-1.2-2.3-2.5c0.2,0.2,0.4,0.3,0.7,0.5C185.2,41.9,185.8,42.5,186.3,43.2z"/>
		<path class="st71" d="M183.2,40.5c-0.8-0.9-0.8-2-1-3.1c0.1-0.1,0.2-0.3,0.2-0.2C182.7,38.3,183.3,39.3,183.2,40.5z"/>
		<path class="st72" d="M184.7,28c0.7,0.2,1,0.6,0.9,1.3c-0.5-0.4-1.1-0.6-1.1-1.4C184.6,28,184.6,28,184.7,28z"/>
		<path class="st73" d="M180.2,14.1c0.5,0.5,1,0.9,1.5,1.4c0.2,0.2,0.4,0.3,0.5-0.1c0.2,0.4,0.4,0.8,0.7,1.1c0.3,0.6,1,0.9,1.3,1.5
			c0.4,0.7,0.8,1.3,0.7,2.2c-0.1,0.6,0.2,1,0.4,1.5c0.2,0.4,0.4,0.9,0,1.3c-0.4-0.2-0.8-0.4-1.1-0.7c-0.6-1-1.3-1.9-1.6-3.1
			c0.6-0.6,0.1-1.1-0.2-1.5C181.6,16.6,180.9,15.4,180.2,14.1z"/>
		<path class="st74" d="M191,23.9c-1.2,2.4-2.6,4.7-2.9,7.4c-1-1.3-0.3-2.7-0.1-4.1c0-0.1,0.1-0.3,0.1-0.4c0.2-0.4,0.5-0.8,0.9-1.1
			c1-0.6,1.6-1.6,1.8-2.7C191.1,23.3,191,23.6,191,23.9z"/>
		<path class="st75" d="M187.2,37.2c0.1-0.3,0-0.6-0.2-0.9c-0.3-1.2-0.8-2.3-0.8-3.5c0-0.9-0.6-1.6-1.2-2.3
			c-0.3-0.3-0.5-0.7-0.5-1.1c0.2,0.1,0.4,0.3,0.7,0.4c0.9,0.8,1.9,1.5,1.8,2.9c0.2,1.3,0.4,2.5,0.7,3.8c-0.4,0.2-0.2,0.6-0.3,0.9
			C187.3,37.3,187.2,37.2,187.2,37.2z"/>
		<path class="st76" d="M186.9,32.7c-0.4-1.1-1.2-1.9-1.8-2.9c1.8,0.6,3.2,2.6,3.1,4.3c0,0.2,0,0.4-0.2,0.5
			c-0.3,0.1-0.4-0.2-0.4-0.4C187.4,33.7,187.4,33.1,186.9,32.7z"/>
		<path class="st77" d="M185.4,23c-0.8-1.9-0.4-4.2-2.1-5.8c-0.2-0.2-0.3-0.4-0.3-0.7c0.2,0.2,0.4,0.3,0.6,0.5
			c1.2,0.9,2.1,2,2.1,3.6c0.1,0.7-0.2,1.5,0.7,2c-0.1,0.2-0.2,0.5-0.2,0.7C185.8,23.2,185.5,23.3,185.4,23z"/>
		<path class="st78" d="M182.7,21.4c-0.3-0.2-0.6-0.4-0.9-0.7c-1.2-1.3-1.5-3-2-4.7c0.6,1.1,1.1,2.1,2.1,2.9
			C181.9,19.9,182.7,20.5,182.7,21.4z"/>
		<path class="st79" d="M184.5,23.5c-0.1-0.1-0.1-0.2-0.2-0.2c1,0,1.7,0.6,2.3,1.3c0.6,0.8,0.9,1.8,0.7,2.8
			C186.3,26,185.9,24.4,184.5,23.5z"/>
		<path class="st80" d="M188.6,23.1c0.2-1.7,0.4-3.3,0.7-5.2C189.9,19.9,189.8,21.6,188.6,23.1z"/>
		<path class="st81" d="M182.6,19.2c0.7,0.9,1.3,2,1.6,3.1c-1-0.7-1.4-1.8-1.9-2.8c-0.1-0.1,0-0.3,0.2-0.3
			C182.5,19.2,182.6,19.3,182.6,19.2z"/>
		<path class="st82" d="M170,125.4c0.4-1,0.7-2.1,1.1-3.1c0.8,0.9,0.8,2,1.4,3.1C171.5,125.4,170.7,125.4,170,125.4z"/>
		<path class="st83" d="M187.4,56.2c-0.2,0.3-0.3,0.7-0.7,0.9c-0.6,0-0.7-0.4-0.7-0.8c-0.1-0.9-0.2-1.7-0.1-2.6
			c0.4-0.7,0.5,0,0.8,0.1c-0.1-1.5-0.7-2.7-2-3.4c-0.6-0.5-0.9-1.1-1.2-1.7c-0.3-0.5-0.4-1-0.2-1.6c0.3-0.1,0.4,0.2,0.6,0.4
			c0.3,0.9,1.1,1.4,1.8,1.9c0.5,0.1,0.6,1,1.4,0.6c0.1-0.1,0.2-0.1,0.3,0c-0.1,1.1,0.2,2.1,0.5,3.1
			C188.3,54.3,187.8,55.2,187.4,56.2z"/>
		<path class="st83" d="M186.5,62.8c-0.1,0.2-0.2,0.4-0.4,0.5c-0.9,0.4-1.1,0.4-1.2-0.6c-0.1-0.6-0.1-1.3,0.1-1.9
			c0.2-0.5,0.5-0.3,0.7-0.1c0.2-2.2-1.1-3.5-2.7-4.7c-0.4-0.3-0.7-0.7-0.9-1.2c-0.2-0.8-0.8-1.5-0.3-2.4c0.3,0.2,0.3,0.5,0.5,0.8
			c0.4,1.4,1.1,2.5,2.6,2.9c0.3,0.1,0.5,0.4,0.8,0.5c0.2,0.2,0.6,0.1,0.7,0.5c-0.6,0.9,0.3,1.6,0.2,2.4
			C186.5,60.8,186.5,61.8,186.5,62.8z"/>
		<path class="st84" d="M183.4,53.7c-1.1-0.8-1.4-2-1.5-3.2c-0.3-2.6-0.5-5.2-0.5-7.8c0.4,0.7,0.2,1.4,0.3,2.2
			c0.3,1.2,0.5,2.4,1,3.5C183.4,50.1,183,52,183.4,53.7z"/>
		<path class="st85" d="M186.3,57.3c-0.2-0.2-0.5-0.3-0.7-0.5c-0.1-1.1-0.6-2-0.3-3.2c0.3-1.3-0.7-2.6-1.4-3.8
			c-0.2-0.3-0.5-0.7-0.5-1.1c0.4,0.5,0.8,1.1,1.3,1.6c0.9,0.8,1.6,1.8,1.4,3.1c0.1,1,0.3,1.9,0.2,2.9c0,0.3,0.2,0.5,0.5,0.7
			C186.7,57.3,186.5,57.3,186.3,57.3z"/>
		<path class="st86" d="M187,50.1c0,0.3,0,0.5,0,0.8c-0.6-0.3-0.9-1-1.5-1.2c-0.5-0.8-1.5-1.2-1.8-2.2c-0.1-0.1-0.3-0.2-0.4-0.4
			c-0.1-0.3-0.6-0.5-0.4-0.9c0.1-0.1,0.2-0.1,0.3-0.2c0.7,0.1,0.9,0.7,1.1,1.2c0.6,0.7,0.9,1.7,1.8,2.2
			C186.4,49.6,186.9,49.6,187,50.1z"/>
		<path class="st85" d="M182,43.8c0.3,0.7,0.6,1.5,0.7,2.3C182,45.5,181.9,44.7,182,43.8z"/>
		<path class="st87" d="M185.6,20.6c-0.4-1.3-1.2-2.5-2.1-3.6c1.8,0.9,2.9,1.9,2.6,4.1C185.8,21,185.9,20.6,185.6,20.6z"/>
		<path class="st12" d="M191,28.2c-0.2-0.5-0.2-0.9,0.2-1.5C191.2,27.3,191.2,27.8,191,28.2z"/>
		<path class="st88" d="M187.4,56.2c0.2-1,0.2-1.9,0.2-2.9c0.2,0,0.4-0.1,0.4-0.3c0.4-2.1,1.7-3.6,3.2-4.9c0.7-0.6,1.3-1.3,1.9-2
			c-0.5,1.7-1.8,2.8-2.8,4.2c-0.6,0.9-0.9,2-1.7,2.8c-0.3,0.3-0.1,0.6,0.3,0.6c-0.1,0.2-0.2,0.4-0.1,0.7
			C188.4,55,187.9,55.6,187.4,56.2z"/>
		<path class="st89" d="M183.4,72.1c-0.2-0.9-0.4-1.8-0.6-2.8c0.6,0.1,0.5,0.6,0.9,0.8c0.1,0.4,0.3,0.7,0.4,1.1
			c0.2,0.9,0.3,1.8,0.2,2.7c-0.1,0.3-0.2,0.5-0.4,0.9C183.3,73.9,183.9,72.9,183.4,72.1z"/>
		<path class="st12" d="M194.1,42.1c0.4-0.3,0.1-0.8,0.4-1.1c0.3,0.9-0.3,1.6-0.3,2.4C194.2,42.9,194.1,42.5,194.1,42.1
			C194.1,42.1,194.1,42.1,194.1,42.1z"/>
		<path class="st90" d="M187,50.1c-0.3-0.2-0.6-0.4-0.9-0.6c0.1-0.1,0.2-0.1,0.1-0.2c-0.7-2-0.1-4.3-1.7-6.1c-0.2-0.2-0.4-0.6-0.4-1
			c1.7,2,2.8,4.1,2.9,6.8c0,0.3,0,0.7,0.4,0.8c-0.1,0.1-0.1,0.2-0.2,0.3C187.1,50.1,187.1,50.1,187,50.1L187,50.1z"/>
		<path class="st91" d="M179.8,64.7c-0.1,0-0.2,0-0.2,0c-0.4-3.2-0.3-6.4-0.1-9.6C179.6,58.3,179.4,61.5,179.8,64.7z"/>
		<path class="st92" d="M181.8,52.6c0.2,0.8,0.3,1.6,0.5,2.4c0.5,1.1,1.3,1.9,1.7,3.1c0.3,0.9,0.7,1.9,0.3,2.9
			c-0.2,0.4,0.1,0.9,0.2,1.3c0.1,0.4,0.5,0.8,0.2,1.2c-1.3-0.6-2.6-1.1-3.2-2.6c-0.1-0.4-0.3-0.8-0.4-1.2c0.5,0.6,1.1,1.2,1.6,1.8
			c0,0,0.1,0,0.1,0c-0.2-0.4-0.4-0.9-0.6-1.3c0-2.2-0.2-4.3-1-6.4c-0.5-1.4-1-2.8-0.4-4.3C181.2,50.5,181.2,51.7,181.8,52.6z"/>
		<path class="st93" d="M187,40c0.1,1,0.3,1.9,0.4,2.9c0,0.3,0.1,0.6,0.4,0.7c0,0.1,0,0.2-0.1,0.3c0,0-0.1,0-0.1,0
			c-0.4,0.1-0.7,0-0.7-0.5c-0.5-1.2-1.2-2.3-0.9-3.7c0.1-0.7-0.5-1.4-0.9-2c-0.3-0.5-0.8-1-0.9-1.6c0.2,0.2,0.4,0.3,0.6,0.5
			c0.9,0.7,1.5,1.5,1.9,2.5C187,39.3,187.2,39.7,187,40z"/>
		<path class="st94" d="M184.7,63.5c-0.2-0.5-0.4-1.1-0.7-1.6c-0.2-0.4-0.2-0.8,0-1.2c0.5-1.2-0.3-2.2-0.7-3.2
			c-0.4-0.8-0.9-1.5-1.1-2.4c0.3,0.3,0.6,0.6,0.8,0.9c0.9,1,1.6,2.2,2,3.6c0.1,0.4,0.4,0.8,0,1.2c0,0.7,0,1.3,0,2
			c-0.1,0.8,0.2,1,0.9,0.7c-0.1,1-0.8,0.6-1.3,0.7C184.7,63.9,184.7,63.7,184.7,63.5z"/>
		<path class="st8" d="M184.2,47.3c-0.5-0.3-0.8-0.7-1.1-1.2c-0.8-2.3-1-4.7-1.2-7.1c0.6,0.9,0.5,2,1,2.9
			C184,43.5,184,45.4,184.2,47.3z"/>
		<path class="st70" d="M187,43.4c0.2,0.2,0.5,0.3,0.7,0.5c0,0.2,0,0.4,0,0.8c-0.5-0.6-0.9-1.1-1.4-1.5
			C186.5,43.2,186.7,43.3,187,43.4z"/>
		<path class="st95" d="M187,40c-0.4-1.4-1.3-2.4-2.1-3.6c2,0.7,3.5,3.2,3,5C187.3,41.2,187.5,40.4,187,40z"/>
		<path class="st96" d="M186.1,53.5c-0.2-1.1-0.9-2.1-1.4-3.1c1.5,0.3,2,1.7,2.3,3.1c0.1,0.4,0.1,0.8-0.1,1.2
			C186.2,54.5,186.5,53.8,186.1,53.5z"/>
		<path class="st97" d="M183.6,47.6c0.7,0.7,1.5,1.2,1.8,2.2c-0.7-0.5-1.5-1-1.9-1.8C183.4,47.8,183.5,47.7,183.6,47.6z"/>
		<path class="st79" d="M185.2,60.7c-0.3-1.7-1.3-3.2-2-4.7c1.5,1.2,2.8,2.4,2.8,4.5c0,0.5,0.1,0.9-0.3,1.2
			C185.2,61.5,185.6,60.9,185.2,60.7z"/>
	</g>
</g>
</svg>
