<?xml version="1.0" encoding="utf-8"?>
<!-- Generator: Adobe Illustrator 23.0.1, SVG Export Plug-In . SVG Version: 6.00 Build 0)  -->
<svg version="1.1" id="Calque_1" xmlns="http://www.w3.org/2000/svg" xmlns:xlink="http://www.w3.org/1999/xlink" x="0px" y="0px"
	 viewBox="0 0 300 80" style="enable-background:new 0 0 300 80;" xml:space="preserve">
<style type="text/css">
	.st0{fill:#089447;}
	.st1{fill:#1A2955;}
	.st2{fill:#E01F26;}
	.st3{fill:#FFFFFF;}
	.st4{fill:#18793D;}
	.st5{fill:#F6D277;}
	.st6{fill:#D98B33;}
	.st7{fill:#E6B555;}
	.st8{fill:#F4C768;}
	.st9{fill:#F5D06A;}
	.st10{fill:#D78935;}
	.st11{fill:#F7F8F7;}
	.st12{fill:#F9D66D;}
	.st13{fill:#E1AD4F;}
	.st14{fill:#F8D369;}
	.st15{fill:#F8D775;}
	.st16{fill:#F7D576;}
	.st17{fill:#E0A64C;}
	.st18{fill:#E6AE4A;}
	.st19{fill:#F7D97D;}
	.st20{fill:#ECCEA3;}
	.st21{fill:#CE7C29;}
	.st22{fill:#E9BB5C;}
	.st23{fill:#D48F37;}
	.st24{fill:#E1A449;}
	.st25{fill:#C87729;}
	.st26{fill:#E5AC4C;}
	.st27{fill:#F5CA6F;}
	.st28{fill:#F0E2CF;}
	.st29{fill:#D28F36;}
	.st30{fill:#F6D881;}
	.st31{fill:#CD7A29;}
	.st32{fill:#EDCFA3;}
	.st33{fill:#E6AA4F;}
	.st34{fill:#D8923D;}
	.st35{fill:#ECCEA5;}
	.st36{fill:#CA812A;}
	.st37{fill:#BF6928;}
	.st38{fill:#ECD0AF;}
	.st39{fill:#EAC99F;}
	.st40{fill:#EECFA4;}
	.st41{fill:#F1D4A9;}
	.st42{fill:#B75D27;}
	.st43{fill:#E8C294;}
	.st44{fill:#E5BB8C;}
	.st45{fill:#ECCDA2;}
	.st46{fill:#EDCC9B;}
	.st47{fill:#CA7729;}
	.st48{fill:#E6AD4D;}
	.st49{fill:#E2A74C;}
	.st50{fill:#CB7A29;}
	.st51{fill:#F7F6F4;}
	.st52{fill:#F7F8F6;}
	.st53{fill:#F8F6F1;}
	.st54{fill:#FCE47E;}
	.st55{fill:#E7B237;}
	.st56{fill:#EFB854;}
	.st57{fill:#F4EADA;}
	.st58{fill:#D78631;}
	.st59{fill:#D68A32;}
	.st60{fill:#FBE17D;}
	.st61{fill:#D68731;}
	.st62{fill:#FADA6E;}
	.st63{fill:#F5F0E8;}
	.st64{fill:#BA6328;}
	.st65{fill:#F5F0E7;}
	.st66{fill:#BF6A28;}
	.st67{fill:#F6F4EE;}
	.st68{fill:#F6EFDD;}
	.st69{fill:#F0E0D4;}
	.st70{fill:#F8F4E9;}
	.st71{fill:#D58A32;}
	.st72{fill:#CC7929;}
	.st73{fill:#ECAF4D;}
	.st74{fill:#FCF4A9;}
	.st75{fill:#ECB04D;}
	.st76{fill:#F8F5F0;}
	.st77{fill:#FDF4A2;}
	.st78{fill:#FCEBA0;}
	.st79{fill:#F7F3E9;}
	.st80{fill:#FADD74;}
	.st81{fill:#E8B542;}
	.st82{fill:#ECB357;}
	.st83{fill:#F7F3EA;}
	.st84{fill:#FCF3A5;}
	.st85{fill:#E3A84A;}
	.st86{fill:#FDEB98;}
	.st87{fill:#ECAF4C;}
	.st88{fill:#CD893A;}
	.st89{fill:#D78732;}
	.st90{fill:#ECAD4B;}
	.st91{fill:#EEB44F;}
	.st92{fill:#FCF1A4;}
	.st93{fill:#FCF6AF;}
	.st94{fill:#C17029;}
</style>
<g>
	<g id="g10" transform="matrix(1.3333333,0,0,-1.3333333,0,510.71997)">
		<g id="g16" transform="matrix(0.23999999,0,0,-0.23999999,0,383.03998)">
			<g id="g42">
				<g>
					<g id="g44">
						<g id="g50" transform="matrix(1.1814847,0,0,1.1833069,-354.06363,143.04088)">
							<path id="path54" class="st0" d="M738.4-106v-11.5c0-0.2,0.1-0.3,0.3-0.3h1.1c0.2,0,0.3,0.1,0.3,0.3v11.2
								c0,0.3,0.3,0.6,0.6,0.6c11.5,0.3,22.2,3.2,32.1,8.6c15.2,8.2,26.5,21.7,32.5,37.9c0.2,0.6,0.4,1.2,0.5,1.6
								c0.1,0.2-0.1,0.3-0.3,0.2l-65.2-40.6c-0.2-0.1-0.4-0.4-0.4-0.7v-6.5c0-0.2-0.2-0.4-0.4-0.4h-0.5c-0.3,0-0.5,0.2-0.5,0.5v6.4
								c0,0.2-0.1,0.3-0.2,0.4l-65.9,41.5c-0.2,0.1-0.3,0.1-0.2-0.2c4.5-13.9,12.6-25.3,24.1-34.2c12.2-9.4,26.1-14.2,41.7-14.5
								C738.2-105.6,738.4-105.8,738.4-106L738.4-106z"/>
							<path id="path56" class="st1" d="M498.5-26.6C498.4-26.6,498.4-26.6,498.5-26.6l-0.1,76.8c0,0.1,0.1,0.2,0.2,0.2h20.6
								c0.1,0,0.1,0,0.1,0.1v3.1c0,0.1,0,0.1-0.1,0.1H445c-0.1,0-0.1,0-0.1-0.1v-3.1c0,0,0-0.1,0.1-0.1h20.4c0.1,0,0.2-0.1,0.2-0.2
								v-151.1c0-0.1-0.1-0.2-0.3-0.2H445c-0.1,0-0.1,0-0.1-0.1v-3c0-0.1,0.1-0.1,0.1-0.1h132.9c0.1,0,0.2,0.1,0.2,0.2v37.5
								c0,0.2-0.1,0.3-0.3,0.3h-2.5c-0.2,0-0.3-0.1-0.3-0.2c-2.1-5.3-4.4-10.2-6.9-14.5c-5.4-9.3-13.2-16.1-23.8-18.8
								c-3.6-0.9-8-1.3-12.1-1.3c-7.7,0-18.9,0-33.4,0c-0.2,0-0.3,0.1-0.3,0.3v70.7c0,0.2,0.1,0.3,0.3,0.3c1.6,0,5.3,0,10.9,0
								c0.3,0,1.8,0,4.7-0.1c10.2-0.3,19-5.1,24.1-14.3c1.2-2.2,2.1-3.9,2.6-5.2c1.7-4.4,3-8.8,3.9-13.1c0-0.2,0.2-0.3,0.3-0.3h2.5
								c0.2,0,0.3,0.1,0.3,0.3V6c0,0.1-0.1,0.2-0.2,0.2h-2.6c-0.2,0-0.2-0.1-0.3-0.2c-1.3-5.1-2.7-9.5-4.1-13.3
								c-1.7-4.6-4.6-9.2-8.2-12.5c-5-4.6-11.1-6.8-18.3-6.7C510.9-26.5,505.6-26.6,498.5-26.6L498.5-26.6z"/>
							<path id="path58" class="st1" d="M322.7,51c0.1,0,0.3-0.1,0.3-0.3V-99.7c0-0.1-0.1-0.2-0.2-0.2h-20.3c-0.1,0-0.1,0-0.1-0.1
								v-3c0-0.1,0-0.1,0.1-0.1c19.9,0,32.4,0,37.4,0c9.3,0,19.1-0.6,29.6-0.6c4.2,0,7-0.1,10.3,0.2c3.3,0.2,7.1,0.7,11.3,1.4
								c2.2,0.4,4.4,1,6.4,1.4c3.5,0.8,7.3,2.3,11.4,4.3c4.9,2.4,9,5.6,12.5,9.8c3.6,4.3,5.8,9.3,6.4,15c0.8,6.9-0.1,13.9-4,19.6
								c-7.2,10.6-20,16.5-32,19.4c-2.9,0.7-5.8,1.3-8.8,1.8c-0.2,0-0.3,0.2-0.3,0.3c0,0.2,0.1,0.3,0.4,0.3c8,0.7,15.3,2.1,22.1,4
								c2.5,0.7,5.5,1.9,8.9,3.5c7.4,3.5,13.2,8.6,17.5,15.3c5.4,8.3,5.9,20.1,3.6,29.4c-1,3.8-2.7,7.3-5.1,10.5
								c-7.8,10.2-19.3,16.2-31.7,19.2c-7.2,1.7-14.6,2.7-22.3,2.8c-4.3,0.1-13.3,0-27-0.2c-9.8-0.1-22.3-0.1-46.4-0.1
								c-0.1,0-0.1,0-0.1-0.1v-3c0-0.1,0-0.1,0.1-0.1L322.7,51z"/>
							<path id="path60" class="st0" d="M648.7,84c0,0.1-0.1,0.3-0.3,0.3h-5.1c-0.1,0-0.3-0.1-0.3-0.3v-189.8c0-0.1,0.1-0.3,0.3-0.3
								h5.1c0.1,0,0.3,0.1,0.3,0.3V84z"/>
							<path id="path62" class="st2" d="M659.4,83.9c0,0.2-0.2,0.4-0.4,0.4h-4.7c-0.2,0-0.4-0.2-0.4-0.4v-189.5
								c0-0.2,0.2-0.4,0.4-0.4h4.7c0.2,0,0.4,0.2,0.4,0.4V83.9z"/>
							<path id="path64" class="st3" d="M355.6-32v-67.7c0-0.1,0.1-0.2,0.2-0.2c6.6-0.8,13.5-1.1,19.9,0.4c7,1.6,12.2,5.6,14.8,12.4
								c1.5,4,2.5,8.1,2.9,12.6c0.7,7.2,0.7,14.2,0,21c-0.4,3.7-1.4,7.2-3,10.3c-3.2,6.3-9.8,9.8-16.7,10.8
								c-5.9,0.9-11.4,0.7-17.8,0.6C355.7-31.8,355.6-31.9,355.6-32L355.6-32z"/>
							<path id="path66" class="st0" d="M702.9-53.6l-33.6,21.7c-0.2,0.1-0.3,0.1-0.3-0.2c-0.4-5.8,0.1-11.6,1.3-17.5
								c0.3-1.6,0.7-3.1,1.2-4.6c0.1-0.3,0.3-0.6,0.6-0.8l66.2-41.7c0.1-0.1,0.3,0,0.3,0.2v21.1c0,0.2-0.2,0.4-0.4,0.4
								c-3.1,0.1-6.6,0.5-9.6,1.2c-5.7,1.5-10.7,4-15.1,7.5c-0.8,0.6-2.2,2-4.3,4.2c-2.6,2.7-4.1,4.9-5.9,7.8
								C703.1-53.8,702.9-53.6,702.9-53.6L702.9-53.6z"/>
							<path id="path68" class="st0" d="M780-50.8c-1.4-1-2.9-1.8-4.1-3c-0.2-0.2-0.4-0.4-0.5-0.6c-3.3-5.5-7.7-10-13.2-13.4
								c-6.7-4.2-13.9-6.6-21.8-7.1c-0.2,0-0.4-0.2-0.4-0.4v-20.9c0-0.2,0.2-0.3,0.3-0.2c23.5,14.6,45.3,28.1,65.3,40.7
								c0.8,0.5,1.3,0.8,1.5,1.8c1.3,5.8,2.1,9.9,2.3,12.3c0.2,3.1,0.3,6.2,0.2,9.3c0,0.2-0.1,0.3-0.3,0.2c-0.3-0.1-0.6-0.2-0.9-0.4
								C798.9-38.6,789.4-44.7,780-50.8L780-50.8z"/>
							<path id="path74" class="st4" d="M738.6-54.2c-3.4,0.1-6.5,0.8-9.2,2.2c-13.6,6.9-15.4,25.3-3.6,34.8
								c3.6,2.9,7.8,4.3,12.8,4.4l0,20.4c0,0.2-0.1,0.3-0.3,0.3c-5,0-9.7-0.8-14.3-2.6c-2-0.8-3.9-1.6-5.7-2.4
								c-1.2-1.1-2.5-2-3.9-2.8c-1.1-0.6-1.9-1.3-2.6-1.9c-0.8-0.7-1.6-1.4-2.5-2.2c-1-0.9-2.8-3.2-5.4-7
								c-10.8-17.4-7.8-38.8,6.6-53.1c1.3-1.3,3.3-2.8,6-4.6c0.7-0.5,1.7-1,2.8-1.4c1.2-0.5,2.5-1.3,3.7-1.8c4.9-1.9,9.9-2.9,15-3.2
								c0.3,0,0.6,0.3,0.6,0.6L738.6-54.2L738.6-54.2z"/>
							<path id="path78" class="st0" d="M697.5-27.9l-24.7,15.5c-0.1,0.1-0.3,0-0.3-0.1c-1.9-5.5-3-11.2-3.5-17c0-0.4,0.2-0.8,0.5-1
								c13.8-8.8,24.1-15.4,30.9-19.8c0.8-0.5,1.4-1.4,2-2.9c0-0.1,0.1-0.1,0.1-0.1h0.2c0.1,0,0.1,0,0.1,0.1c-0.6,1.4-1.5,2.7-2,4
								c-3.8,9.4-4.2,19.9-0.5,29.4c0.2,0.6,0.2,1.3,0.4,1.8c1.8,3.8,2.9,6,3.5,6.6c0.6,0.7,1.1,1.4,1.6,2.1c1.2,1.9,2.3,3.1,4.1,5
								c2.5,2.8,5.6,5.1,9.2,7c0.2,0.1,0.2,0.4,0,0.5c-14.2,9-23.5,14.8-27.6,17.5c0,0-0.2,0.2-0.6,0.5c-0.2,0.2-0.4,0.2-0.7,0.1
								c-0.2-0.1-0.3-0.2-0.5-0.5c-3.1-4.5-5.9-9.1-8.4-13.9c-0.1-0.2,0-0.4,0.1-0.5l23.9-15c0.2-0.2,0.3-0.5,0.2-0.7l-0.2-0.3
								c-0.2-0.3-0.4-0.3-0.7-0.2l-24,15.1c-0.1,0.1-0.3,0-0.3-0.1c-2.8-5.3-5.6-10.9-7.1-16.3c-0.1-0.2,0-0.3,0.2-0.4
								c0.5-0.3,1-0.4,1.6-0.8c7.2-4.6,14.8-9.3,22.6-14.1c0.2-0.1,0.3-0.3,0.3-0.5v-1C697.8-28,697.7-28.1,697.5-27.9L697.5-27.9z"
								/>
							<path id="path80" class="st2" d="M738.6-54.2c7.5,0.3,13.3,3.5,17.5,9.6c0,0,0,0.1,0,0.1l0,0c0,0-0.1,0-0.1,0
								c-4.7-4.9-10.4-6.6-17.1-4.9c-0.1,0-0.1,0-0.2,0.1c0,0.1-0.1,0.1-0.1,0.2c-0.3-0.2-0.5-0.2-0.6,0
								c-14.7,5.5-14.5,25.9,0.2,31.3c0.1,0,0.2,0,0.3,0l0.1-0.1c0,0,0,0.1,0,0.2c0,0.1,0.1,0.1,0.2,0.1c6.7,1.7,12.5,0.1,17.1-4.9
								c0,0,0.1-0.1,0.1,0l0,0c0,0,0,0.1,0,0.1c-3.8,5.6-9.1,8.8-15.9,9.5c-0.5,0.1-1.1,0.1-1.6,0.1c-5-0.1-9.2-1.5-12.8-4.4
								c-11.9-9.5-10-27.9,3.6-34.8C732.1-53.4,735.1-54.2,738.6-54.2L738.6-54.2L738.6-54.2z"/>
							<path id="path82" class="st0" d="M780.4-48.9c9.5,6.1,18.9,12.1,28.4,18.2c0.5,0.3,0.7,0.7,0.7,1.2
								c-0.6,5.7-1.7,11.4-3.5,16.8c-0.1,0.2-0.2,0.2-0.4,0.1l-20.8-13.1l-3.7-2.8c-0.1-0.1-0.2-0.2-0.2-0.4
								c0.6-6.8-0.2-13.5-2.6-19.8c-0.2-0.5-0.5-1-0.7-1.4c-0.2-0.7,0-0.8,0.5-0.3C778.7-49.8,779.4-49.4,780.4-48.9L780.4-48.9z"/>
							<path id="path84" class="st4" d="M738.6-49.1V-18l-0.1,0.1c-0.1,0.1-0.2,0.1-0.3,0c-14.7-5.4-14.9-25.8-0.2-31.3
								C738.1-49.3,738.3-49.3,738.6-49.1L738.6-49.1L738.6-49.1z"/>
							<path id="path86" class="st2" d="M750.2-35.8l6.4,2.1c0.2,0.1,0.2,0.3,0,0.4l-6.4,2.1c-0.1,0-0.1,0.1-0.1,0.2l0,6.8
								c0,0.2-0.3,0.3-0.4,0.1l-4-5.5c-0.1-0.1-0.1-0.1-0.2-0.1l-6.4,2.1c-0.2,0.1-0.4-0.2-0.2-0.3l3.9-5.5c0.1-0.1,0.1-0.2,0-0.2
								l-3.9-5.5c-0.1-0.2,0-0.4,0.2-0.3l6.4,2.1c0.1,0,0.2,0,0.2-0.1l4-5.5c0.1-0.2,0.4-0.1,0.4,0.1l0,6.8
								C750.1-36,750.1-35.9,750.2-35.8L750.2-35.8z"/>
							<path id="path88" class="st0" d="M784.2-24.2l21,13.1c0.1,0.1,0.2,0.3,0.1,0.4c-2,5.6-4.4,10.9-7.2,16.1
								c-0.1,0.1-0.2,0.2-0.3,0.1l-23.6-15c-0.1-0.1-0.2-0.3-0.2-0.5c0-0.1,0-0.3,0.1-0.5c2-3.1,3.6-6.3,4.9-9.7
								c0.7-1.8,0.9-3,1.3-5.3c0.1-0.4,0.5-0.6,0.8-0.4L784.2-24.2z"/>
							<path id="path90" class="st3" d="M384-25.3c9.6,5.8,14.2,15.7,15.1,26.7c0.5,6.3,0.4,12.3,0,18.6c-0.4,5.7-1.6,11.7-3.8,17.1
								c-2.7,6.5-7.7,11.4-14.7,13.2c-2.9,0.7-5.4,1.1-7.6,1.2c-5.4,0.2-11,0.1-16.9-0.4c-0.3,0-0.4-0.2-0.4-0.5v-79
								c0-0.1,0.1-0.2,0.2-0.2c9-0.1,14.4-0.1,16.1,0c1.8,0.1,4.1,0.5,6.8,1.2C380.9-26.8,382.7-26.1,384-25.3L384-25.3z"/>
							<path id="path92" class="st0" d="M774.6-7.7L797,6.5c0.2,0.1,0.3,0.4,0.2,0.6c-2.6,4.7-5.4,9.4-8.5,13.8
								c-0.1,0.2-0.5,0.3-0.7,0.1L759.5,3.4c-0.4-0.2-0.7-0.2-1.1,0L758,3.7c-0.2,0.1-0.2,0.2,0,0.4l29,18c0.5,0.3,0.6,0.7,0.2,1.2
								l-10.3,13.3c-0.1,0.1-0.3,0.2-0.4,0.1l-36-23c-0.3-0.2-0.4-0.4-0.4-0.7V8.2c0-0.2,0.2-0.4,0.4-0.4c6-0.2,11.6-1.6,16.8-4.2
								c0.7-0.3,1.1-0.5,1.3-0.6c1.7-0.7,3.3-1.5,4.8-2.5c3.6-2.4,6.8-5.4,9.4-8.8c0.1-0.2,0.3-0.2,0.5-0.1L774.6-7.7z"/>
							<path id="path96" class="st0" d="M703,36.2c-0.4,0.3-0.7,0.7-0.9,0.8c-0.2,0.1-0.3,0.1-0.4,0L691,23
								c-0.1-0.1-0.1-0.2,0.1-0.3c4.1-2.6,13.7-8.7,29-18.4c0.5-0.3,0.9-0.3,1.3-0.1c3.4,1.5,6.5,2.6,9.2,3.1c2,0.4,4.4,0.6,7.4,0.8
								c0.3,0,0.5,0.2,0.5,0.5v4.7c0,0.2-0.1,0.4-0.3,0.5C718.2,26.5,706.4,34,703,36.2L703,36.2L703,36.2z"/>
							<path id="path98" class="st0" d="M713.4,52.1l-10.7-13.8c-0.1-0.1-0.1-0.3,0.1-0.4l35.5-22.7c0.2-0.1,0.4,0,0.4,0.2v20.2
								c0,0.1,0,0.2-0.1,0.2l-24.8,16.3C713.6,52.3,713.5,52.2,713.4,52.1L713.4,52.1z"/>
							<path id="path100" class="st0" d="M775.7,38.2l-10.6,13.6c-0.1,0.2-0.3,0.2-0.5,0.1l-24.5-16.1c-0.1-0.1-0.2-0.2-0.2-0.3
								V15.6c0-0.3,0.3-0.5,0.6-0.3l35.1,22.3C775.8,37.8,775.9,38.1,775.7,38.2L775.7,38.2z"/>
							<path id="path102" class="st0" d="M715,52.9c5.1-3.3,12.8-8.4,23.2-15.3c0.2-0.1,0.4,0,0.4,0.2v19.8c0,0.3-0.1,0.5-0.4,0.7
								l-13,8.8c-0.1,0.1-0.2,0-0.2,0l-10.6-13.7c-0.1-0.1,0-0.3,0.1-0.3c0,0,0.1,0,0.3-0.1C714.8,53,714.9,53,715,52.9z"/>
							<path id="path104" class="st0" d="M764,53.5l-10.3,13.3c-0.1,0.1-0.3,0.1-0.4,0.1l-13.2-8.6c-0.1-0.1-0.1-0.1-0.1-0.2V37.9
								c0-0.2,0.3-0.4,0.4-0.2L763.9,53C764.1,53.1,764.1,53.3,764,53.5L764,53.5z"/>
							<path id="path106" class="st0" d="M740,83.4V60.3c0-0.3,0.3-0.4,0.5-0.3l11.9,7.8c0.2,0.1,0.2,0.3,0.1,0.5l-11.9,15.3
								C740.4,83.9,740,83.7,740,83.4L740,83.4z"/>
							<path id="path108" class="st0" d="M738.1,84L726,68.5c-0.1-0.1-0.1-0.3,0.1-0.4l12.1-7.9c0.2-0.1,0.4,0,0.4,0.2v23.5
								C738.6,84.1,738.2,84.2,738.1,84z"/>
							<path id="path110" class="st0" d="M537.1,85.7c-0.2,0.3-0.3,0.7-0.4,1.1c0,0.2-0.1,0.3-0.3,0.3h-0.1c-0.2,0-0.3-0.1-0.3-0.3
								V78c0-0.1,0.1-0.2,0.2-0.2h0.4c0.2,0,0.3,0.1,0.3,0.3c0.3,4.3,1.9,8.9,7.1,8.2c3.4-0.5,4.2-4.1,2.4-6.6
								c-0.6-0.8-1.4-1.6-2.5-2.3c-3.7-2.6-7.9-4.6-7.8-9.2c0.1-5.4,6.2-6.6,10.4-5.7c1,0.2,2.2,1,3.3,1.5c0.1,0.1,0.3,0,0.4-0.1
								c0.3-0.3,0.4-0.6,0.5-1.1c0-0.2,0.1-0.3,0.3-0.3h0.2c0.2,0,0.3,0.1,0.3,0.3l-0.2,7.2c0,0.2-0.1,0.2-0.2,0.2h-0.1
								c-0.2,0-0.4-0.2-0.4-0.4c-0.3-3-1.9-6.4-5.2-6.9c-3.5-0.4-5.5,3-3.5,5.8c0.5,0.7,1.2,1.4,2.2,2c2.6,1.7,4.5,3,5.5,3.8
								c4.4,3.3,4.5,9.6-1,11.8c-3.3,1.3-7.5,0.9-10.5-1C537.6,85.4,537.3,85.5,537.1,85.7L537.1,85.7z"/>
							<path id="path112" class="st0" d="M355.8,77.6c-0.1,0-0.1,0-0.2,0.1c-0.8,1.9-1.4,3.6-1.7,5c-0.5,2.2,0.4,3.3,2.7,3.3
								c0.1,0,0.3,0.1,0.3,0.3v0.2c0,0.1-0.1,0.2-0.2,0.2l-6.2,0c-0.2,0-0.4,0-0.4-0.1c0,0,0-0.1,0-0.1c0-0.1,0.1-0.2,0.2-0.3
								c1.1-0.6,2-1.8,2.7-3.5c1.1-2.7,3.7-9.3,7.8-19.9c0.1-0.1,0.2-0.2,0.3-0.2h1.9c0.2,0,0.3,0.1,0.4,0.2
								c4.9,12.7,7.7,19.9,8.5,21.7c0.2,0.5,0.4,0.9,0.6,1c0.5,0.5,1.1,0.6,1.7,0.4c1-0.4,0.9-1.7,0.9-2.7c0-6.3,0-12.3,0-17.9
								c0-1.7-1.2-1.7-2.4-2c-0.1,0-0.1-0.1-0.1-0.2v-0.1c0-0.2,0.1-0.3,0.3-0.3h10.3c0.2,0,0.3,0.1,0.3,0.3v0.2
								c0,0.1-0.1,0.2-0.2,0.2c-2.8-0.3-2.5,1.8-2.5,4c0,6,0,11.7,0,17c0,1,0.5,1.5,1.5,1.6c1.4,0.1,3,0.2,4.2-0.4
								c2.5-1.2,3.9-4.4,4.3-7c0-0.2,0.1-0.3,0.3-0.3h0.3c0.2,0,0.3,0.1,0.3,0.3v8c0,0.1,0,0.1-0.1,0.1h-27.6
								c-0.2,0-0.3-0.1-0.3-0.3v-0.2c0-0.1,0.1-0.2,0.2-0.2c1.2,0,2.7-0.2,2.2-1.8c-0.4-1.2-1.1-3.4-2.3-6.5c0-0.1-0.1-0.1-0.2-0.1
								L355.8,77.6z"/>
							<path id="path114" class="st0" d="M515,75.2c1.9,0.3,3.7,0.7,4.9,2.1c0.4,0.5,0.8,1.6,1.2,3.2c0.5,1.9,0.9,6.9,3.5,4.4
								c0.2-0.1,0.3-0.1,0.4,0l0.1,0.1c0.1,0.1,0.1,0.2,0,0.3c-1.6,1.6-3.5,2.1-5.9,1.6c-1.6-0.3-2.6-1.3-2.9-2.8
								c0-0.1-0.4-2-1.2-5.8c-0.2-0.9-0.5-1.7-1-2.4c-0.7-0.9-2.5-0.8-3.7-0.8c-0.1,0-0.2,0.1-0.2,0.2c0,2.3,0,4.7,0,7
								c0,2-0.2,3.7,2.3,3.5c0.2,0,0.3,0.2,0.3,0.3l0,0.1c0,0.1-0.1,0.2-0.2,0.2h-10c-0.1,0-0.2,0-0.3-0.1c-0.1-0.1-0.2-0.1-0.4,0
								c-0.1,0-0.2,0.1-0.3,0.1h-19.2c-0.1,0-0.2-0.1-0.2-0.2v-0.2c0-0.1,0.1-0.2,0.2-0.2c1.1-0.1,2.7-0.3,2.2-1.8
								c-0.5-1.4-1.2-3.6-2.4-6.5c-0.1-0.1-0.2-0.2-0.3-0.2h-6.9c-0.2,0-0.3,0.1-0.3,0.2c-0.8,2-1.4,3.7-1.7,5.1
								c-0.5,2.3,0.8,2.9,2.8,3.1c0.1,0,0.2,0.1,0.2,0.2l0,0.2c0,0.1-0.1,0.2-0.2,0.2h-32.4c-0.2,0-0.3-0.1-0.3-0.3v-0.2
								c0-0.1,0-0.1,0.1-0.1c1.1-0.1,2.7-0.2,2.3-1.7c-0.2-0.7-1-2.9-2.4-6.6c-0.1-0.1-0.2-0.2-0.3-0.2h-6.9c-0.2,0-0.3,0.1-0.3,0.2
								c-1,2.4-1.6,4.2-1.7,5.3c-0.3,2.4,1,2.7,2.9,3c0.1,0,0.2,0.1,0.2,0.2l0,0.2c0,0.1-0.1,0.2-0.3,0.2c-1,0-3.1-0.1-6.3-0.1
								c-0.1,0-0.2,0-0.3-0.1c-0.1-0.1-0.1-0.3,0.1-0.4c1.2-0.6,2.1-1.6,2.6-2.9c1.6-4.2,4.3-11,8-20.5c0-0.1,0.2-0.2,0.3-0.2h2
								c0.1,0,0.2,0.1,0.3,0.2c4.2,10.9,7.1,18.2,8.5,21.8c0.2,0.4,0.5,0.7,0.9,1c0.1,0.1,0.2,0.1,0.3-0.1l11.2-21.8
								c0.1-0.1,0-0.2-0.1-0.2c-3.8-0.1-7.6-0.3-9.4,3.6c-0.4,0.8-0.6,1.8-0.8,3.2c0,0.2-0.2,0.3-0.4,0.3l-0.3-0.1
								c-0.1,0-0.1-0.1-0.1-0.2v-7.4c0-0.1,0-0.1,0.1-0.1h16.7c0.5,0,0.7,0.2,0.4,0.7l-11.5,22.4c0,0.1,0,0.2,0.1,0.2
								c3.3,0,6.1,0.3,8.4-2.1c1.3-1.3,1.9-3,2.1-5c0-0.2,0.2-0.3,0.4-0.3h0.2c0.2,0,0.3,0.1,0.3,0.3v6.5c0,0.2,0.2,0.3,0.3,0.1
								c0.7-0.9,1.4-2,1.9-3.3c3.4-8.9,6-15.4,7.6-19.5c0-0.1,0.1-0.2,0.3-0.2h1.9c0.2,0,0.3,0.1,0.3,0.2c4.9,12.8,7.7,20,8.5,21.7
								c0.2,0.4,0.4,0.7,0.5,0.9c0.9,1,2.3,0.8,2.6-0.6c0.1-0.4,0.1-0.9,0.1-1.5c0-7.9,0-13.9,0-18.1c0-1.7-1.2-1.8-2.5-2
								c-0.1,0-0.2-0.1-0.1-0.2l0-0.2c0-0.1,0.1-0.2,0.3-0.2h9.9c0.1,0,0.2,0,0.3,0.1c0.1,0.1,0.3,0.1,0.4,0
								c0.1-0.1,0.2-0.1,0.3-0.1c1.8,0,5.8,0,11.8,0c2,0,5.2,0.8,6.6,2.4c1.9,2.2,1.6,5.3-0.2,7.4c-1.5,1.8-3.3,2.1-5.6,2.6
								C514.7,75.2,514.7,75.2,515,75.2L515,75.2z"/>
							<path id="path116" class="st0" d="M313.6,74.1c1,0.1,1.9,0.3,2.8,0.5c3.3,0.7,6,3.3,5.3,7c-0.9,4.2-5.7,5.3-9.5,5.2
								c-3.3-0.1-7-0.1-10.9,0c-0.1,0-0.2-0.1-0.2-0.2v-0.2c0-0.1,0-0.1,0.1-0.2c1.5-0.2,2.5-0.4,2.5-2.1c0-7,0-13,0-18.2
								c0-1-0.2-1.6-0.5-2c-0.2-0.1-0.3-0.2-0.4-0.3l-1.6-0.3c-0.1,0-0.1-0.1-0.1-0.2l0-0.2c0-0.1,0.1-0.2,0.2-0.2c3.2,0,7,0,11.3,0
								c3.1,0,6.8,1.2,7.5,4.5c0.8,3.9-3.3,6.1-6.4,6.8C313.3,74,313.3,74,313.6,74.1L313.6,74.1z"/>
							<path id="path118" class="st0" d="M330,75.1c-0.1,0-0.2,0.1-0.2,0.2c0,2.9,0,5.7,0,8.5c0,2.1,1.7,2.1,3.4,2.2
								c0.1,0,0.3,0.1,0.3,0.3v0.2c0,0.1-0.1,0.3-0.3,0.3h-11.2c-0.1,0-0.3-0.1-0.3-0.3v-0.2c0-0.1,0.1-0.2,0.3-0.2
								c2.6,0.2,2.3-1.8,2.3-3.9c0-2.9,0-8.6,0-16.9c0-1.7-1.1-1.9-2.4-2c-0.1,0-0.2-0.1-0.2-0.2v-0.1c0-0.2,0.1-0.3,0.3-0.3h17.8
								c0.1,0,0.2,0.1,0.2,0.2l-0.2,7.4c0,0.1-0.1,0.3-0.2,0.2l-0.1,0c-0.2,0-0.3-0.2-0.3-0.4c-0.8-4.7-2.7-7.2-7.9-6.6
								c-1.6,0.2-1.4,1.3-1.4,2.7c0,1.5,0,4.1,0,7.9c0,0.1,0.1,0.2,0.2,0.3c3,0.5,4.5-1.7,5-4.2c0-0.2,0.1-0.2,0.3-0.2h0.3
								c0.1,0,0.2,0.1,0.2,0.2v9.3c0,0.1-0.1,0.2-0.2,0.2h-0.2c-0.2,0-0.4-0.1-0.4-0.4C334.6,76.2,332.9,74.9,330,75.1L330,75.1z"/>
							<path id="path120" class="st0" d="M397,86.1c1.4-0.1,2.4-0.4,2.4-2c0-4.6,0-10.6,0-17.9c0-2-0.1-2.8-2.5-3
								c-0.1,0-0.1-0.1-0.1-0.2v-0.2c0-0.1,0.1-0.2,0.2-0.2c3.7,0,7.4,0,11.1,0c2.4,0,4.6,0.4,6.6,1.3c5,2.1,6.6,7.7,5.8,12.8
								c-1.1,6.6-6.5,10.1-12.9,10.1c-4.4,0-7.9,0-10.5,0c-0.2,0-0.3-0.1-0.3-0.3v-0.2C396.8,86.2,396.9,86.1,397,86.1L397,86.1z"/>
							<path id="path122" class="st0" d="M431.4,63.3c-2.1-0.1-2.4,1-2.4,2.9c0,5.6,0,11.2,0,16.8c0,1.7-0.2,4.3-1.2,6
								c-1.6,3-5.1,4.2-8.4,4.1c-0.2,0-0.2-0.1-0.2-0.2c0-0.2,0.1-0.3,0.4-0.4c3.9-0.6,4-4.7,4-7.8c0-6.7,0-13.2,0-19.5
								c0-1.6-1.2-1.7-2.4-1.9c-0.1,0-0.2-0.1-0.2-0.2v-0.1c0-0.2,0.1-0.2,0.2-0.2h10.1c0.2,0,0.3,0.1,0.3,0.3v0.2
								C431.6,63.3,431.5,63.3,431.4,63.3L431.4,63.3z"/>
							<path id="path124" class="st3" d="M504.6,84.2c0,1.1-0.9,1.9-1.9,1.9h-1.5c-1.1,0-1.9-0.9-1.9-1.9v-19c0-1.1,0.9-1.9,1.9-1.9
								h1.5c1.1,0,1.9,0.9,1.9,1.9V84.2z"/>
							<path id="path126" class="st3" d="M309.1,73.8c0-4.1,0-7,0-8.7c0-1,0.4-1.7,1.5-1.8c1.9-0.2,3.1,0.7,3.6,2.5
								c0.5,2.2,0.5,5.8-1.4,7.4C312,74,310.2,74,309.1,73.8C309.1,73.9,309.1,73.8,309.1,73.8L309.1,73.8z"/>
							<path id="path128" class="st3" d="M404.9,65.2c0-1.1,0.9-2.1,2.1-2.1h1.1c3.8,0,6.9,3.9,6.9,8.8l0,5.5c0,4.8-3.1,8.8-6.9,8.8
								h-1.1c-1.1,0-2.1-0.9-2.1-2.1L404.9,65.2z"/>
							<path id="path130" class="st3" d="M510.3,74.6c-0.2,0-0.3-0.1-0.3-0.3c0-4.2,0-7.2,0-9c0-2.2,1.7-2.3,3.4-1.9
								c3.2,0.8,3.2,5.3,2.7,7.8C515.4,74.5,513.1,74.6,510.3,74.6L510.3,74.6z"/>
							<path id="path132" class="st0" d="M561.7,78.6c-0.1,2.1-0.1,4.1,0.1,6c0.1,1.5,1.8,1.5,3,1.6c0.1,0,0.2,0.1,0.2,0.2v0.1
								c0,0.1-0.1,0.3-0.3,0.3h-9.6c-0.2,0-0.2-0.1-0.2-0.2v-0.1c0-0.1,0.1-0.2,0.2-0.2c1.3,0.1,2-0.7,2-2.2c0-9.2,0-14.4,0-15.7
								c0-1.4-0.9-1.6-2.1-1.8c-0.1,0-0.2-0.1-0.2-0.2V66c0-0.1,0.1-0.2,0.2-0.2c1.3,0,4.6,0,9.7,0c2,0,3.7,0.5,5.2,1.4
								c2.4,1.6,2.8,4.6,1.6,7.1c-1.8,3.6-6,3.8-9.5,3.9C561.8,78.3,561.7,78.4,561.7,78.6L561.7,78.6z"/>
							<path id="path134" class="st3" d="M561.7,67.2c0-0.5,0.4-0.8,0.8-0.8l0.8,0c2.1,0,3.7,1.9,3.7,4.3l0,2.8
								c0,2.4-1.7,4.3-3.7,4.3l-0.8,0c-0.5,0-0.8-0.4-0.8-0.8L561.7,67.2z"/>
							<path id="path136" class="st3" d="M356,76.7l3.3-8.6c0-0.1,0.2-0.1,0.3,0l3.2,8.7c0,0.1,0,0.2-0.1,0.2l-6.5,0
								C356.1,76.9,356,76.8,356,76.7L356,76.7z"/>
							<path id="path138" class="st3" d="M435.9,76.7l3.3-8.7c0-0.1,0.2-0.1,0.3,0l3.2,8.7c0,0.1,0,0.2-0.1,0.2l-6.5,0
								C435.9,76.9,435.8,76.8,435.9,76.7z"/>
							<path id="path140" class="st3" d="M475,76.7l3.3-8.7c0-0.1,0.2-0.1,0.3,0l3.2,8.7c0,0.1,0,0.2-0.1,0.2l-6.5,0
								C475,76.9,474.9,76.8,475,76.7L475,76.7z"/>
							<path id="path142" class="st0" d="M574,79.7c-0.8,1.9-2.8,6.1,0.7,6c0.1,0,0.2,0.1,0.2,0.2v0.1c0,0.1-0.1,0.2-0.2,0.2h-4.7
								c-0.1,0-0.2,0-0.2-0.1c0,0,0-0.1,0-0.1c0,0,0-0.1,0.1-0.1c0.9-0.4,1.5-1.2,2-2.3c1.7-4.3,3.6-9.3,5.9-15.1
								c0.1-0.1,0.2-0.2,0.3-0.2h1.3c0.2,0,0.3,0.1,0.3,0.2c2.4,6.2,4.5,11.6,6.3,16.2c0.1,0.4,0.6,0.7,1.3,1.1
								c0.1,0.1,0.2,0.2,0.1,0.3c0,0,0,0.1-0.1,0.1c0,0-0.1,0.1-0.2,0c-2.5-0.1-4.9-0.1-7.3,0c-0.1,0-0.2-0.1-0.2-0.2V86
								c0-0.1,0.1-0.2,0.2-0.2c1.2,0,1.8-0.4,1.6-1.2c-0.1-0.5-0.7-2.1-1.8-4.9c-0.1-0.1-0.2-0.2-0.3-0.2h-5
								C574.2,79.5,574.1,79.6,574,79.7L574,79.7L574,79.7z"/>
							<path id="path144" class="st3" d="M574.4,78.8l2.4-6.2c0-0.1,0.2-0.1,0.3,0l2.3,6.3c0,0.1,0,0.2-0.1,0.2l-4.7,0
								C574.4,79,574.4,78.9,574.4,78.8L574.4,78.8z"/>
							<path id="path146" class="st3" d="M309.2,74.5c3.7,0,6.6,0.5,6.9,4.9c0.2,3.6-1,6.7-5.1,6.6c-1.3,0-1.9-0.7-1.9-2
								c0-1.9,0-5,0-9.4C309.1,74.6,309.1,74.5,309.2,74.5z"/>
						</g>
					</g>
				</g>
			</g>
		</g>
	</g>
</g>
<g>
	<path class="st5" d="M125.6,34.6c-0.1,0.5-0.1,1.1-0.2,1.6c0.3,0,0.1-0.3,0.4-0.3c-0.3,1.1-0.5,2.2-0.7,3.3c0,0,0.1,0,0.1,0
		c0.1-0.2,0.2-0.5,0.3-0.7c0,0,0.1,0,0.1,0c-0.3,1-0.6,2-0.9,3c-0.6,2.2-1.2,4.4-1.9,6.5c-0.2,0.6-0.3,1.2-0.9,1.6
		c-0.3,0-0.4,0.2-0.5,0.4c-0.5,0.8-1.4,1.1-2.2,1.5c-0.2,0.1-0.4,0.2-0.5,0c-0.1-0.2,0-0.3,0.1-0.4c0.5-0.9,1.3-1.5,2-2.3
		c0.5-0.5,1.1-0.9,1.5-1.6c0.1-0.2,0.3-0.4,0.3-0.7c0.1-0.2,0.1-0.4,0.3-0.6c-0.5,0.6-1.1,1-1.8,1.5c-0.1,0.1-0.5,0-0.2,0.3
		c-0.2,0.2-0.4,0.2-0.7,0.3c-0.8-0.2-0.9-0.4-0.5-1c0.6-1,1.5-1.8,2.3-2.6c0.5-0.5,1-1,1.4-1.6c0.1-0.2,0.1-0.4,0.2-0.6
		c0.2-0.5,0.5-1,0.7-1.4c-0.7,0.9-1.5,1.7-2.7,2.3c-0.8,0.1-1-0.1-0.8-0.8c0.2-0.5,0.5-0.9,0.9-1.4c1-1.2,2.1-2.2,2.8-3.6
		c0.1-0.3,0.1-0.5,0.1-0.8c0.3-0.7,0.4-1.4,0.8-2.1C125.7,34.2,125.7,34.4,125.6,34.6z"/>
	<path class="st6" d="M115,31.5c0.1,0.2,0,0.5,0.2,0.6c0.2,0.1,0.4,0,0.5,0.1c0.1,0.1,0.1,0.1,0.1,0.2c0,0.2,0,0.4-0.1,0.6
		c-0.4,1.7-0.3,3.4-0.3,5.2c0.1,1.2,0.1,2.5,0.5,3.7c0,0.5,0.1,0.9,0.3,1.3c0.1,0.2,0.1,0.4,0.2,0.6c0.2,0.7,0.8,1.3,1,2.1
		c0.2,0.9,0.5,1.9-0.3,2.7c-0.2,0.2-0.2,0.8-0.1,1.2c0.1,0.8,0.2,1.7,0.4,2.5c0,0.7,0.4,1.3,0.8,1.9c0,0.1,0,0.1,0,0.2
		c-0.9,0.5-0.9,1.4-1.1,2.3c-0.3,1.7-0.7,3.4-1,5.2c-0.1,0.3-0.1,0.7-0.3,0.8c-0.3,0.2-0.3,0-0.2-0.2c0.4-2.3,0.7-4.6,1.1-6.8
		c0.1-0.4,0.1-0.7,0-1c-0.4-1-1-1.9-1.4-2.9c-0.2-0.5-0.5-1-0.6-1.6c0-0.2,0-0.3-0.1-0.5c-0.1-0.1-0.1-0.2,0-0.3
		c0.1-0.1,0.3,0,0.3,0.1c0.3,0.4,0.5,0.8,1,1.1c-0.5-1-0.7-2.1-1-3.1c-0.1-0.3-0.2-0.5,0-0.8c0.4-0.2,0.4,0.2,0.6,0.4
		c0.2,0.4,0.3,0.8,0.8,1.2c-0.2-0.9-1.1-1.2-1-2.1c-0.5-2.7-0.2-5.5-0.3-8.2c0-0.2,0.1-0.4,0.2-0.6c0.1-1.9-0.2-3.7-0.2-5.6
		C114.8,31.6,114.7,31.4,115,31.5z"/>
	<path class="st7" d="M115.6,22.2c-0.3-0.7-0.3-1.4-0.4-2.3c0.4,0.5,0.4,1,0.7,1.4c-0.3-2.6-1.1-5.1-1.1-7.8c0.2,0.5,0.2,1,0.5,1.4
		c0.1,0.3,0.1-0.1,0.2-0.1c0.1-0.5,0-1-0.2-1.5c0-0.2,0-0.4,0.2-0.4c0.2-0.1,0.3,0.1,0.4,0.2c0.2,0.3,0.3,0.7,0.6,0.9
		c0.2,0.2,0.3,0.5,0.4,0.7c0.3,1.2,1.3,2,1.8,3.1c0.1,0.3,0.4,0.5,0.1,0.8c-0.1,0-0.1,0.1-0.2,0.1c-0.3-0.2-0.3,0.3-0.4,0.3
		c-0.2,0-0.4-0.1-0.4-0.3c-0.1-0.7-0.7-1-1.1-1.5c0,0,0-0.1,0-0.1c-0.1,0-0.1,0,0,0.1c0,0.5,0.3,0.9,0.4,1.3c0.5,0.9,1,1.9,1.5,2.8
		c0.3,0.5,0.5,1,0.3,1.6c-0.4,0.3-0.6-0.1-0.8-0.3c-0.2-0.2-0.5-0.2-0.7-0.4c-0.6-0.8-0.5-1.8-0.9-2.6c-0.1-0.2-0.2,0-0.1-0.1
		c0,0,0.1,0,0.1,0c0.2,0.5,0.3,1,0.4,1.5c-0.1,1,0.3,1.9,0.7,2.7c0.7,1.3,1.3,2.7,1.3,4.2c-0.2,0.3-0.4,0.1-0.6,0
		c-0.2-0.1-0.3-0.1-0.5-0.1c-0.2,0-0.3-0.1-0.3-0.3c-0.1-0.8-0.6-1.5-0.5-2.4c-0.1,0-0.2,0.1-0.3,0.1c-0.5-0.5-0.1-1.3-0.5-1.8
		c-0.3-0.5-0.2-1-0.4-1.5C115.7,22.3,115.6,22.3,115.6,22.2z"/>
	<path class="st8" d="M115.6,62.4C115.6,62.4,115.6,62.4,115.6,62.4c0.1,0.2,0.2,0.2,0.2,0.1c0.4-1.8,0.7-3.6,1-5.4
		c0.1-0.8,0.4-1.6,0.4-2.4c0-0.2,0.2-0.2,0.4-0.3c0.2,0,0.6,0.1,0.6-0.3c0.5-0.5,0.6-0.6,0.9-0.3c-1.6,1.6-1.6,3.7-2,5.6
		c-0.6,2.7-1.1,5.5-1.6,8.2c-0.7,3.6-1.2,7.2-1.5,10.9c0,0.2-0.1,0.4-0.1,0.6c-0.9,0.1-0.8-0.5-0.8-1c0.1-1.1,0.3-2.1,0.4-3.2
		c0.1-0.9,0.5-1.8,0.4-2.7c0.5-2.6,0.9-5.2,1.4-7.8C115.3,63.7,115.3,63,115.6,62.4z"/>
	<path class="st9" d="M118.2,19.1c0-0.2-0.1-0.5-0.1-0.7c0.2,0,0.3,0.2,0.4,0.4c0.3,0.3,0.6,0.6,1,0.9c0.1,0.1,0.2,0.2,0.4,0.2
		c-0.3-1.3-0.4-2.6-1.3-3.7c-0.2-0.2-0.3-0.4-0.2-0.7c0.8,0.1,1.1,0.8,1.5,1.4c0.2,0.3,0.4,0.6,0.5,0.9c-0.2-1.2-1-2.1-2.1-2.4
		c-0.4,0-0.6-0.3-0.8-0.5c-0.2-0.3-0.4-0.6-0.6-0.9c-0.1-0.6-0.8-1.1-0.5-1.8c0.2-0.1,0.4-0.1,0.6,0c0.3,0.9,0.7,1.7,1.4,2.3
		c0.3,0.2,0.6,0.4,0.9,0.5c0.2,0.1,0.4,0.2,0.5,0.3c0.3,0.2,0.4,0.4,0.7,0.6c0.5-1.6,0.9-3.1,1.2-4.7c0.1-0.3,0.2-0.6,0-0.9
		c-0.1-0.6-0.1-1.2-0.2-1.8c0,0,0.1,0,0.1,0c0.2,0.8,0.5,1.5,0.7,2.3c0.8,1.2,0.8,2.4,0.4,3.7c-0.3,0.8-0.7,1.6-1.1,2.4
		c-0.2,0.4-0.4,0.8-0.3,1.2c0,0.7-0.3,1.4-0.3,2.2c0,0.4,0.1,0.7,0.3,1c0.4,0.7,0.6,1.5,0.6,2.3c0,0.5-0.1,0.9-0.4,1.3
		c-0.2,0.2-0.4,0.6-0.8,0.2c-0.3-0.9-0.5-1.8-0.5-2.7c0.1-0.3,0.3-0.2,0.5,0c0.2,0.2,0.2,0.5,0.4,0.7c0-1.4-1-2.2-2.1-2.9
		c-0.2-0.1-0.4-0.2-0.6-0.3c-0.2-0.1-0.3-0.3-0.3-0.5C118.1,19.3,118.1,19.2,118.2,19.1z"/>
	<path class="st10" d="M115.6,22.2c0,0,0.1,0,0.1,0c0.3,1,0.5,1.9,0.6,2.9c0.2,1.7,0,3.4,0.5,5.1c0,0.6,0,1.2,0.4,1.7
		c0,0.1,0.1,0.1,0.1,0.2c0.1,0.3,0.2,0.5,0.3,0.7c0,0.4,0.1,0.8,0.3,1.2c0.5,1,1.4,1.9,1.4,3.1c0,0.9,0.2,1.9,0.1,2.8
		c-1.2-0.1-1.9-0.8-2.5-1.7c-0.2-0.2-0.3-0.5-0.2-0.8c0.7-0.1,0.7,0.5,1,0.7c-0.1-0.2-0.2-0.5-0.3-0.8c0-2.2-0.8-4.2-1.3-6.3
		c-0.1-0.5,0-1-0.2-1.5c0-0.5-0.2-1,0-1.5c0.1-1.7-0.1-3.3-0.2-5C115.6,22.9,115.6,22.5,115.6,22.2z"/>
	<path class="st11" d="M121.3,18c-0.4-0.5-0.1-0.8,0.2-1.2c0.9-1.6,1.8-3.1,1.3-5c-0.1-0.3-0.4-0.6-0.2-1c0.3-0.8-0.1-1.6-0.2-2.4
		c-0.3-1.8-0.8-3.6-1.1-5.4c-0.1-0.4-0.3-0.6-0.5-0.9c-0.1-0.2-0.2-0.5,0-0.8c0.1-0.2,0.4-0.1,0.6,0c0.3,0.2,0.5,0.5,0.3,0.7
		c-0.7,0.8,0,1.5,0.2,2.3c0.2,1.1,0.6,2.2,0.7,3.3c0.3,1.9,0.8,3.7,1,5.5c-0.2,0.7,0.1,1.3,0.1,2C123.4,16.4,122.4,17.2,121.3,18z"
		/>
	<path class="st12" d="M116.6,8.7c0.2,0.1,0.4,0.1,0.5,0.3c0.2,0.6,0.6,1,1.2,1.2c0.4-0.3,0-0.8,0.3-1.2c0.3,0.2,0.3,0.5,0.3,0.8
		c0,0.4,0,0.8,0.4,1c0.3,0.2,0.3,0,0.3-0.2c0.2-1.5,0.5-3.1,0.3-4.6c0-0.1,0-0.3,0.1-0.4c1.2,1.9,1.7,3.8,0.7,5.9
		c-0.1,0.2-0.3,0.4,0,0.7c-0.1,0.7-0.3,1.3-0.3,2c0,0.3-0.1,0.6-0.5,0.7c-0.8-0.2-0.7-0.9-0.6-1.4c0.4-0.1,0.4-0.3,0.3-0.7
		c-0.2-1-1-1.4-1.8-1.9c-0.2-0.1-0.4-0.2-0.6-0.4c-0.2-0.3-0.4-0.6-0.6-0.9C116.5,9.3,116.4,9,116.6,8.7z"/>
	<path class="st13" d="M117,12.3c-0.1-0.2-0.3-0.2-0.5-0.2c-0.9-0.3-1.2-1.2-1.7-1.8c-0.3-0.1-0.3-0.3-0.4-0.5
		c-0.3-0.7-0.5-1.4-0.6-2.2c0.1,0.2,0.2,0.5,0.3,0.7c-0.9-2.8-1.1-5.6-2-8.4l0,0c0.8,1.5,1.1,3.2,1.6,4.9c0.2,0.7,0.5,1.4,0.7,2.1
		c0.2,0.6,0.6,1.1,0.9,1.7c0.6,0.9,1.1,1.8,1.8,2.7c0.3,0.3,0.5,0.8,0,1.1C117.1,12.4,117,12.4,117,12.3z"/>
	<path class="st14" d="M123.4,15.2c0.1-0.7-0.2-1.4,0.1-2.1c0.2,1.1,0.3,2.2,0.6,3.2c0.6,2.2-0.4,4-1.8,5.7
		c-0.5,0.1-0.7-0.2-0.6-0.6c0-0.6,0.2-1.1,0.4-1.6c0.5-1.3,1-2.5,1.3-3.8C123.4,15.6,123.5,15.4,123.4,15.2z"/>
	<path class="st15" d="M125.1,31.7c0.2-0.4,0.3-0.8,0.5-1.1c0.5,0.1,0.4,0.4,0.3,0.7c-0.2,0.9-0.2,1.8-0.4,2.7
		c-0.3,1.5-1.4,2.6-2.6,3.5c-0.2,0.2-0.5,0.4-0.8,0.4c-0.9-0.2-0.4-0.7-0.2-1c0.8-1.4,1.8-2.7,2.8-4c0.2-0.2,0.3-0.4,0.4-0.6
		C125.1,32,125.2,31.9,125.1,31.7z"/>
	<path class="st16" d="M125.2,19.9c0,0.8,0,1.5,0,2.3c0,2.1-1.2,3.5-2.8,4.7c-0.5-0.3-0.3-0.6-0.2-1c0.4-1.4,1.2-2.5,1.8-3.8
		c0.1-0.3,0.3-0.5,0.4-0.8c0-0.1,0.1-0.1,0.1-0.2c0.2-0.4,0.2-0.8,0.4-1.2C125.1,19.9,125.1,19.9,125.2,19.9z"/>
	<path class="st17" d="M122.5,47.2c0,0.4-0.4,0.6-0.6,0.8c-1.1,1.1-2.3,2-3.1,3.4c1-0.5,2.1-0.8,2.7-1.7c0.2-0.2,0.2-0.2,0.5-0.1
		c-0.3,0.4-0.6,0.8-0.9,1.2c-0.5,0.7-1,1.5-1.7,2c-0.7,0.5-1,0.4-1.3-0.4c0-0.6-0.1-1.2-0.1-1.8c0.2-0.1,0.4-0.2,0.6-0.5
		C119.5,48.7,120.9,47.9,122.5,47.2z"/>
	<path class="st18" d="M122.9,31.9c-0.7,0.4-0.7,0.9-0.4,1.5c-0.1,0.7-0.7,1.2-1,1.8c0,0.1-0.2,0.2-0.4,0.1
		c-0.2-0.1-0.2-0.3-0.2-0.5c0.1-0.5,0.3-1,0.5-1.5c0.1-0.3,0.1-0.5-0.2-0.7c-0.1-0.2-0.1-0.4-0.1-0.6c0.4-1.5,1.2-2.7,2.3-3.8
		c0.6-0.5,1.2-1.1,1.5-1.8c0.2-0.4,0.3-0.8,0.5-1.1c0.4,0.1,0.2,0.4,0.2,0.6c-0.1,0.9-0.5,1.7-1.1,2.4c-0.9,0.9-1.2,2.1-1.7,3.2
		C122.8,31.7,122.9,31.8,122.9,31.9z"/>
	<path class="st19" d="M122.9,31.9c-0.6-0.1-0.2-0.4-0.2-0.7c0.4-1.9,2.1-3.1,2.7-4.9c0.1-0.3,0.4-0.6,0.1-1
		c0.1-0.4,0.1-0.8,0.2-1.2c0.3,0,0.3,0.1,0.1,0.3c0.1,1.1-0.1,2.3-0.2,3.4C125.4,29.7,124.2,30.9,122.9,31.9z"/>
	<path class="st20" d="M125.3,34.1c0.2-0.9,0.3-1.8,0.5-2.7c0-0.3,0.1-0.5-0.1-0.8c0.2-0.5,0-1,0.3-1.5c0.2,0.2,0,0.5,0.1,0.7
		c-0.1-0.3,0.3-0.7,0.2-1.2c-0.1,0.2,0.2,0.5-0.3,0.5c-0.3-0.9,0.1-1.8,0.2-2.6c0.2-2.1,0.6-4.2,0.9-6.3c0-0.1,0.1-0.1,0.2-0.3
		c-0.3,2.4-0.6,4.6-0.8,6.8c0.1,0,0.1,0,0.2,0c0.2-0.9,0.3-1.9,0.5-2.8c0.1,0,0.1,0,0.2,0c-0.3,1.9-0.5,3.8-0.8,5.7
		c-0.2,1.5-0.5,3.1-0.7,4.6c0,0.1-0.1,0.3-0.1,0.4c-0.1-0.1-0.1-0.2-0.2-0.3C125.4,34.2,125.3,34.2,125.3,34.1z"/>
	<path class="st21" d="M121.3,32.8c0.1-0.1,0.2-0.2,0.3-0.2c0.2,0.1,0.2,0.3,0.2,0.4c-0.1,0.5-0.3,1-0.5,1.6
		c-0.1,0.2-0.2,0.4-0.1,0.8c0.4-0.7,0.7-1.4,1.3-1.9c0.9-0.5,2.1-0.7,2.6-1.7c0.2,0.1,0.2,0.2,0.1,0.3c-0.4,0.8-1,1.4-1.7,2
		c-1,0.8-1.7,1.7-2,2.9c-0.1,0.3-0.2,0.8-0.7,0.4c-0.5-0.7-0.5-1.4-0.4-2.2c0-0.1,0.1-0.2,0.1-0.4C121,34.2,120.9,33.4,121.3,32.8z"
		/>
	<path class="st22" d="M114.9,46.6c0.1,1.2,0.6,2.3,1,3.5c0.1,0.3,0.3,0.5,0.1,0.9c-0.6-0.4-1.1-0.8-1.3-1.5c0-0.1,0-0.2-0.1-0.1
		c0,0,0,0.1-0.1,0.2c-0.4-1.1-0.3-2.3-0.2-3.4c0.1-2.4,0.1-4.8,0.1-7.3c0-0.5,0-0.9,0-1.4c0-0.3,0.2-0.4,0.3,0
		c0.3,0.4,0.1,0.8,0.1,1.2c-0.1,2.3-0.2,4.6,0.1,6.9C114.9,45.9,115.1,46.3,114.9,46.6z"/>
	<path class="st23" d="M119.9,14.8c0.3-0.4,0.4-0.8,0.3-1.3c-0.1-0.5,0.1-0.9,0.5-1.3c0.7-0.5,0.9-1.2,1.1-2
		c0.4,0.7,0.1,1.5-0.1,2.2c-0.3,1.3-0.7,2.5-1,3.9c-0.5-0.3-0.8-0.6-1-0.9C119.5,15.1,119.7,14.9,119.9,14.8z"/>
	<path class="st24" d="M124.7,21.2c0.1,0.4-0.2,0.7-0.3,1c-0.7,1.3-1.5,2.6-2,4c-0.1,0.3-0.1,0.5,0.1,0.8c-0.4,0.4-0.1,0.8,0,1.2
		c-0.1,0.9-0.3,1.1-1,1.1c-0.3-0.7-0.1-1.5-0.2-2.3c0.2-0.9,0.5-1.7,0.8-2.6C122.7,23.1,123.7,22.2,124.7,21.2z"/>
	<path class="st11" d="M115.9,28.1c0.3,0.5,0.1,1,0.2,1.5c0.1,1.7,0.4,3.3,0.5,5c0.1,1.1,0.5,2.1,1,3c0.2,0.4,0.3,0.7,0.5,1.1
		c0,0-0.1,0-0.1,0.1c-0.4-0.4-0.8-0.9-1.3-1.3c-0.3-0.1-0.4-0.4-0.6-0.6c-0.4-0.7-0.5-1.6-0.6-2.4c-0.1-0.6,0.1-1.2,0-1.7
		c0-0.1,0.1-0.3,0.1-0.4c-0.3-0.6-0.1-1.2-0.1-1.8c0-0.3,0-0.6-0.1-0.9c-0.1-0.4-0.2-0.8,0-1.1C115.6,28.4,115.4,28,115.9,28.1z"/>
	<path class="st25" d="M124.7,21.2c-0.6,0.8-1.2,1.5-1.8,2.2c-0.6,0.7-0.8,1.7-1.1,2.6c-0.1,0.3-0.1,0.6-0.4,0.8
		c-0.5-0.2-0.7-0.7-0.9-1.2c0-0.2-0.1-0.6,0.4-0.6c0.9-0.2,0.8-0.9,0.9-1.5c0.2-0.4,0.1-0.9,0.7-1c0.8-0.4,1.6-0.8,2-1.6
		C124.9,20.9,124.9,21,124.7,21.2L124.7,21.2z"/>
	<path class="st21" d="M121.6,29.3c0.5-0.3,0.6-0.7,0.8-1.1c0.8-0.6,1.9-0.7,2.5-1.6c0.2,0.7-0.5,1.1-0.9,1.5
		c-1.3,1.2-2.2,2.6-2.8,4.1c-0.6-0.4-0.3-1-0.4-1.5c0-0.1,0-0.2,0.1-0.3C121.1,30,121.2,29.5,121.6,29.3z"/>
	<path class="st26" d="M122.5,22.5c-0.2,0.3-0.5,0.7-0.7,1c0-0.8-0.2-1.6-0.5-2.3c-0.1-2.2,1-3.8,2.2-5.5c0,1.4-0.7,2.5-1.1,3.8
		c-0.2,0.6-0.3,1.1-0.5,1.7c-0.1,0.5,0.2,0.5,0.4,0.6C122.4,22.1,122.4,22.3,122.5,22.5z"/>
	<path class="st27" d="M118.3,52.5c0.1,0.7,0.4,0.6,0.9,0.3c0.7-0.5,1.1-1.4,1.9-1.9c-0.4,1.1-1,2.2-2,3c-0.4-0.1-0.5,0.4-0.9,0.3
		c-0.8-0.1-0.6-0.8-0.8-1.2c-0.1-0.2,0-0.4,0-0.6c-0.2-0.5,0.1-0.8,0.3-1.2c0.6,0,0.4,0.5,0.5,0.7C118.1,52.1,117.8,52.5,118.3,52.5
		z"/>
	<path class="st28" d="M114.7,38.7c0-0.4,0-0.8,0.1-1.2c0.1-0.1,0.2-0.1,0.3-0.2c0,2.1,0.1,4.1,0,6.2c0,0.9,0.3,1.9,0.2,2.8
		c-0.4-0.2-0.4-0.5-0.5-0.8C114.5,43.2,114.7,41,114.7,38.7z"/>
	<path class="st29" d="M114.4,9.9c0.2,0.1,0.3,0.3,0.5,0.2c0.5,1.1,1,2.3,1.6,3.3c0,0.3,0.1,0.5-0.1,0.8c-0.7-0.1-0.6-0.8-1-1.3
		c0,0.7,0.4,1.3,0,1.9C115.1,13.2,114.7,11.5,114.4,9.9z"/>
	<path class="st30" d="M114.6,50c0.9,1.3,1.2,2.9,2.3,4.2c0.2,0.2-0.1,0.3-0.2,0.3C115.1,53.3,114.7,51.7,114.6,50z"/>
	<path class="st31" d="M119.2,11c-0.9-0.5-0.4-1.3-0.6-2c0.1-0.6,0.5-0.9,0.8-1.3c0.3-0.3,0.3-0.8,0.4-1.2c0.4,0,0.2,0.3,0.2,0.5
		c0,1.3-0.6,2.4-0.6,3.7C119.6,10.9,119.4,11.1,119.2,11z"/>
	<path class="st32" d="M125.2,19.9c0,0-0.1,0-0.1,0c-0.1-0.1-0.1-0.2-0.1-0.3c0-3.5-0.4-6.9,0-10.4c0.1,2.3,0.2,4.6,0.2,6.9
		C125.1,17.4,125.4,18.7,125.2,19.9z"/>
	<path class="st33" d="M119.2,11c0.1-1.3,0.5-2.6,0.8-3.8c0.1-0.2,0.1-0.4-0.2-0.6c0-0.3,0-0.5,0-0.8c0-0.2,0-0.2,0.2-0.2
		c0,0,0,0,0,0c0.4,1.8,0,3.6-0.2,5.4c0,0.2,0,0.4-0.2,0.4C119.4,11.5,119.3,11.2,119.2,11z"/>
	<path class="st34" d="M113.7,72.2c0.3,1.1-0.2,2.1-0.3,3.1c-0.1,1-0.3,2-0.3,3.1c0,0.4,0.1,0.7,0.5,0.7c0,0.2,0.1,0.4-0.1,0.5
		c-0.8-0.4-1.1-1-0.9-1.9C113.2,75.9,113.4,74.1,113.7,72.2z"/>
	<path class="st35" d="M125.8,24.5c0-0.1-0.1-0.2-0.1-0.3c0-2,0.2-3.9,0.4-5.9c0.1-1.1,0.2-2.2,0.3-3.2c0.2,1.4-0.1,2.8-0.1,4.2
		c-0.1,1.5-0.3,3.1-0.3,4.6C125.9,24.2,125.9,24.4,125.8,24.5z"/>
	<path class="st36" d="M115.6,28.5c0,0.4,0,0.7,0,1.1c0.1,0.9,0.1,1.7,0,2.6c-0.2,0.2-0.3,0-0.4-0.1c0.3-0.8,0.1-1.6,0.1-2.4
		c-0.1-1.9-0.2-3.8-0.5-5.6c0.2,0.7,0.5,1.3,0.5,2C115.2,26.9,115.5,27.7,115.6,28.5z"/>
	<path class="st37" d="M115.2,8.6c-0.3-0.5-0.9-0.9-0.7-1.6c0.4,0.6,0.9,1,1.6,1.4c0.3,0,0.4,0.3,0.5,0.4c0,0,0,0,0,0
		c0.1,0.3,0.1,0.5,0.2,0.8c0.1,0.7-0.3,0.4-0.5,0.2C115.9,9.4,115.6,9,115.2,8.6z"/>
	<path class="st38" d="M115,31.5c-0.1,0.1-0.1,0.2-0.2,0.3c-0.4-1.6-0.8-3.2-1.3-5C114.6,28.4,115,29.9,115,31.5z"/>
	<path class="st39" d="M114.4,36.9c-0.2-1.5-0.8-3-1.1-4.6C114.4,33.8,114.3,35.4,114.4,36.9z"/>
	<path class="st40" d="M115.2,5.6c-0.7-1.1-1-2.3-1.5-3.5C114.4,3.2,115,4.4,115.2,5.6L115.2,5.6z"/>
	<path class="st41" d="M116.6,8.7c-0.2-0.1-0.4-0.3-0.5-0.4c-0.1-1-0.8-1.7-0.9-2.7c0,0,0,0,0,0C115.8,6.6,116.3,7.6,116.6,8.7z"/>
	<path class="st42" d="M118.4,10.2c0,0.1,0,0.2,0,0.2c-0.6,0-1.4-0.8-1.3-1.4C117.6,9.4,118,9.8,118.4,10.2z"/>
	<path class="st43" d="M118.5,2.8c-0.4-0.9-0.8-1.9-1.3-2.8c0.7,0.8,1.1,1.7,1.4,2.6C118.8,2.8,118.7,2.8,118.5,2.8z"/>
	<path class="st44" d="M120.6,4.1c0.2,0.9,0.6,1.8,0.7,2.8c-0.4-0.9-0.7-1.7-0.8-2.7C120.3,4.1,120.4,4.1,120.6,4.1z"/>
	<path class="st45" d="M120.6,4.1c0,0.1-0.1,0.1-0.1,0.2c-0.3-0.8-0.5-1.6-0.5-2.5C120.1,2.6,120.3,3.4,120.6,4.1z"/>
	<path class="st46" d="M118.5,2.8c0.1-0.1,0.1-0.1,0.2-0.2c0.3,0.7,0.8,1.3,0.9,2l0,0C119.1,4.1,118.9,3.4,118.5,2.8z"/>
	<path class="st24" d="M124.9,19.6c0.1,0.1,0.1,0.2,0.1,0.3c-0.1,0.4-0.1,0.9-0.4,1.3c0-0.1,0-0.3-0.2-0.3
		C124.7,20.5,124.8,20,124.9,19.6z"/>
	<path class="st13" d="M112.1,0c-0.3-0.3-0.3,4.2-0.4,3.8C112,4.2,112.1-0.4,112.1,0C112.2,0,112.1,0,112.1,0z"/>
	<path class="st12" d="M120.1,5.6c-0.1,0.1-0.1,0.1-0.2,0.2c-0.2-0.4-0.3-0.8-0.3-1.2c0,0,0,0,0,0C119.8,4.9,120,5.2,120.1,5.6z"/>
	<path class="st47" d="M124.8,36.4c0.3,0.2,0,0.4,0,0.6c-0.6,0.9-1.3,1.6-2.1,2.2c-0.9,0.7-1.5,1.6-1.9,2.7
		c-0.1,0.4-0.4,0.9-0.8,0.2c-0.1-0.6-0.6-1.1-0.2-1.7c0.1-0.1,0.2-0.2,0.3-0.3c0.2-0.2,0.4-0.4,0.6-0.7c0.3-0.5,0.8-0.9,1.3-1.3
		C123,37.7,123.9,37.1,124.8,36.4z"/>
	<path class="st48" d="M120.1,42.1c0.1,0,0.2,0.5,0.4,0c0.5-1.6,1.5-2.7,2.9-3.7c0.5-0.4,0.9-0.9,1.4-1.4c-0.3,1.1-1.3,1.9-2,2.8
		c-0.5,0.7-1.3,1.2-1.6,2.1c-0.3,0.8-0.3,0.8,0.6,0.7c0,0.5-0.7,0.6-0.7,1.1c-0.3,0.3-0.5,0.8-1.1,0.6
		C119.7,43.6,119.7,42.8,120.1,42.1z"/>
	<path class="st25" d="M120,44.4c0.3-0.3,0.6-0.5,0.9-0.8c0-0.2,0.1-0.3,0.2-0.3c0.9-0.3,1.7-0.7,2.6-1.2c0.3,0.2,0,0.3,0,0.5
		c-0.5,0.6-1.1,1.2-1.8,1.6c-0.7,0.4-1.3,1-1.7,1.7c-0.3,0.4-0.4,1-1,1c-0.4-0.5-0.6-1-0.6-1.5c0.1-0.2,0.3-0.3,0.5-0.3
		c0.3,0,0.4-0.1,0.5-0.3C119.7,44.6,119.8,44.4,120,44.4z"/>
	<path class="st49" d="M119.2,46.9c0.7-0.7,1-1.8,1.9-2.4c0.9-0.6,1.8-1.2,2.6-1.9c-0.2,0.6-0.7,1.1-1.2,1.6
		c-0.9,0.9-1.9,1.8-2.6,2.9c-0.3,0.4-0.2,0.6,0.3,0.6c-0.3,0.6-0.6,0.8-1.2,0.2C119,47.6,118.9,47.2,119.2,46.9z"/>
	<path class="st50" d="M119.2,48c0.4,0.2,0.7-0.2,1-0.3c0.2,0,0.5,0,0.7-0.1c0.6-0.4,1.2-0.9,1.9-1c0,0.3-0.2,0.5-0.4,0.7
		c-0.7,0.5-1.4,1-2.1,1.4c-0.7,0.4-1.2,1.1-1.6,1.8c-0.1,0.2-0.2,0.6-0.6,0.2c-0.4-0.1-0.4-0.4-0.4-0.8c0.1-0.2,0.5-0.2,0.6-0.4
		C118.8,49,118.7,48.3,119.2,48z"/>
	<path class="st51" d="M123.7,42.1c-0.5,0.6-1.2,1-2,1.2c-0.3,0-0.5,0.2-0.8,0.3c-0.3-0.7,0.7-0.5,0.8-1c1.1-0.7,2-1.6,2.9-2.7
		C124.5,40.9,124.1,41.5,123.7,42.1z"/>
	<path class="st52" d="M124.8,36.4c-0.6,1.1-1.7,1.5-2.8,1.8c-0.1-0.2-0.2-0.4,0.1-0.5c1.4-0.9,2.7-1.9,3.2-3.6c0,0,0.1,0.1,0.1,0.1
		C125.4,35,125.1,35.7,124.8,36.4z"/>
	<path class="st53" d="M122.9,46.5c-0.6,0.4-1.1,1-1.9,1c-0.3-0.1-0.2-0.2,0-0.3c0.8-0.6,1.7-1.2,2.4-2.1
		C123.4,45.8,122.8,46.1,122.9,46.5z"/>
	<path class="st54" d="M119.2,48c-0.2,0.5-0.3,1.1-0.7,1.5c-0.8,0.1-0.5-0.5-0.6-0.8c-0.1-1.2-0.3-2.3-0.8-3.4
		c-0.3-0.5-0.7-1-0.9-1.6c-0.2-0.1-0.1-0.3-0.2-0.5c-0.1-0.2-0.1-0.3,0.1-0.4c0.7,0.9,1.7,1.3,2.6,2c0,0.1,0,0.2,0,0.4
		c0,0.6,0.4,1.1,0.5,1.6C119.2,47.3,119.2,47.7,119.2,48z"/>
	<path class="st55" d="M115.6,32.8c0.3,0.6,0.1,1.2,0.2,1.8c-0.1,1.3,0.3,2.4,0.7,3.6c0.4,1.1,0.5,2.2,0.6,3.4c0,0.3,0,0.6-0.2,0.9
		c-0.5,0.2-0.7-0.2-0.9-0.5c-0.3-0.7-0.5-1.4-0.5-2.2c0-0.4,0.1-0.9-0.2-1.3C115.2,36.5,115.2,34.6,115.6,32.8z"/>
	<path class="st56" d="M116.3,43.8c1.1,1.5,1.9,3.1,1.9,5c0,0.3-0.1,0.6,0.3,0.7c-0.1,0.4-0.4,0.2-0.7,0.2c0,0.2-0.4-0.2-0.3,0.1
		c0.1,0.4,0.3,0.9,0.1,1.3c0.1,0.4-0.4,0.7-0.4,1.2c-0.4-1.3-0.5-2.7-0.4-4.2c0.1,0,0.3,0.4,0.5-0.2c0.3-1.2-0.1-2.3-0.7-3.3
		C116.5,44.4,116.3,44.2,116.3,43.8z"/>
	<path class="st42" d="M114.9,45.7c0.1,0.2,0.3,0.4,0.4,0.6c0.1,0.4,0.4,0.8,0.8,1.1c0.2,0.2,0.4,0.4,0.4,0.7c0,0.2,0,0.3-0.2,0.4
		c-0.2,0.1-0.3-0.1-0.4-0.2c-0.5-0.5-0.6-1.2-1-1.8c-0.1-0.3-0.1-0.6-0.2-0.8C114.8,45.7,114.8,45.7,114.9,45.7z"/>
	<path class="st57" d="M115.3,38.4c0.5,0.3,0.2,0.8,0.3,1.2c0.2,1.1,0.2,2.2,1.2,2.9c0,0,0.1,0,0.1,0c0.4,0.3,0.8,0.8,0.4,1.1
		c-0.4,0.3-0.6-0.3-0.8-0.6c-0.2-0.2-0.4-0.4-0.5-0.7c-0.1-0.1-0.1-0.2-0.1-0.3C115.3,40.8,115.4,39.6,115.3,38.4z"/>
	<path class="st11" d="M115.6,32.2c0-0.9,0-1.7,0-2.6c0.3,0.9,0.1,1.8,0.1,2.7C115.7,32.3,115.6,32.3,115.6,32.2z"/>
	<path class="st56" d="M115.8,41.9c0,0.1,0.1,0.1,0.1,0.2c0.1,0.3,0.4,0.5,0.3,0.9c0,0.1-0.1,0.2-0.1,0.3
		C115.8,42.9,115.7,42.4,115.8,41.9z"/>
	<path class="st58" d="M117.5,28c0,0.1,0.2,0.2,0.3,0.2c0.4,0.3,0.4,0.7,0.6,1.1c0.1,0.4,0.4,0.8,0.6,1.2c0.5,0.8,0.9,1.6,0.7,2.5
		c-0.1,0.3,0.1,0.6,0.2,0.9c0.1,0.3,0.3,0.6-0.1,0.8c-1-0.2-1.2-1.1-1.6-1.7c-0.1-0.4-0.2-0.9-0.2-1.3c0-0.7-0.2-1.5-0.6-2.1
		c-0.5-0.8-0.6-1.8-0.9-2.6c-0.1-1-0.4-2.1-0.1-3.1c0.5,0.6,0.1,1.3,0.5,2C117.1,26.4,117.2,27.2,117.5,28z"/>
	<path class="st58" d="M118.7,28.5c-0.2-1.9-1.1-3.5-1.8-5.2c-0.2-0.6-0.6-1.2-0.3-1.9c0.5,0.5,0.4,1.4,1,1.9c0.5,0.3,0.7,0.9,1,1.4
		c0.1,0.4,0.4,0.8,0.7,1.1c0.5,0.7,0.8,1.4,0.7,2.2c-0.1,0.4,0.2,0.7,0.3,1.1c0.1,0.3,0.3,0.5,0.3,0.8c-0.1,0.3-0.3,0.2-0.5,0.1
		c-0.1,0-0.1-0.1-0.2-0.1C119.3,29.5,118.8,29.2,118.7,28.5z"/>
	<path class="st59" d="M117.7,14.8c0.2,0.2,0.4,0.3,0.7,0.5c0.1,0,0.2,0.1,0.2,0.2c1.2,1.4,1.5,3,1.8,4.7c-0.4,0-0.6-0.3-0.9-0.4
		c-0.1-0.4-0.6-0.6-0.7-1c0-0.7-0.5-1.3-0.9-1.9c-0.4-0.6-0.9-1.3-1-2C117.1,14.6,117.4,15.3,117.7,14.8z"/>
	<path class="st60" d="M118.2,29.3c-0.1-0.4-0.3-0.8-0.4-1.1c0.1-0.2,0.2-0.2,0.4,0c0.4,0.7,1,1.3,1.7,1.8l0,0
		c0.3,0.2,0.5,0.5,1,0.5c0.1,0,0.1,0,0.2,0c0.1,0.5-0.1,1.1,0.2,1.6c0,0.2,0,0.4,0,0.7c0,0.7,0,1.5-0.6,2.1
		c-0.4,0.1-0.5-0.2-0.5-0.5C120.1,32.4,119.3,30.8,118.2,29.3z"/>
	<path class="st61" d="M118.2,19.4c0.1,0.1,0.2,0.2,0.3,0.4c0.3,0.4,0.7,0.7,1,1.1c0.4,0.7,0.8,1.4,0.6,2.2
		c-0.1,0.3,0.2,0.6,0.3,0.9c0.1,0.3,0.4,0.6,0,0.9c-0.9-0.3-1.5-0.8-1.8-1.7c0.2-1.3-0.8-2.2-1.3-3.3c-0.2-0.5-0.6-0.8-0.6-1.3
		c0.6,0,0.7,0.5,0.9,0.8C118,19.7,118.1,19.6,118.2,19.4z"/>
	<path class="st62" d="M118.4,24.7c-0.2-0.4-0.4-0.9-0.9-1.1c0.1-0.3-0.4-0.6,0-0.9c0.3-0.4,0.4-0.1,0.5,0.1c0.4,1,1,1.7,2,2.2
		c0.2,0.1,0.4,0.2,0.6,0.5c0.1,0.1,0.1,0.2,0.1,0.3c0.2,0.4,0.5,0.8,0.7,1.1c0.3,0.8,0.1,1.7,0.2,2.5c-0.1,0.4-0.2,0.7-0.5,1
		c-0.4,0.1-0.4-0.2-0.5-0.5c-0.2-0.6-0.3-1.3-0.3-2c0.4-0.1,0.4-0.1,0.7,0.3c0.1-1.5-1-2.2-2.1-3C118.6,25.1,118.5,24.9,118.4,24.7z
		"/>
	<path class="st63" d="M116.3,23.7c0,1.1,0.2,2.1,0.3,3.1c0.3,0.7,0.4,1.5,0.5,2.3c0.1,0.9,0.4,1.9,0.5,2.8c0,0.2-0.1,0.3-0.4,0.3
		c0-0.1,0-0.1-0.1-0.2c-0.3-0.5-0.4-1.1-0.5-1.7c-0.4-1.5-0.3-3-0.5-4.6c-0.1-1.2-0.2-2.4-0.5-3.7C116.3,22.6,116,23.2,116.3,23.7z"
		/>
	<path class="st51" d="M120.6,25.5c-0.9-0.6-2-1.1-2.5-2.1c-0.1-0.2-0.5-0.4-0.1-0.7c0.2,0.2,0.5,0.3,0.7,0.5c0.6,0.5,1,1.3,1.7,1.6
		C120.7,25,120.7,25.3,120.6,25.5z"/>
	<path class="st64" d="M118.2,19.4c0,0.2,0,0.4-0.1,0.6c-0.6-0.4-0.8-1-1.3-1.4c-0.1-0.4-0.7-0.8-0.4-1.3c0.6,0.4,1.1,0.9,1.4,1.5
		c0.1,0.1,0.2,0.2,0.3,0.3C118.2,19.2,118.2,19.3,118.2,19.4z"/>
	<path class="st65" d="M117.5,22.6c-0.1,0.3,0.3,0.6,0,0.9c-0.6-0.6-0.8-1.4-0.9-2.2c-0.1-0.6-0.2-1.1-0.3-1.7c0,0,0.1,0,0.1,0
		C116.7,20.7,117.1,21.6,117.5,22.6z"/>
	<path class="st66" d="M117.7,14.8c0,0.2,0,0.4-0.1,0.6c-0.4,0-0.5-0.4-0.8-0.5c-0.2-0.2-0.3-0.4-0.4-0.7c0-0.2-0.3-0.5,0-0.7
		c0.5-0.1,0.5,0.3,0.7,0.5C117.4,14.2,117.6,14.5,117.7,14.8z"/>
	<path class="st67" d="M117.8,18.8c-0.6-0.4-1.1-0.9-1.4-1.5c0-0.2-0.2-0.3,0-0.7C116.6,17.6,117.9,17.7,117.8,18.8z"/>
	<path class="st68" d="M119.9,30c-0.8-0.4-1.6-0.8-1.7-1.8c0.2,0.1,0.3,0.2,0.5,0.4C119.1,29,119.5,29.5,119.9,30z"/>
	<path class="st69" d="M117.5,28c-0.6-0.7-0.6-1.5-0.8-2.3c0-0.1,0.1-0.2,0.2-0.2C117.1,26.3,117.6,27.1,117.5,28z"/>
	<path class="st70" d="M118.7,18.8c0.5,0.1,0.8,0.4,0.7,1c-0.4-0.3-0.9-0.4-0.9-1C118.6,18.8,118.6,18.8,118.7,18.8z"/>
	<path class="st71" d="M115.2,8.6c0.4,0.3,0.8,0.7,1.2,1c0.2,0.2,0.3,0.2,0.4-0.1c0.2,0.3,0.3,0.6,0.5,0.8c0.3,0.4,0.7,0.7,1,1.1
		c0.3,0.5,0.6,1,0.6,1.6c-0.1,0.4,0.1,0.7,0.3,1.1c0.1,0.3,0.3,0.7,0,1c-0.3-0.2-0.6-0.3-0.9-0.5c-0.5-0.7-1-1.4-1.3-2.3
		c0.5-0.4,0.1-0.8-0.2-1.1C116.3,10.4,115.7,9.5,115.2,8.6z"/>
	<path class="st72" d="M123.5,15.8c-0.9,1.8-2,3.4-2.2,5.5c-0.7-1-0.2-2-0.1-3c0-0.1,0.1-0.2,0.1-0.3c0.2-0.3,0.4-0.6,0.7-0.8
		c0.8-0.5,1.2-1.2,1.4-2C123.6,15.3,123.5,15.6,123.5,15.8z"/>
	<path class="st73" d="M120.6,25.5c0.1-0.2,0-0.5-0.2-0.7c-0.2-0.9-0.6-1.7-0.6-2.6c0-0.6-0.5-1.2-0.9-1.7c-0.2-0.2-0.4-0.5-0.4-0.8
		c0.2,0.1,0.3,0.2,0.5,0.3c0.7,0.6,1.4,1.1,1.4,2.1c0.2,0.9,0.3,1.9,0.5,2.8c-0.3,0.2-0.1,0.4-0.2,0.7
		C120.7,25.6,120.6,25.6,120.6,25.5z"/>
	<path class="st74" d="M120.4,22.2c-0.3-0.8-0.9-1.4-1.4-2.1c1.4,0.5,2.5,1.9,2.4,3.2c0,0.1,0,0.3-0.1,0.3c-0.2,0-0.3-0.1-0.3-0.3
		C120.8,23,120.8,22.5,120.4,22.2z"/>
	<path class="st75" d="M119.2,15.1c-0.6-1.4-0.3-3.1-1.6-4.3c-0.2-0.1-0.3-0.3-0.3-0.5c0.2,0.1,0.3,0.2,0.5,0.3
		c0.9,0.7,1.6,1.4,1.6,2.6c0,0.5-0.1,1.1,0.5,1.5c-0.1,0.2-0.1,0.3-0.2,0.5C119.5,15.3,119.3,15.3,119.2,15.1z"/>
	<path class="st76" d="M117.1,14c-0.2-0.2-0.5-0.3-0.7-0.5c-0.9-1-1.2-2.2-1.5-3.4c0.4,0.8,0.9,1.5,1.6,2.1
		C116.6,12.8,117.1,13.3,117.1,14z"/>
	<path class="st77" d="M118.5,15.5c-0.1-0.1-0.1-0.1-0.2-0.2c0.8,0,1.3,0.4,1.8,0.9c0.5,0.6,0.7,1.3,0.5,2.1
		C120,17.4,119.6,16.2,118.5,15.5z"/>
	<path class="st78" d="M121.7,15.2c0.2-1.2,0.3-2.4,0.5-3.8C122.7,12.8,122.6,14.1,121.7,15.2z"/>
	<path class="st79" d="M117.1,12.4c0.6,0.7,1,1.4,1.3,2.3c-0.8-0.5-1.1-1.3-1.5-2.1c-0.1-0.1,0-0.2,0.1-0.3
		C117,12.4,117,12.4,117.1,12.4z"/>
	<path class="st80" d="M120.8,39.5c-0.2,0.2-0.2,0.5-0.5,0.7c-0.4,0-0.5-0.3-0.6-0.6c0-0.6-0.2-1.2-0.1-1.9c0.3-0.5,0.4,0,0.6,0.1
		c-0.1-1.1-0.5-2-1.6-2.5c-0.4-0.3-0.7-0.8-0.9-1.3c-0.2-0.4-0.3-0.7-0.2-1.1c0.2,0,0.3,0.1,0.4,0.3c0.2,0.7,0.8,1,1.4,1.4
		c0.4,0.1,0.5,0.7,1.1,0.5c0.1,0,0.1,0,0.2,0c-0.1,0.8,0.2,1.5,0.4,2.3C121.5,38.1,121.1,38.8,120.8,39.5z"/>
	<path class="st80" d="M120,44.4c-0.1,0.1-0.2,0.3-0.3,0.4c-0.7,0.3-0.9,0.3-1-0.4c-0.1-0.5-0.1-0.9,0.1-1.4c0.1-0.4,0.4-0.2,0.6,0
		c0.1-1.6-0.9-2.6-2.1-3.5c-0.3-0.2-0.5-0.5-0.7-0.9c-0.1-0.6-0.6-1.1-0.2-1.7c0.2,0.1,0.2,0.4,0.4,0.6c0.3,1,0.8,1.8,2,2.1
		c0.2,0.1,0.4,0.3,0.6,0.4c0.2,0.1,0.5,0.1,0.5,0.3c-0.5,0.6,0.2,1.2,0.2,1.8C120.1,42.9,120.1,43.6,120,44.4z"/>
	<path class="st81" d="M117.7,37.7c-0.9-0.6-1-1.5-1.2-2.4c-0.3-1.9-0.4-3.8-0.4-5.7c0.3,0.5,0.1,1.1,0.3,1.6
		c0.2,0.9,0.4,1.8,0.8,2.6C117.7,35,117.4,36.4,117.7,37.7z"/>
	<path class="st82" d="M119.9,40.3c-0.2-0.1-0.4-0.2-0.5-0.3c-0.1-0.8-0.5-1.5-0.3-2.4c0.2-1-0.5-1.9-1.1-2.8
		c-0.2-0.3-0.4-0.5-0.4-0.8c0.3,0.4,0.7,0.8,1,1.2c0.7,0.6,1.2,1.3,1.1,2.3c0.1,0.7,0.2,1.4,0.2,2.1c0,0.2,0.1,0.4,0.3,0.5
		C120.2,40.3,120.1,40.3,119.9,40.3z"/>
	<path class="st83" d="M120.4,35.1c0,0.2,0,0.4,0,0.6c-0.5-0.2-0.7-0.7-1.2-0.9c-0.4-0.6-1.2-0.9-1.4-1.6c-0.1-0.1-0.2-0.2-0.3-0.3
		c-0.1-0.2-0.4-0.3-0.3-0.7c0.1-0.1,0.2-0.1,0.3-0.2c0.5,0.1,0.7,0.5,0.9,0.9c0.5,0.5,0.7,1.2,1.4,1.6
		C120,34.6,120.3,34.7,120.4,35.1z"/>
	<path class="st82" d="M116.6,30.4c0.3,0.5,0.5,1.1,0.5,1.7C116.6,31.6,116.6,31.1,116.6,30.4z"/>
	<path class="st84" d="M119.4,13.3c-0.3-1-0.9-1.8-1.6-2.6c1.4,0.6,2.2,1.4,2,3C119.5,13.7,119.6,13.4,119.4,13.3z"/>
	<path class="st11" d="M123.5,18.9c-0.2-0.3-0.2-0.7,0.1-1.1C123.7,18.3,123.7,18.6,123.5,18.9z"/>
	<path class="st85" d="M120.8,39.5c0.1-0.7,0.2-1.4,0.2-2.2c0.2,0,0.3-0.1,0.3-0.2c0.3-1.5,1.3-2.6,2.5-3.6c0.5-0.4,1-1,1.5-1.5
		c-0.4,1.2-1.4,2.1-2.1,3.1c-0.5,0.7-0.7,1.5-1.3,2.1c-0.3,0.2-0.1,0.4,0.3,0.5c-0.1,0.2-0.1,0.3-0.1,0.5
		C121.6,38.6,121.2,39.1,120.8,39.5z"/>
	<path class="st86" d="M117.7,51.2c-0.2-0.7-0.3-1.3-0.5-2.1c0.4,0,0.4,0.5,0.7,0.6c0.1,0.3,0.2,0.5,0.3,0.8c0.1,0.7,0.2,1.3,0.2,2
		c-0.1,0.2-0.2,0.4-0.3,0.6C117.6,52.5,118.1,51.7,117.7,51.2z"/>
	<path class="st11" d="M125.9,29.1c0.3-0.2,0.1-0.6,0.3-0.8c0.3,0.6-0.3,1.2-0.2,1.8C126,29.8,126,29.4,125.9,29.1
		C125.9,29.1,125.9,29.1,125.9,29.1z"/>
	<path class="st87" d="M120.4,35.1c-0.2-0.2-0.5-0.3-0.7-0.5c0,0,0.1-0.1,0.1-0.1c-0.6-1.4-0.1-3.2-1.3-4.5
		c-0.2-0.2-0.3-0.5-0.3-0.7c1.3,1.4,2.2,3,2.2,5c0,0.3,0,0.5,0.3,0.6c-0.1,0.1-0.1,0.1-0.2,0.2C120.6,35.1,120.5,35.1,120.4,35.1
		L120.4,35.1z"/>
	<path class="st88" d="M114.9,45.7c-0.1,0-0.1,0-0.2,0c-0.3-2.3-0.2-4.7-0.1-7C114.8,41,114.6,43.4,114.9,45.7z"/>
	<path class="st89" d="M116.4,36.9c0.1,0.6,0.3,1.2,0.4,1.8c0.4,0.8,1,1.4,1.3,2.3c0.3,0.7,0.5,1.4,0.2,2.1c-0.1,0.3,0,0.6,0.2,0.9
		c0.1,0.3,0.4,0.6,0.1,0.9c-1-0.4-2-0.8-2.5-1.9c-0.1-0.3-0.2-0.6-0.3-0.9c0.4,0.5,0.8,0.9,1.2,1.4c0,0,0.1,0,0.1,0
		c-0.1-0.3-0.3-0.7-0.4-1c0-1.6-0.2-3.2-0.7-4.7c-0.4-1-0.7-2.1-0.3-3.2C116,35.3,116,36.2,116.4,36.9z"/>
	<path class="st90" d="M120.4,27.6c0.1,0.7,0.2,1.4,0.3,2.1c0,0.2,0.1,0.4,0.3,0.5c0,0.1,0,0.1,0,0.2c0,0-0.1,0-0.1,0
		c-0.3,0.1-0.5,0-0.5-0.3c-0.4-0.9-0.9-1.7-0.7-2.8c0.1-0.5-0.4-1-0.7-1.5c-0.2-0.4-0.6-0.7-0.7-1.2c0.2,0.1,0.3,0.2,0.5,0.3
		c0.7,0.5,1.2,1.1,1.5,1.9C120.5,27.1,120.6,27.4,120.4,27.6z"/>
	<path class="st91" d="M118.7,44.9c-0.2-0.4-0.3-0.8-0.5-1.2c-0.1-0.3-0.1-0.6,0-0.9c0.4-0.9-0.2-1.6-0.6-2.4
		c-0.3-0.6-0.7-1.1-0.8-1.8c0.2,0.2,0.4,0.4,0.7,0.7c0.7,0.8,1.2,1.6,1.5,2.6c0.1,0.3,0.3,0.6,0,0.8c0,0.5,0,1,0,1.5
		c-0.1,0.6,0.2,0.7,0.7,0.5c-0.1,0.7-0.6,0.4-1,0.5C118.7,45.1,118.7,45,118.7,44.9z"/>
	<path class="st7" d="M118.3,33c-0.4-0.2-0.6-0.5-0.9-0.9c-0.6-1.7-0.7-3.5-0.9-5.2c0.5,0.6,0.4,1.5,0.8,2.1
		C118.2,30.2,118.1,31.6,118.3,33z"/>
	<path class="st68" d="M120.4,30.1c0.2,0.1,0.4,0.2,0.5,0.3c0,0.2,0,0.3,0,0.6c-0.4-0.4-0.7-0.8-1-1.1
		C120.1,30,120.2,30.1,120.4,30.1z"/>
	<path class="st92" d="M120.4,27.6c-0.3-1-1-1.8-1.6-2.6c1.6,0.5,2.7,2.3,2.3,3.7C120.7,28.5,120.8,27.9,120.4,27.6z"/>
	<path class="st93" d="M119.7,37.5c-0.2-0.8-0.7-1.5-1.1-2.3c1.1,0.2,1.6,1.3,1.7,2.3c0,0.3,0.1,0.6-0.1,0.9
		C119.9,38.3,120,37.7,119.7,37.5z"/>
	<path class="st94" d="M117.8,33.2c0.5,0.5,1.1,0.9,1.4,1.6c-0.5-0.4-1.1-0.7-1.5-1.3C117.7,33.3,117.7,33.2,117.8,33.2z"/>
	<path class="st77" d="M119,42.8c-0.3-1.3-1-2.3-1.6-3.5c1.1,0.8,2.2,1.8,2.2,3.3c0,0.3,0.1,0.6-0.2,0.9
		C119,43.4,119.4,42.9,119,42.8z"/>
</g>
</svg>
